%TF.GenerationSoftware,KiCad,Pcbnew,8.0.6*%
%TF.CreationDate,2025-06-06T13:34:11-05:00*%
%TF.ProjectId,Placa_principal_v2,506c6163-615f-4707-9269-6e636970616c,rev?*%
%TF.SameCoordinates,Original*%
%TF.FileFunction,Legend,Bot*%
%TF.FilePolarity,Positive*%
%FSLAX46Y46*%
G04 Gerber Fmt 4.6, Leading zero omitted, Abs format (unit mm)*
G04 Created by KiCad (PCBNEW 8.0.6) date 2025-06-06 13:34:11*
%MOMM*%
%LPD*%
G01*
G04 APERTURE LIST*
%ADD10C,0.300000*%
%ADD11C,0.150000*%
%ADD12C,0.000000*%
%ADD13C,0.120000*%
G04 APERTURE END LIST*
D10*
G36*
X93223279Y-112125000D02*
G01*
X92579211Y-112125000D01*
X92508017Y-112114885D01*
X92449336Y-112069934D01*
X92431933Y-111997138D01*
X92431933Y-111549075D01*
X92432150Y-111537237D01*
X92440962Y-111489724D01*
X92674099Y-111489724D01*
X92674099Y-111890526D01*
X92981845Y-111890526D01*
X92981845Y-111421580D01*
X92792435Y-111421580D01*
X92674099Y-111489724D01*
X92440962Y-111489724D01*
X92445854Y-111463346D01*
X92487620Y-111398133D01*
X92492622Y-111393621D01*
X92551911Y-111350182D01*
X92617313Y-111304344D01*
X92554036Y-111260194D01*
X92491650Y-111214951D01*
X92485395Y-111208420D01*
X92449880Y-111144330D01*
X92445178Y-111109438D01*
X92679961Y-111109438D01*
X92796465Y-111187107D01*
X92981845Y-111187107D01*
X92981845Y-110741608D01*
X92679961Y-110741608D01*
X92679961Y-111109438D01*
X92445178Y-111109438D01*
X92439993Y-111070969D01*
X92439993Y-110634996D01*
X92451324Y-110573188D01*
X92507700Y-110519621D01*
X92583241Y-110507135D01*
X93223279Y-110507135D01*
X93223279Y-112125000D01*
G37*
G36*
X91554856Y-111093318D02*
G01*
X91815341Y-112119870D01*
X91915359Y-112500157D01*
X92156427Y-112500157D01*
X92048349Y-112125000D01*
X92312131Y-111093318D01*
X92069965Y-111093318D01*
X91932944Y-111796737D01*
X91795924Y-111093318D01*
X91554856Y-111093318D01*
G37*
G36*
X91217435Y-111445027D02*
G01*
X91449344Y-111445027D01*
X91449344Y-111210554D01*
X91217435Y-111210554D01*
X91217435Y-111445027D01*
G37*
G36*
X91217435Y-112125000D02*
G01*
X91449344Y-112125000D01*
X91449344Y-111890526D01*
X91217435Y-111890526D01*
X91217435Y-112125000D01*
G37*
G36*
X92248384Y-114645000D02*
G01*
X92480293Y-114645000D01*
X92480293Y-113840830D01*
X92476629Y-113764901D01*
X92469073Y-113691485D01*
X92465638Y-113663876D01*
X92674099Y-114480868D01*
X92796465Y-114480868D01*
X93005659Y-113663876D01*
X92997524Y-113737018D01*
X92992054Y-113811450D01*
X92991371Y-113840830D01*
X92991371Y-114645000D01*
X93223279Y-114645000D01*
X93223279Y-113027135D01*
X92995401Y-113027135D01*
X92741877Y-113911538D01*
X92735648Y-113984078D01*
X92729420Y-113911538D01*
X92476263Y-113027135D01*
X92248384Y-113027135D01*
X92248384Y-114645000D01*
G37*
G36*
X91337969Y-114517138D02*
G01*
X91355502Y-114589934D01*
X91414621Y-114634885D01*
X91486346Y-114645000D01*
X91943935Y-114645000D01*
X92020636Y-114632513D01*
X92077877Y-114578946D01*
X92089382Y-114517138D01*
X92089382Y-114082264D01*
X91849047Y-114082264D01*
X91849047Y-114410526D01*
X91579403Y-114410526D01*
X91579403Y-113027135D01*
X91337969Y-113027135D01*
X91337969Y-114517138D01*
G37*
G36*
X91070546Y-113035126D02*
G01*
X91134196Y-113082200D01*
X91151123Y-113154996D01*
X91151123Y-114517138D01*
X91139792Y-114578946D01*
X91083416Y-114632513D01*
X91007875Y-114645000D01*
X90484340Y-114645000D01*
X90413677Y-114634885D01*
X90355434Y-114589934D01*
X90338161Y-114517138D01*
X90338161Y-114410526D01*
X90579228Y-114410526D01*
X90909689Y-114410526D01*
X90909689Y-113261608D01*
X90579228Y-113261608D01*
X90579228Y-114410526D01*
X90338161Y-114410526D01*
X90338161Y-113154996D01*
X90349724Y-113093188D01*
X90407253Y-113039621D01*
X90484340Y-113027135D01*
X91007875Y-113027135D01*
X91070546Y-113035126D01*
G37*
G36*
X89356671Y-114517138D02*
G01*
X89374074Y-114589934D01*
X89432755Y-114634885D01*
X89503949Y-114645000D01*
X90006967Y-114645000D01*
X90082509Y-114632513D01*
X90138885Y-114578946D01*
X90150216Y-114517138D01*
X90150216Y-113154996D01*
X90133289Y-113082200D01*
X90069639Y-113035126D01*
X90006967Y-113027135D01*
X89503949Y-113027135D01*
X89426283Y-113039621D01*
X89368321Y-113093188D01*
X89356671Y-113154996D01*
X89356671Y-113566423D01*
X89596639Y-113566423D01*
X89596639Y-113261608D01*
X89908782Y-113261608D01*
X89908782Y-114410526D01*
X89596639Y-114410526D01*
X89596639Y-114105711D01*
X89356671Y-114105711D01*
X89356671Y-114517138D01*
G37*
G36*
X92397861Y-117165000D02*
G01*
X92649187Y-117165000D01*
X92915167Y-116418715D01*
X92915167Y-116343956D01*
X92915167Y-116274002D01*
X92678129Y-116274002D01*
X92678129Y-115781608D01*
X92981845Y-115781608D01*
X92981845Y-117165000D01*
X93223279Y-117165000D01*
X93223279Y-115547135D01*
X92583241Y-115547135D01*
X92506541Y-115559621D01*
X92449299Y-115613188D01*
X92437794Y-115674996D01*
X92437794Y-116286824D01*
X92455013Y-116359731D01*
X92506671Y-116401130D01*
X92579978Y-116412448D01*
X92656090Y-116414672D01*
X92663475Y-116414685D01*
X92397861Y-117165000D01*
G37*
G36*
X91483049Y-117037138D02*
G01*
X91500365Y-117109934D01*
X91558755Y-117154885D01*
X91629595Y-117165000D01*
X92114661Y-117165000D01*
X92191361Y-117152513D01*
X92248603Y-117098946D01*
X92260108Y-117037138D01*
X92260108Y-116649159D01*
X92019040Y-116649159D01*
X92019040Y-116930526D01*
X91724117Y-116930526D01*
X91724117Y-116649159D01*
X92207718Y-116187906D01*
X92248596Y-116125837D01*
X92260108Y-116057847D01*
X92260108Y-115674996D01*
X92242921Y-115602200D01*
X92184970Y-115557249D01*
X92114661Y-115547135D01*
X91629595Y-115547135D01*
X91552315Y-115559442D01*
X91494641Y-115612242D01*
X91483049Y-115673164D01*
X91483049Y-116062976D01*
X91724117Y-116062976D01*
X91724117Y-115781608D01*
X92019040Y-115781608D01*
X92019040Y-116051252D01*
X91535439Y-116511039D01*
X91494561Y-116573078D01*
X91483049Y-116642930D01*
X91483049Y-117037138D01*
G37*
G36*
X90498628Y-117037138D02*
G01*
X90516031Y-117109934D01*
X90574713Y-117154885D01*
X90645907Y-117165000D01*
X91152955Y-117165000D01*
X91228496Y-117152513D01*
X91284872Y-117098946D01*
X91296203Y-117037138D01*
X91296203Y-115674996D01*
X91278887Y-115602200D01*
X91220498Y-115557249D01*
X91149658Y-115547135D01*
X90645907Y-115547135D01*
X90568240Y-115559621D01*
X90510278Y-115613188D01*
X90498628Y-115674996D01*
X90498628Y-116039528D01*
X90740795Y-116039528D01*
X90740795Y-115781608D01*
X91054769Y-115781608D01*
X91054769Y-116930526D01*
X90740795Y-116930526D01*
X90740795Y-116531922D01*
X90919947Y-116531922D01*
X90919947Y-116297449D01*
X90498628Y-116297449D01*
X90498628Y-117037138D01*
G37*
G36*
X93223279Y-119685000D02*
G01*
X92731618Y-119685000D01*
X92713943Y-119684683D01*
X92640105Y-119675432D01*
X92569007Y-119650130D01*
X92504106Y-119604033D01*
X92493858Y-119593627D01*
X92449312Y-119527852D01*
X92426170Y-119455510D01*
X92419476Y-119380184D01*
X92419476Y-118430935D01*
X92661643Y-118430935D01*
X92661643Y-119319002D01*
X92676026Y-119388360D01*
X92731255Y-119437682D01*
X92808921Y-119450526D01*
X92981845Y-119450526D01*
X92981845Y-118301608D01*
X92802693Y-118301608D01*
X92740984Y-118309691D01*
X92678310Y-118357304D01*
X92661643Y-118430935D01*
X92419476Y-118430935D01*
X92419476Y-118371950D01*
X92419807Y-118354463D01*
X92429476Y-118281617D01*
X92455923Y-118211893D01*
X92504106Y-118148834D01*
X92514870Y-118138941D01*
X92582305Y-118095937D01*
X92655707Y-118073597D01*
X92731618Y-118067135D01*
X93223279Y-118067135D01*
X93223279Y-119685000D01*
G37*
G36*
X91413073Y-119685000D02*
G01*
X91664399Y-119685000D01*
X91930380Y-118938715D01*
X91930380Y-118863956D01*
X91930380Y-118794002D01*
X91693342Y-118794002D01*
X91693342Y-118301608D01*
X91997058Y-118301608D01*
X91997058Y-119685000D01*
X92238492Y-119685000D01*
X92238492Y-118067135D01*
X91598454Y-118067135D01*
X91521753Y-118079621D01*
X91464512Y-118133188D01*
X91453007Y-118194996D01*
X91453007Y-118806824D01*
X91470226Y-118879731D01*
X91521884Y-118921130D01*
X91595191Y-118932448D01*
X91671303Y-118934672D01*
X91678688Y-118934685D01*
X91413073Y-119685000D01*
G37*
G36*
X91190713Y-118075126D02*
G01*
X91254364Y-118122200D01*
X91271290Y-118194996D01*
X91271290Y-119557138D01*
X91259959Y-119618946D01*
X91203583Y-119672513D01*
X91128042Y-119685000D01*
X90604508Y-119685000D01*
X90533845Y-119674885D01*
X90475601Y-119629934D01*
X90458328Y-119557138D01*
X90458328Y-119450526D01*
X90699396Y-119450526D01*
X91029856Y-119450526D01*
X91029856Y-118301608D01*
X90699396Y-118301608D01*
X90699396Y-119450526D01*
X90458328Y-119450526D01*
X90458328Y-118194996D01*
X90469891Y-118133188D01*
X90527421Y-118079621D01*
X90604508Y-118067135D01*
X91128042Y-118067135D01*
X91190713Y-118075126D01*
G37*
G36*
X92498611Y-122077138D02*
G01*
X92516144Y-122149934D01*
X92575263Y-122194885D01*
X92646988Y-122205000D01*
X93104577Y-122205000D01*
X93181278Y-122192513D01*
X93238519Y-122138946D01*
X93250024Y-122077138D01*
X93250024Y-121642264D01*
X93009689Y-121642264D01*
X93009689Y-121970526D01*
X92740045Y-121970526D01*
X92740045Y-120587135D01*
X92498611Y-120587135D01*
X92498611Y-122077138D01*
G37*
G36*
X92311765Y-122205000D02*
G01*
X91820104Y-122205000D01*
X91802429Y-122204683D01*
X91728591Y-122195432D01*
X91657493Y-122170130D01*
X91592592Y-122124033D01*
X91582344Y-122113627D01*
X91537797Y-122047852D01*
X91514656Y-121975510D01*
X91507962Y-121900184D01*
X91507962Y-120950935D01*
X91750129Y-120950935D01*
X91750129Y-121839002D01*
X91764511Y-121908360D01*
X91819741Y-121957682D01*
X91897407Y-121970526D01*
X92070331Y-121970526D01*
X92070331Y-120821608D01*
X91891179Y-120821608D01*
X91829469Y-120829691D01*
X91766796Y-120877304D01*
X91750129Y-120950935D01*
X91507962Y-120950935D01*
X91507962Y-120891950D01*
X91508292Y-120874463D01*
X91517962Y-120801617D01*
X91544409Y-120731893D01*
X91592592Y-120668834D01*
X91603355Y-120658941D01*
X91670791Y-120615937D01*
X91744193Y-120593597D01*
X91820104Y-120587135D01*
X92311765Y-120587135D01*
X92311765Y-122205000D01*
G37*
G36*
X90509619Y-122205000D02*
G01*
X90721011Y-122205000D01*
X91107526Y-121186873D01*
X91094787Y-121260457D01*
X91091772Y-121303743D01*
X91091772Y-122205000D01*
X91326978Y-122205000D01*
X91326978Y-120587135D01*
X91115586Y-120587135D01*
X90729071Y-121584745D01*
X90741810Y-121511161D01*
X90744825Y-121467875D01*
X90744825Y-120587135D01*
X90509619Y-120587135D01*
X90509619Y-122205000D01*
G37*
G36*
X89687864Y-122205000D02*
G01*
X90321674Y-122205000D01*
X90321674Y-120587135D01*
X90080240Y-120587135D01*
X90080240Y-121970526D01*
X89687864Y-121970526D01*
X89687864Y-122205000D01*
G37*
D11*
X154429580Y-100559642D02*
X154477200Y-100512023D01*
X154477200Y-100512023D02*
X154524819Y-100369166D01*
X154524819Y-100369166D02*
X154524819Y-100273928D01*
X154524819Y-100273928D02*
X154477200Y-100131071D01*
X154477200Y-100131071D02*
X154381961Y-100035833D01*
X154381961Y-100035833D02*
X154286723Y-99988214D01*
X154286723Y-99988214D02*
X154096247Y-99940595D01*
X154096247Y-99940595D02*
X153953390Y-99940595D01*
X153953390Y-99940595D02*
X153762914Y-99988214D01*
X153762914Y-99988214D02*
X153667676Y-100035833D01*
X153667676Y-100035833D02*
X153572438Y-100131071D01*
X153572438Y-100131071D02*
X153524819Y-100273928D01*
X153524819Y-100273928D02*
X153524819Y-100369166D01*
X153524819Y-100369166D02*
X153572438Y-100512023D01*
X153572438Y-100512023D02*
X153620057Y-100559642D01*
X153620057Y-100940595D02*
X153572438Y-100988214D01*
X153572438Y-100988214D02*
X153524819Y-101083452D01*
X153524819Y-101083452D02*
X153524819Y-101321547D01*
X153524819Y-101321547D02*
X153572438Y-101416785D01*
X153572438Y-101416785D02*
X153620057Y-101464404D01*
X153620057Y-101464404D02*
X153715295Y-101512023D01*
X153715295Y-101512023D02*
X153810533Y-101512023D01*
X153810533Y-101512023D02*
X153953390Y-101464404D01*
X153953390Y-101464404D02*
X154524819Y-100892976D01*
X154524819Y-100892976D02*
X154524819Y-101512023D01*
X153524819Y-102131071D02*
X153524819Y-102226309D01*
X153524819Y-102226309D02*
X153572438Y-102321547D01*
X153572438Y-102321547D02*
X153620057Y-102369166D01*
X153620057Y-102369166D02*
X153715295Y-102416785D01*
X153715295Y-102416785D02*
X153905771Y-102464404D01*
X153905771Y-102464404D02*
X154143866Y-102464404D01*
X154143866Y-102464404D02*
X154334342Y-102416785D01*
X154334342Y-102416785D02*
X154429580Y-102369166D01*
X154429580Y-102369166D02*
X154477200Y-102321547D01*
X154477200Y-102321547D02*
X154524819Y-102226309D01*
X154524819Y-102226309D02*
X154524819Y-102131071D01*
X154524819Y-102131071D02*
X154477200Y-102035833D01*
X154477200Y-102035833D02*
X154429580Y-101988214D01*
X154429580Y-101988214D02*
X154334342Y-101940595D01*
X154334342Y-101940595D02*
X154143866Y-101892976D01*
X154143866Y-101892976D02*
X153905771Y-101892976D01*
X153905771Y-101892976D02*
X153715295Y-101940595D01*
X153715295Y-101940595D02*
X153620057Y-101988214D01*
X153620057Y-101988214D02*
X153572438Y-102035833D01*
X153572438Y-102035833D02*
X153524819Y-102131071D01*
X169926769Y-87527632D02*
X169994113Y-87527632D01*
X169994113Y-87527632D02*
X170128800Y-87460288D01*
X170128800Y-87460288D02*
X170196143Y-87392945D01*
X170196143Y-87392945D02*
X170263487Y-87258258D01*
X170263487Y-87258258D02*
X170263487Y-87123571D01*
X170263487Y-87123571D02*
X170229815Y-87022556D01*
X170229815Y-87022556D02*
X170128800Y-86854197D01*
X170128800Y-86854197D02*
X170027785Y-86753182D01*
X170027785Y-86753182D02*
X169859426Y-86652166D01*
X169859426Y-86652166D02*
X169758411Y-86618495D01*
X169758411Y-86618495D02*
X169623724Y-86618495D01*
X169623724Y-86618495D02*
X169489037Y-86685838D01*
X169489037Y-86685838D02*
X169421693Y-86753182D01*
X169421693Y-86753182D02*
X169354350Y-86887869D01*
X169354350Y-86887869D02*
X169354350Y-86955212D01*
X169320678Y-88268410D02*
X169724739Y-87864349D01*
X169522708Y-88066380D02*
X168815602Y-87359273D01*
X168815602Y-87359273D02*
X168983960Y-87392945D01*
X168983960Y-87392945D02*
X169118647Y-87392945D01*
X169118647Y-87392945D02*
X169219663Y-87359273D01*
X168377869Y-87797006D02*
X167940136Y-88234739D01*
X167940136Y-88234739D02*
X168445212Y-88268411D01*
X168445212Y-88268411D02*
X168344197Y-88369426D01*
X168344197Y-88369426D02*
X168310525Y-88470441D01*
X168310525Y-88470441D02*
X168310525Y-88537785D01*
X168310525Y-88537785D02*
X168344197Y-88638800D01*
X168344197Y-88638800D02*
X168512556Y-88807159D01*
X168512556Y-88807159D02*
X168613571Y-88840830D01*
X168613571Y-88840830D02*
X168680914Y-88840830D01*
X168680914Y-88840830D02*
X168781930Y-88807159D01*
X168781930Y-88807159D02*
X168983960Y-88605128D01*
X168983960Y-88605128D02*
X169017632Y-88504113D01*
X169017632Y-88504113D02*
X169017632Y-88436769D01*
X192649580Y-116423333D02*
X192697200Y-116375714D01*
X192697200Y-116375714D02*
X192744819Y-116232857D01*
X192744819Y-116232857D02*
X192744819Y-116137619D01*
X192744819Y-116137619D02*
X192697200Y-115994762D01*
X192697200Y-115994762D02*
X192601961Y-115899524D01*
X192601961Y-115899524D02*
X192506723Y-115851905D01*
X192506723Y-115851905D02*
X192316247Y-115804286D01*
X192316247Y-115804286D02*
X192173390Y-115804286D01*
X192173390Y-115804286D02*
X191982914Y-115851905D01*
X191982914Y-115851905D02*
X191887676Y-115899524D01*
X191887676Y-115899524D02*
X191792438Y-115994762D01*
X191792438Y-115994762D02*
X191744819Y-116137619D01*
X191744819Y-116137619D02*
X191744819Y-116232857D01*
X191744819Y-116232857D02*
X191792438Y-116375714D01*
X191792438Y-116375714D02*
X191840057Y-116423333D01*
X191744819Y-117328095D02*
X191744819Y-116851905D01*
X191744819Y-116851905D02*
X192221009Y-116804286D01*
X192221009Y-116804286D02*
X192173390Y-116851905D01*
X192173390Y-116851905D02*
X192125771Y-116947143D01*
X192125771Y-116947143D02*
X192125771Y-117185238D01*
X192125771Y-117185238D02*
X192173390Y-117280476D01*
X192173390Y-117280476D02*
X192221009Y-117328095D01*
X192221009Y-117328095D02*
X192316247Y-117375714D01*
X192316247Y-117375714D02*
X192554342Y-117375714D01*
X192554342Y-117375714D02*
X192649580Y-117328095D01*
X192649580Y-117328095D02*
X192697200Y-117280476D01*
X192697200Y-117280476D02*
X192744819Y-117185238D01*
X192744819Y-117185238D02*
X192744819Y-116947143D01*
X192744819Y-116947143D02*
X192697200Y-116851905D01*
X192697200Y-116851905D02*
X192649580Y-116804286D01*
X163646666Y-74869580D02*
X163694285Y-74917200D01*
X163694285Y-74917200D02*
X163837142Y-74964819D01*
X163837142Y-74964819D02*
X163932380Y-74964819D01*
X163932380Y-74964819D02*
X164075237Y-74917200D01*
X164075237Y-74917200D02*
X164170475Y-74821961D01*
X164170475Y-74821961D02*
X164218094Y-74726723D01*
X164218094Y-74726723D02*
X164265713Y-74536247D01*
X164265713Y-74536247D02*
X164265713Y-74393390D01*
X164265713Y-74393390D02*
X164218094Y-74202914D01*
X164218094Y-74202914D02*
X164170475Y-74107676D01*
X164170475Y-74107676D02*
X164075237Y-74012438D01*
X164075237Y-74012438D02*
X163932380Y-73964819D01*
X163932380Y-73964819D02*
X163837142Y-73964819D01*
X163837142Y-73964819D02*
X163694285Y-74012438D01*
X163694285Y-74012438D02*
X163646666Y-74060057D01*
X162789523Y-74298152D02*
X162789523Y-74964819D01*
X163027618Y-73917200D02*
X163265713Y-74631485D01*
X163265713Y-74631485D02*
X162646666Y-74631485D01*
X149752857Y-100849580D02*
X149800476Y-100897200D01*
X149800476Y-100897200D02*
X149943333Y-100944819D01*
X149943333Y-100944819D02*
X150038571Y-100944819D01*
X150038571Y-100944819D02*
X150181428Y-100897200D01*
X150181428Y-100897200D02*
X150276666Y-100801961D01*
X150276666Y-100801961D02*
X150324285Y-100706723D01*
X150324285Y-100706723D02*
X150371904Y-100516247D01*
X150371904Y-100516247D02*
X150371904Y-100373390D01*
X150371904Y-100373390D02*
X150324285Y-100182914D01*
X150324285Y-100182914D02*
X150276666Y-100087676D01*
X150276666Y-100087676D02*
X150181428Y-99992438D01*
X150181428Y-99992438D02*
X150038571Y-99944819D01*
X150038571Y-99944819D02*
X149943333Y-99944819D01*
X149943333Y-99944819D02*
X149800476Y-99992438D01*
X149800476Y-99992438D02*
X149752857Y-100040057D01*
X148800476Y-100944819D02*
X149371904Y-100944819D01*
X149086190Y-100944819D02*
X149086190Y-99944819D01*
X149086190Y-99944819D02*
X149181428Y-100087676D01*
X149181428Y-100087676D02*
X149276666Y-100182914D01*
X149276666Y-100182914D02*
X149371904Y-100230533D01*
X147943333Y-99944819D02*
X148133809Y-99944819D01*
X148133809Y-99944819D02*
X148229047Y-99992438D01*
X148229047Y-99992438D02*
X148276666Y-100040057D01*
X148276666Y-100040057D02*
X148371904Y-100182914D01*
X148371904Y-100182914D02*
X148419523Y-100373390D01*
X148419523Y-100373390D02*
X148419523Y-100754342D01*
X148419523Y-100754342D02*
X148371904Y-100849580D01*
X148371904Y-100849580D02*
X148324285Y-100897200D01*
X148324285Y-100897200D02*
X148229047Y-100944819D01*
X148229047Y-100944819D02*
X148038571Y-100944819D01*
X148038571Y-100944819D02*
X147943333Y-100897200D01*
X147943333Y-100897200D02*
X147895714Y-100849580D01*
X147895714Y-100849580D02*
X147848095Y-100754342D01*
X147848095Y-100754342D02*
X147848095Y-100516247D01*
X147848095Y-100516247D02*
X147895714Y-100421009D01*
X147895714Y-100421009D02*
X147943333Y-100373390D01*
X147943333Y-100373390D02*
X148038571Y-100325771D01*
X148038571Y-100325771D02*
X148229047Y-100325771D01*
X148229047Y-100325771D02*
X148324285Y-100373390D01*
X148324285Y-100373390D02*
X148371904Y-100421009D01*
X148371904Y-100421009D02*
X148419523Y-100516247D01*
X160866666Y-70999580D02*
X160914285Y-71047200D01*
X160914285Y-71047200D02*
X161057142Y-71094819D01*
X161057142Y-71094819D02*
X161152380Y-71094819D01*
X161152380Y-71094819D02*
X161295237Y-71047200D01*
X161295237Y-71047200D02*
X161390475Y-70951961D01*
X161390475Y-70951961D02*
X161438094Y-70856723D01*
X161438094Y-70856723D02*
X161485713Y-70666247D01*
X161485713Y-70666247D02*
X161485713Y-70523390D01*
X161485713Y-70523390D02*
X161438094Y-70332914D01*
X161438094Y-70332914D02*
X161390475Y-70237676D01*
X161390475Y-70237676D02*
X161295237Y-70142438D01*
X161295237Y-70142438D02*
X161152380Y-70094819D01*
X161152380Y-70094819D02*
X161057142Y-70094819D01*
X161057142Y-70094819D02*
X160914285Y-70142438D01*
X160914285Y-70142438D02*
X160866666Y-70190057D01*
X160485713Y-70190057D02*
X160438094Y-70142438D01*
X160438094Y-70142438D02*
X160342856Y-70094819D01*
X160342856Y-70094819D02*
X160104761Y-70094819D01*
X160104761Y-70094819D02*
X160009523Y-70142438D01*
X160009523Y-70142438D02*
X159961904Y-70190057D01*
X159961904Y-70190057D02*
X159914285Y-70285295D01*
X159914285Y-70285295D02*
X159914285Y-70380533D01*
X159914285Y-70380533D02*
X159961904Y-70523390D01*
X159961904Y-70523390D02*
X160533332Y-71094819D01*
X160533332Y-71094819D02*
X159914285Y-71094819D01*
X190539580Y-116403333D02*
X190587200Y-116355714D01*
X190587200Y-116355714D02*
X190634819Y-116212857D01*
X190634819Y-116212857D02*
X190634819Y-116117619D01*
X190634819Y-116117619D02*
X190587200Y-115974762D01*
X190587200Y-115974762D02*
X190491961Y-115879524D01*
X190491961Y-115879524D02*
X190396723Y-115831905D01*
X190396723Y-115831905D02*
X190206247Y-115784286D01*
X190206247Y-115784286D02*
X190063390Y-115784286D01*
X190063390Y-115784286D02*
X189872914Y-115831905D01*
X189872914Y-115831905D02*
X189777676Y-115879524D01*
X189777676Y-115879524D02*
X189682438Y-115974762D01*
X189682438Y-115974762D02*
X189634819Y-116117619D01*
X189634819Y-116117619D02*
X189634819Y-116212857D01*
X189634819Y-116212857D02*
X189682438Y-116355714D01*
X189682438Y-116355714D02*
X189730057Y-116403333D01*
X189634819Y-116736667D02*
X189634819Y-117403333D01*
X189634819Y-117403333D02*
X190634819Y-116974762D01*
X159879580Y-97407142D02*
X159927200Y-97359523D01*
X159927200Y-97359523D02*
X159974819Y-97216666D01*
X159974819Y-97216666D02*
X159974819Y-97121428D01*
X159974819Y-97121428D02*
X159927200Y-96978571D01*
X159927200Y-96978571D02*
X159831961Y-96883333D01*
X159831961Y-96883333D02*
X159736723Y-96835714D01*
X159736723Y-96835714D02*
X159546247Y-96788095D01*
X159546247Y-96788095D02*
X159403390Y-96788095D01*
X159403390Y-96788095D02*
X159212914Y-96835714D01*
X159212914Y-96835714D02*
X159117676Y-96883333D01*
X159117676Y-96883333D02*
X159022438Y-96978571D01*
X159022438Y-96978571D02*
X158974819Y-97121428D01*
X158974819Y-97121428D02*
X158974819Y-97216666D01*
X158974819Y-97216666D02*
X159022438Y-97359523D01*
X159022438Y-97359523D02*
X159070057Y-97407142D01*
X159974819Y-98359523D02*
X159974819Y-97788095D01*
X159974819Y-98073809D02*
X158974819Y-98073809D01*
X158974819Y-98073809D02*
X159117676Y-97978571D01*
X159117676Y-97978571D02*
X159212914Y-97883333D01*
X159212914Y-97883333D02*
X159260533Y-97788095D01*
X159308152Y-99216666D02*
X159974819Y-99216666D01*
X158927200Y-98978571D02*
X159641485Y-98740476D01*
X159641485Y-98740476D02*
X159641485Y-99359523D01*
X156394819Y-100569642D02*
X155918628Y-100236309D01*
X156394819Y-99998214D02*
X155394819Y-99998214D01*
X155394819Y-99998214D02*
X155394819Y-100379166D01*
X155394819Y-100379166D02*
X155442438Y-100474404D01*
X155442438Y-100474404D02*
X155490057Y-100522023D01*
X155490057Y-100522023D02*
X155585295Y-100569642D01*
X155585295Y-100569642D02*
X155728152Y-100569642D01*
X155728152Y-100569642D02*
X155823390Y-100522023D01*
X155823390Y-100522023D02*
X155871009Y-100474404D01*
X155871009Y-100474404D02*
X155918628Y-100379166D01*
X155918628Y-100379166D02*
X155918628Y-99998214D01*
X155394819Y-100902976D02*
X155394819Y-101522023D01*
X155394819Y-101522023D02*
X155775771Y-101188690D01*
X155775771Y-101188690D02*
X155775771Y-101331547D01*
X155775771Y-101331547D02*
X155823390Y-101426785D01*
X155823390Y-101426785D02*
X155871009Y-101474404D01*
X155871009Y-101474404D02*
X155966247Y-101522023D01*
X155966247Y-101522023D02*
X156204342Y-101522023D01*
X156204342Y-101522023D02*
X156299580Y-101474404D01*
X156299580Y-101474404D02*
X156347200Y-101426785D01*
X156347200Y-101426785D02*
X156394819Y-101331547D01*
X156394819Y-101331547D02*
X156394819Y-101045833D01*
X156394819Y-101045833D02*
X156347200Y-100950595D01*
X156347200Y-100950595D02*
X156299580Y-100902976D01*
X155394819Y-101855357D02*
X155394819Y-102522023D01*
X155394819Y-102522023D02*
X156394819Y-102093452D01*
X194769580Y-116393333D02*
X194817200Y-116345714D01*
X194817200Y-116345714D02*
X194864819Y-116202857D01*
X194864819Y-116202857D02*
X194864819Y-116107619D01*
X194864819Y-116107619D02*
X194817200Y-115964762D01*
X194817200Y-115964762D02*
X194721961Y-115869524D01*
X194721961Y-115869524D02*
X194626723Y-115821905D01*
X194626723Y-115821905D02*
X194436247Y-115774286D01*
X194436247Y-115774286D02*
X194293390Y-115774286D01*
X194293390Y-115774286D02*
X194102914Y-115821905D01*
X194102914Y-115821905D02*
X194007676Y-115869524D01*
X194007676Y-115869524D02*
X193912438Y-115964762D01*
X193912438Y-115964762D02*
X193864819Y-116107619D01*
X193864819Y-116107619D02*
X193864819Y-116202857D01*
X193864819Y-116202857D02*
X193912438Y-116345714D01*
X193912438Y-116345714D02*
X193960057Y-116393333D01*
X193864819Y-117250476D02*
X193864819Y-117060000D01*
X193864819Y-117060000D02*
X193912438Y-116964762D01*
X193912438Y-116964762D02*
X193960057Y-116917143D01*
X193960057Y-116917143D02*
X194102914Y-116821905D01*
X194102914Y-116821905D02*
X194293390Y-116774286D01*
X194293390Y-116774286D02*
X194674342Y-116774286D01*
X194674342Y-116774286D02*
X194769580Y-116821905D01*
X194769580Y-116821905D02*
X194817200Y-116869524D01*
X194817200Y-116869524D02*
X194864819Y-116964762D01*
X194864819Y-116964762D02*
X194864819Y-117155238D01*
X194864819Y-117155238D02*
X194817200Y-117250476D01*
X194817200Y-117250476D02*
X194769580Y-117298095D01*
X194769580Y-117298095D02*
X194674342Y-117345714D01*
X194674342Y-117345714D02*
X194436247Y-117345714D01*
X194436247Y-117345714D02*
X194341009Y-117298095D01*
X194341009Y-117298095D02*
X194293390Y-117250476D01*
X194293390Y-117250476D02*
X194245771Y-117155238D01*
X194245771Y-117155238D02*
X194245771Y-116964762D01*
X194245771Y-116964762D02*
X194293390Y-116869524D01*
X194293390Y-116869524D02*
X194341009Y-116821905D01*
X194341009Y-116821905D02*
X194436247Y-116774286D01*
X144262857Y-97669580D02*
X144310476Y-97717200D01*
X144310476Y-97717200D02*
X144453333Y-97764819D01*
X144453333Y-97764819D02*
X144548571Y-97764819D01*
X144548571Y-97764819D02*
X144691428Y-97717200D01*
X144691428Y-97717200D02*
X144786666Y-97621961D01*
X144786666Y-97621961D02*
X144834285Y-97526723D01*
X144834285Y-97526723D02*
X144881904Y-97336247D01*
X144881904Y-97336247D02*
X144881904Y-97193390D01*
X144881904Y-97193390D02*
X144834285Y-97002914D01*
X144834285Y-97002914D02*
X144786666Y-96907676D01*
X144786666Y-96907676D02*
X144691428Y-96812438D01*
X144691428Y-96812438D02*
X144548571Y-96764819D01*
X144548571Y-96764819D02*
X144453333Y-96764819D01*
X144453333Y-96764819D02*
X144310476Y-96812438D01*
X144310476Y-96812438D02*
X144262857Y-96860057D01*
X143310476Y-97764819D02*
X143881904Y-97764819D01*
X143596190Y-97764819D02*
X143596190Y-96764819D01*
X143596190Y-96764819D02*
X143691428Y-96907676D01*
X143691428Y-96907676D02*
X143786666Y-97002914D01*
X143786666Y-97002914D02*
X143881904Y-97050533D01*
X142977142Y-96764819D02*
X142310476Y-96764819D01*
X142310476Y-96764819D02*
X142739047Y-97764819D01*
X138696666Y-84939580D02*
X138744285Y-84987200D01*
X138744285Y-84987200D02*
X138887142Y-85034819D01*
X138887142Y-85034819D02*
X138982380Y-85034819D01*
X138982380Y-85034819D02*
X139125237Y-84987200D01*
X139125237Y-84987200D02*
X139220475Y-84891961D01*
X139220475Y-84891961D02*
X139268094Y-84796723D01*
X139268094Y-84796723D02*
X139315713Y-84606247D01*
X139315713Y-84606247D02*
X139315713Y-84463390D01*
X139315713Y-84463390D02*
X139268094Y-84272914D01*
X139268094Y-84272914D02*
X139220475Y-84177676D01*
X139220475Y-84177676D02*
X139125237Y-84082438D01*
X139125237Y-84082438D02*
X138982380Y-84034819D01*
X138982380Y-84034819D02*
X138887142Y-84034819D01*
X138887142Y-84034819D02*
X138744285Y-84082438D01*
X138744285Y-84082438D02*
X138696666Y-84130057D01*
X137744285Y-85034819D02*
X138315713Y-85034819D01*
X138029999Y-85034819D02*
X138029999Y-84034819D01*
X138029999Y-84034819D02*
X138125237Y-84177676D01*
X138125237Y-84177676D02*
X138220475Y-84272914D01*
X138220475Y-84272914D02*
X138315713Y-84320533D01*
X171166666Y-88789580D02*
X171214285Y-88837200D01*
X171214285Y-88837200D02*
X171357142Y-88884819D01*
X171357142Y-88884819D02*
X171452380Y-88884819D01*
X171452380Y-88884819D02*
X171595237Y-88837200D01*
X171595237Y-88837200D02*
X171690475Y-88741961D01*
X171690475Y-88741961D02*
X171738094Y-88646723D01*
X171738094Y-88646723D02*
X171785713Y-88456247D01*
X171785713Y-88456247D02*
X171785713Y-88313390D01*
X171785713Y-88313390D02*
X171738094Y-88122914D01*
X171738094Y-88122914D02*
X171690475Y-88027676D01*
X171690475Y-88027676D02*
X171595237Y-87932438D01*
X171595237Y-87932438D02*
X171452380Y-87884819D01*
X171452380Y-87884819D02*
X171357142Y-87884819D01*
X171357142Y-87884819D02*
X171214285Y-87932438D01*
X171214285Y-87932438D02*
X171166666Y-87980057D01*
X170833332Y-87884819D02*
X170214285Y-87884819D01*
X170214285Y-87884819D02*
X170547618Y-88265771D01*
X170547618Y-88265771D02*
X170404761Y-88265771D01*
X170404761Y-88265771D02*
X170309523Y-88313390D01*
X170309523Y-88313390D02*
X170261904Y-88361009D01*
X170261904Y-88361009D02*
X170214285Y-88456247D01*
X170214285Y-88456247D02*
X170214285Y-88694342D01*
X170214285Y-88694342D02*
X170261904Y-88789580D01*
X170261904Y-88789580D02*
X170309523Y-88837200D01*
X170309523Y-88837200D02*
X170404761Y-88884819D01*
X170404761Y-88884819D02*
X170690475Y-88884819D01*
X170690475Y-88884819D02*
X170785713Y-88837200D01*
X170785713Y-88837200D02*
X170833332Y-88789580D01*
X138772857Y-86799580D02*
X138820476Y-86847200D01*
X138820476Y-86847200D02*
X138963333Y-86894819D01*
X138963333Y-86894819D02*
X139058571Y-86894819D01*
X139058571Y-86894819D02*
X139201428Y-86847200D01*
X139201428Y-86847200D02*
X139296666Y-86751961D01*
X139296666Y-86751961D02*
X139344285Y-86656723D01*
X139344285Y-86656723D02*
X139391904Y-86466247D01*
X139391904Y-86466247D02*
X139391904Y-86323390D01*
X139391904Y-86323390D02*
X139344285Y-86132914D01*
X139344285Y-86132914D02*
X139296666Y-86037676D01*
X139296666Y-86037676D02*
X139201428Y-85942438D01*
X139201428Y-85942438D02*
X139058571Y-85894819D01*
X139058571Y-85894819D02*
X138963333Y-85894819D01*
X138963333Y-85894819D02*
X138820476Y-85942438D01*
X138820476Y-85942438D02*
X138772857Y-85990057D01*
X137820476Y-86894819D02*
X138391904Y-86894819D01*
X138106190Y-86894819D02*
X138106190Y-85894819D01*
X138106190Y-85894819D02*
X138201428Y-86037676D01*
X138201428Y-86037676D02*
X138296666Y-86132914D01*
X138296666Y-86132914D02*
X138391904Y-86180533D01*
X137344285Y-86894819D02*
X137153809Y-86894819D01*
X137153809Y-86894819D02*
X137058571Y-86847200D01*
X137058571Y-86847200D02*
X137010952Y-86799580D01*
X137010952Y-86799580D02*
X136915714Y-86656723D01*
X136915714Y-86656723D02*
X136868095Y-86466247D01*
X136868095Y-86466247D02*
X136868095Y-86085295D01*
X136868095Y-86085295D02*
X136915714Y-85990057D01*
X136915714Y-85990057D02*
X136963333Y-85942438D01*
X136963333Y-85942438D02*
X137058571Y-85894819D01*
X137058571Y-85894819D02*
X137249047Y-85894819D01*
X137249047Y-85894819D02*
X137344285Y-85942438D01*
X137344285Y-85942438D02*
X137391904Y-85990057D01*
X137391904Y-85990057D02*
X137439523Y-86085295D01*
X137439523Y-86085295D02*
X137439523Y-86323390D01*
X137439523Y-86323390D02*
X137391904Y-86418628D01*
X137391904Y-86418628D02*
X137344285Y-86466247D01*
X137344285Y-86466247D02*
X137249047Y-86513866D01*
X137249047Y-86513866D02*
X137058571Y-86513866D01*
X137058571Y-86513866D02*
X136963333Y-86466247D01*
X136963333Y-86466247D02*
X136915714Y-86418628D01*
X136915714Y-86418628D02*
X136868095Y-86323390D01*
X144342857Y-95759580D02*
X144390476Y-95807200D01*
X144390476Y-95807200D02*
X144533333Y-95854819D01*
X144533333Y-95854819D02*
X144628571Y-95854819D01*
X144628571Y-95854819D02*
X144771428Y-95807200D01*
X144771428Y-95807200D02*
X144866666Y-95711961D01*
X144866666Y-95711961D02*
X144914285Y-95616723D01*
X144914285Y-95616723D02*
X144961904Y-95426247D01*
X144961904Y-95426247D02*
X144961904Y-95283390D01*
X144961904Y-95283390D02*
X144914285Y-95092914D01*
X144914285Y-95092914D02*
X144866666Y-94997676D01*
X144866666Y-94997676D02*
X144771428Y-94902438D01*
X144771428Y-94902438D02*
X144628571Y-94854819D01*
X144628571Y-94854819D02*
X144533333Y-94854819D01*
X144533333Y-94854819D02*
X144390476Y-94902438D01*
X144390476Y-94902438D02*
X144342857Y-94950057D01*
X143390476Y-95854819D02*
X143961904Y-95854819D01*
X143676190Y-95854819D02*
X143676190Y-94854819D01*
X143676190Y-94854819D02*
X143771428Y-94997676D01*
X143771428Y-94997676D02*
X143866666Y-95092914D01*
X143866666Y-95092914D02*
X143961904Y-95140533D01*
X142485714Y-94854819D02*
X142961904Y-94854819D01*
X142961904Y-94854819D02*
X143009523Y-95331009D01*
X143009523Y-95331009D02*
X142961904Y-95283390D01*
X142961904Y-95283390D02*
X142866666Y-95235771D01*
X142866666Y-95235771D02*
X142628571Y-95235771D01*
X142628571Y-95235771D02*
X142533333Y-95283390D01*
X142533333Y-95283390D02*
X142485714Y-95331009D01*
X142485714Y-95331009D02*
X142438095Y-95426247D01*
X142438095Y-95426247D02*
X142438095Y-95664342D01*
X142438095Y-95664342D02*
X142485714Y-95759580D01*
X142485714Y-95759580D02*
X142533333Y-95807200D01*
X142533333Y-95807200D02*
X142628571Y-95854819D01*
X142628571Y-95854819D02*
X142866666Y-95854819D01*
X142866666Y-95854819D02*
X142961904Y-95807200D01*
X142961904Y-95807200D02*
X143009523Y-95759580D01*
X161064819Y-94069642D02*
X160588628Y-93736309D01*
X161064819Y-93498214D02*
X160064819Y-93498214D01*
X160064819Y-93498214D02*
X160064819Y-93879166D01*
X160064819Y-93879166D02*
X160112438Y-93974404D01*
X160112438Y-93974404D02*
X160160057Y-94022023D01*
X160160057Y-94022023D02*
X160255295Y-94069642D01*
X160255295Y-94069642D02*
X160398152Y-94069642D01*
X160398152Y-94069642D02*
X160493390Y-94022023D01*
X160493390Y-94022023D02*
X160541009Y-93974404D01*
X160541009Y-93974404D02*
X160588628Y-93879166D01*
X160588628Y-93879166D02*
X160588628Y-93498214D01*
X160064819Y-94402976D02*
X160064819Y-95022023D01*
X160064819Y-95022023D02*
X160445771Y-94688690D01*
X160445771Y-94688690D02*
X160445771Y-94831547D01*
X160445771Y-94831547D02*
X160493390Y-94926785D01*
X160493390Y-94926785D02*
X160541009Y-94974404D01*
X160541009Y-94974404D02*
X160636247Y-95022023D01*
X160636247Y-95022023D02*
X160874342Y-95022023D01*
X160874342Y-95022023D02*
X160969580Y-94974404D01*
X160969580Y-94974404D02*
X161017200Y-94926785D01*
X161017200Y-94926785D02*
X161064819Y-94831547D01*
X161064819Y-94831547D02*
X161064819Y-94545833D01*
X161064819Y-94545833D02*
X161017200Y-94450595D01*
X161017200Y-94450595D02*
X160969580Y-94402976D01*
X160064819Y-95879166D02*
X160064819Y-95688690D01*
X160064819Y-95688690D02*
X160112438Y-95593452D01*
X160112438Y-95593452D02*
X160160057Y-95545833D01*
X160160057Y-95545833D02*
X160302914Y-95450595D01*
X160302914Y-95450595D02*
X160493390Y-95402976D01*
X160493390Y-95402976D02*
X160874342Y-95402976D01*
X160874342Y-95402976D02*
X160969580Y-95450595D01*
X160969580Y-95450595D02*
X161017200Y-95498214D01*
X161017200Y-95498214D02*
X161064819Y-95593452D01*
X161064819Y-95593452D02*
X161064819Y-95783928D01*
X161064819Y-95783928D02*
X161017200Y-95879166D01*
X161017200Y-95879166D02*
X160969580Y-95926785D01*
X160969580Y-95926785D02*
X160874342Y-95974404D01*
X160874342Y-95974404D02*
X160636247Y-95974404D01*
X160636247Y-95974404D02*
X160541009Y-95926785D01*
X160541009Y-95926785D02*
X160493390Y-95879166D01*
X160493390Y-95879166D02*
X160445771Y-95783928D01*
X160445771Y-95783928D02*
X160445771Y-95593452D01*
X160445771Y-95593452D02*
X160493390Y-95498214D01*
X160493390Y-95498214D02*
X160541009Y-95450595D01*
X160541009Y-95450595D02*
X160636247Y-95402976D01*
X148269580Y-91917142D02*
X148317200Y-91869523D01*
X148317200Y-91869523D02*
X148364819Y-91726666D01*
X148364819Y-91726666D02*
X148364819Y-91631428D01*
X148364819Y-91631428D02*
X148317200Y-91488571D01*
X148317200Y-91488571D02*
X148221961Y-91393333D01*
X148221961Y-91393333D02*
X148126723Y-91345714D01*
X148126723Y-91345714D02*
X147936247Y-91298095D01*
X147936247Y-91298095D02*
X147793390Y-91298095D01*
X147793390Y-91298095D02*
X147602914Y-91345714D01*
X147602914Y-91345714D02*
X147507676Y-91393333D01*
X147507676Y-91393333D02*
X147412438Y-91488571D01*
X147412438Y-91488571D02*
X147364819Y-91631428D01*
X147364819Y-91631428D02*
X147364819Y-91726666D01*
X147364819Y-91726666D02*
X147412438Y-91869523D01*
X147412438Y-91869523D02*
X147460057Y-91917142D01*
X148364819Y-92869523D02*
X148364819Y-92298095D01*
X148364819Y-92583809D02*
X147364819Y-92583809D01*
X147364819Y-92583809D02*
X147507676Y-92488571D01*
X147507676Y-92488571D02*
X147602914Y-92393333D01*
X147602914Y-92393333D02*
X147650533Y-92298095D01*
X147793390Y-93440952D02*
X147745771Y-93345714D01*
X147745771Y-93345714D02*
X147698152Y-93298095D01*
X147698152Y-93298095D02*
X147602914Y-93250476D01*
X147602914Y-93250476D02*
X147555295Y-93250476D01*
X147555295Y-93250476D02*
X147460057Y-93298095D01*
X147460057Y-93298095D02*
X147412438Y-93345714D01*
X147412438Y-93345714D02*
X147364819Y-93440952D01*
X147364819Y-93440952D02*
X147364819Y-93631428D01*
X147364819Y-93631428D02*
X147412438Y-93726666D01*
X147412438Y-93726666D02*
X147460057Y-93774285D01*
X147460057Y-93774285D02*
X147555295Y-93821904D01*
X147555295Y-93821904D02*
X147602914Y-93821904D01*
X147602914Y-93821904D02*
X147698152Y-93774285D01*
X147698152Y-93774285D02*
X147745771Y-93726666D01*
X147745771Y-93726666D02*
X147793390Y-93631428D01*
X147793390Y-93631428D02*
X147793390Y-93440952D01*
X147793390Y-93440952D02*
X147841009Y-93345714D01*
X147841009Y-93345714D02*
X147888628Y-93298095D01*
X147888628Y-93298095D02*
X147983866Y-93250476D01*
X147983866Y-93250476D02*
X148174342Y-93250476D01*
X148174342Y-93250476D02*
X148269580Y-93298095D01*
X148269580Y-93298095D02*
X148317200Y-93345714D01*
X148317200Y-93345714D02*
X148364819Y-93440952D01*
X148364819Y-93440952D02*
X148364819Y-93631428D01*
X148364819Y-93631428D02*
X148317200Y-93726666D01*
X148317200Y-93726666D02*
X148269580Y-93774285D01*
X148269580Y-93774285D02*
X148174342Y-93821904D01*
X148174342Y-93821904D02*
X147983866Y-93821904D01*
X147983866Y-93821904D02*
X147888628Y-93774285D01*
X147888628Y-93774285D02*
X147841009Y-93726666D01*
X147841009Y-93726666D02*
X147793390Y-93631428D01*
D12*
%TO.C,G\u002A\u002A\u002A*%
G36*
X203702172Y-69602625D02*
G01*
X203687160Y-69617637D01*
X203672149Y-69602625D01*
X203687160Y-69587613D01*
X203702172Y-69602625D01*
G37*
G36*
X192341275Y-58292506D02*
G01*
X192396032Y-58338790D01*
X192473331Y-58416089D01*
X192473331Y-59811599D01*
X192473088Y-60006596D01*
X192471756Y-60297498D01*
X192469354Y-60561298D01*
X192465990Y-60792505D01*
X192461767Y-60985629D01*
X192456793Y-61135178D01*
X192451173Y-61235663D01*
X192445012Y-61281592D01*
X192413618Y-61333266D01*
X192362447Y-61370135D01*
X192309623Y-61381230D01*
X192181398Y-61389074D01*
X192069124Y-61371659D01*
X191992952Y-61331112D01*
X191983955Y-61321553D01*
X191971597Y-61303776D01*
X191961413Y-61278218D01*
X191953191Y-61239653D01*
X191946723Y-61182854D01*
X191941798Y-61102594D01*
X191938206Y-60993647D01*
X191935738Y-60850785D01*
X191934184Y-60668784D01*
X191933334Y-60442415D01*
X191932977Y-60166452D01*
X191932905Y-59835668D01*
X191932918Y-59756471D01*
X191933360Y-59424327D01*
X191934515Y-59146677D01*
X191936508Y-58918959D01*
X191939460Y-58736607D01*
X191943494Y-58595057D01*
X191948732Y-58489743D01*
X191955298Y-58416101D01*
X191963313Y-58369567D01*
X191972900Y-58345575D01*
X191974324Y-58343690D01*
X192043198Y-58300396D01*
X192165814Y-58276185D01*
X192200361Y-58273163D01*
X192284260Y-58272863D01*
X192341275Y-58292506D01*
G37*
G36*
X204123441Y-58276651D02*
G01*
X204222814Y-58302628D01*
X204287225Y-58346275D01*
X204294769Y-58360118D01*
X204303917Y-58393172D01*
X204311452Y-58446535D01*
X204317523Y-58525177D01*
X204322284Y-58634063D01*
X204325884Y-58778160D01*
X204328476Y-58962435D01*
X204330210Y-59191855D01*
X204331239Y-59471388D01*
X204331714Y-59805999D01*
X204331785Y-60095560D01*
X204331269Y-60393014D01*
X204329710Y-60639417D01*
X204326697Y-60839685D01*
X204321819Y-60998728D01*
X204314664Y-61121462D01*
X204304824Y-61212800D01*
X204291887Y-61277655D01*
X204275442Y-61320939D01*
X204255079Y-61347568D01*
X204230387Y-61362453D01*
X204200955Y-61370509D01*
X204179385Y-61373919D01*
X204095826Y-61381951D01*
X203995959Y-61387070D01*
X203918679Y-61385943D01*
X203857449Y-61370179D01*
X203823323Y-61333086D01*
X203823245Y-61332937D01*
X203815184Y-61286450D01*
X203808288Y-61181269D01*
X203802585Y-61018726D01*
X203798102Y-60800151D01*
X203794865Y-60526875D01*
X203792903Y-60200229D01*
X203792243Y-59821545D01*
X203792271Y-59596175D01*
X203792510Y-59299753D01*
X203793168Y-59054815D01*
X203794446Y-58856194D01*
X203796548Y-58698722D01*
X203799677Y-58577234D01*
X203804034Y-58486561D01*
X203809822Y-58421538D01*
X203817245Y-58376996D01*
X203826504Y-58347770D01*
X203837803Y-58328691D01*
X203851344Y-58314593D01*
X203911458Y-58284367D01*
X204012018Y-58270009D01*
X204123441Y-58276651D01*
G37*
G36*
X208279880Y-66408562D02*
G01*
X208521324Y-66428540D01*
X208729648Y-66466170D01*
X208931405Y-66528896D01*
X209237940Y-66672899D01*
X209519090Y-66865601D01*
X209769240Y-67101395D01*
X209982774Y-67374675D01*
X210154077Y-67679838D01*
X210277533Y-68011276D01*
X210294785Y-68077523D01*
X210319784Y-68215903D01*
X210333325Y-68376259D01*
X210337397Y-68577392D01*
X210336805Y-68654808D01*
X210323008Y-68909432D01*
X210286900Y-69130956D01*
X210223147Y-69337964D01*
X210126413Y-69549039D01*
X209991363Y-69782767D01*
X209833695Y-69999217D01*
X209599784Y-70234559D01*
X209327646Y-70434706D01*
X209026180Y-70594238D01*
X208704282Y-70707738D01*
X208370848Y-70769786D01*
X208287385Y-70775806D01*
X208049468Y-70772700D01*
X207794716Y-70745784D01*
X207548210Y-70698354D01*
X207335033Y-70633706D01*
X207255806Y-70600487D01*
X207020792Y-70472790D01*
X206785955Y-70306784D01*
X206565998Y-70114853D01*
X206375625Y-69909379D01*
X206229539Y-69702742D01*
X206225834Y-69696406D01*
X206124288Y-69505680D01*
X206051365Y-69324342D01*
X206002616Y-69135278D01*
X205973590Y-68921376D01*
X205959838Y-68665523D01*
X205959174Y-68430800D01*
X205978278Y-68171698D01*
X206023834Y-67942612D01*
X206100273Y-67728371D01*
X206212029Y-67513805D01*
X206363532Y-67283744D01*
X206378416Y-67263215D01*
X206568972Y-67046517D01*
X206802863Y-66847045D01*
X207065095Y-66674770D01*
X207340677Y-66539663D01*
X207614615Y-66451695D01*
X207790967Y-66422771D01*
X208028650Y-66406538D01*
X208279880Y-66408562D01*
G37*
G36*
X203873400Y-69693140D02*
G01*
X203909365Y-69790273D01*
X203982964Y-70030688D01*
X204061304Y-70237201D01*
X204153071Y-70428910D01*
X204267948Y-70628445D01*
X204350968Y-70756524D01*
X204484494Y-70943874D01*
X204631581Y-71133782D01*
X204781204Y-71312684D01*
X204922337Y-71467014D01*
X205043956Y-71583207D01*
X205082831Y-71620241D01*
X205162062Y-71717300D01*
X205215998Y-71812199D01*
X205237209Y-71875307D01*
X205246784Y-71944593D01*
X205238192Y-72020096D01*
X205208457Y-72110601D01*
X205154604Y-72224889D01*
X205073656Y-72371745D01*
X204962637Y-72559953D01*
X204931353Y-72612876D01*
X204866770Y-72724020D01*
X204785191Y-72865817D01*
X204693932Y-73025536D01*
X204600306Y-73190450D01*
X204521439Y-73329379D01*
X204362246Y-73606157D01*
X204229170Y-73831778D01*
X204121268Y-74007796D01*
X204037600Y-74135763D01*
X203977222Y-74217230D01*
X203973968Y-74221060D01*
X203893593Y-74283638D01*
X203809757Y-74299439D01*
X203738201Y-74265296D01*
X203732703Y-74251603D01*
X203726246Y-74207553D01*
X203720675Y-74131139D01*
X203715941Y-74019286D01*
X203711997Y-73868918D01*
X203708792Y-73676958D01*
X203706279Y-73440332D01*
X203704410Y-73155963D01*
X203703134Y-72820776D01*
X203702405Y-72431695D01*
X203702172Y-71985644D01*
X203702177Y-71884898D01*
X203702330Y-71473654D01*
X203702760Y-71117551D01*
X203703549Y-70812586D01*
X203704780Y-70554756D01*
X203706536Y-70340058D01*
X203708898Y-70164488D01*
X203711950Y-70024045D01*
X203715774Y-69914723D01*
X203720451Y-69832521D01*
X203726065Y-69773434D01*
X203732699Y-69733461D01*
X203740434Y-69708597D01*
X203749352Y-69694840D01*
X203783133Y-69665891D01*
X203833152Y-69652770D01*
X203873400Y-69693140D01*
G37*
G36*
X194177905Y-58217398D02*
G01*
X194405607Y-58266886D01*
X194614336Y-58355012D01*
X194791704Y-58475999D01*
X194925320Y-58624067D01*
X194945465Y-58656199D01*
X195017332Y-58832330D01*
X195046152Y-59031699D01*
X195028824Y-59235972D01*
X195028352Y-59238250D01*
X194984272Y-59397292D01*
X194919273Y-59532472D01*
X194825894Y-59651504D01*
X194696678Y-59762105D01*
X194524163Y-59871988D01*
X194300891Y-59988870D01*
X194188546Y-60045015D01*
X194017174Y-60138126D01*
X193890898Y-60220317D01*
X193802220Y-60297558D01*
X193743639Y-60375818D01*
X193707656Y-60461065D01*
X193691397Y-60522350D01*
X193687194Y-60584970D01*
X193705064Y-60651625D01*
X193748477Y-60746584D01*
X193782353Y-60812402D01*
X193829843Y-60880230D01*
X193888965Y-60922478D01*
X193980009Y-60957642D01*
X194063766Y-60979682D01*
X194226416Y-60993761D01*
X194417669Y-60975861D01*
X194648302Y-60925464D01*
X194763108Y-60900916D01*
X194890358Y-60896670D01*
X194980650Y-60929872D01*
X195040874Y-61001861D01*
X195079310Y-61103366D01*
X195072446Y-61189169D01*
X195015136Y-61266548D01*
X194958704Y-61309814D01*
X194861548Y-61355090D01*
X194727486Y-61390849D01*
X194544962Y-61420883D01*
X194487993Y-61427604D01*
X194276168Y-61438470D01*
X194062089Y-61430467D01*
X193865914Y-61404977D01*
X193707797Y-61363387D01*
X193492545Y-61260281D01*
X193329195Y-61128493D01*
X193215831Y-60964929D01*
X193150230Y-60766382D01*
X193130171Y-60529644D01*
X193143521Y-60375273D01*
X193198561Y-60193244D01*
X193299477Y-60027090D01*
X193449809Y-59872523D01*
X193653097Y-59725253D01*
X193912879Y-59580991D01*
X194021912Y-59524408D01*
X194222883Y-59403648D01*
X194367748Y-59289631D01*
X194455446Y-59183277D01*
X194484915Y-59085504D01*
X194482336Y-59041953D01*
X194447502Y-58915767D01*
X194380562Y-58809682D01*
X194292502Y-58743242D01*
X194237455Y-58728079D01*
X194123606Y-58713340D01*
X193981241Y-58705714D01*
X193828334Y-58705551D01*
X193682855Y-58713201D01*
X193562778Y-58729016D01*
X193553417Y-58730839D01*
X193471380Y-58740721D01*
X193416295Y-58725415D01*
X193360118Y-58677839D01*
X193308426Y-58605158D01*
X193282042Y-58506527D01*
X193296247Y-58414187D01*
X193351522Y-58346669D01*
X193389775Y-58327776D01*
X193491398Y-58294481D01*
X193624494Y-58262326D01*
X193771263Y-58234905D01*
X193913908Y-58215815D01*
X194034630Y-58208653D01*
X194177905Y-58217398D01*
G37*
G36*
X204987043Y-62419911D02*
G01*
X205288511Y-62420692D01*
X205636469Y-62422073D01*
X206034305Y-62424026D01*
X206485408Y-62426523D01*
X206993167Y-62429535D01*
X207050172Y-62429880D01*
X207558465Y-62432905D01*
X208010502Y-62435624D01*
X208409713Y-62438242D01*
X208759523Y-62440960D01*
X209063363Y-62443982D01*
X209324659Y-62447511D01*
X209546839Y-62451751D01*
X209733333Y-62456904D01*
X209887567Y-62463173D01*
X210012970Y-62470761D01*
X210112970Y-62479872D01*
X210190994Y-62490709D01*
X210250472Y-62503474D01*
X210294831Y-62518371D01*
X210327498Y-62535602D01*
X210351903Y-62555372D01*
X210371472Y-62577882D01*
X210389635Y-62603337D01*
X210409819Y-62631939D01*
X210443216Y-62689308D01*
X210465829Y-62776854D01*
X210472020Y-62902151D01*
X210471907Y-62921351D01*
X210468884Y-62993027D01*
X210458338Y-63057360D01*
X210435697Y-63126177D01*
X210396390Y-63211305D01*
X210335844Y-63324570D01*
X210249487Y-63477802D01*
X210211086Y-63545210D01*
X210035117Y-63851264D01*
X209884884Y-64107209D01*
X209758729Y-64315675D01*
X209654994Y-64479290D01*
X209572021Y-64600684D01*
X209508154Y-64682487D01*
X209461734Y-64727327D01*
X209451973Y-64733964D01*
X209338192Y-64779321D01*
X209185885Y-64791073D01*
X208991355Y-64769151D01*
X208750904Y-64713480D01*
X208714712Y-64703762D01*
X208264070Y-64615931D01*
X207795529Y-64584732D01*
X207308378Y-64610158D01*
X206801908Y-64692199D01*
X206759440Y-64701758D01*
X206511115Y-64772714D01*
X206241024Y-64870986D01*
X205969509Y-64987939D01*
X205716917Y-65114936D01*
X205503591Y-65243341D01*
X205451526Y-65279498D01*
X205255445Y-65429770D01*
X205051813Y-65604251D01*
X204860656Y-65785169D01*
X204701996Y-65954753D01*
X204666480Y-65997053D01*
X204527717Y-66177686D01*
X204385857Y-66383058D01*
X204251868Y-66595965D01*
X204136715Y-66799200D01*
X204051365Y-66975556D01*
X204005006Y-67080065D01*
X203958687Y-67176309D01*
X203924683Y-67238263D01*
X203920071Y-67245318D01*
X203878312Y-67294634D01*
X203835173Y-67298252D01*
X203768900Y-67259078D01*
X203702172Y-67212341D01*
X203702172Y-64857879D01*
X203702172Y-62503418D01*
X203773132Y-62456924D01*
X203783677Y-62451513D01*
X203806650Y-62444696D01*
X203842222Y-62438769D01*
X203893783Y-62433703D01*
X203964720Y-62429468D01*
X204058423Y-62426036D01*
X204178281Y-62423379D01*
X204327682Y-62421466D01*
X204510018Y-62420270D01*
X204728675Y-62419761D01*
X204987043Y-62419911D01*
G37*
G36*
X208537291Y-58280292D02*
G01*
X208626608Y-58323163D01*
X208631034Y-58326760D01*
X208648056Y-58342377D01*
X208661715Y-58362510D01*
X208672408Y-58393327D01*
X208680530Y-58441000D01*
X208686479Y-58511699D01*
X208690650Y-58611593D01*
X208693440Y-58746853D01*
X208695246Y-58923649D01*
X208696462Y-59148152D01*
X208697487Y-59426532D01*
X208697626Y-59466524D01*
X208698683Y-59737792D01*
X208700045Y-59956568D01*
X208702129Y-60129528D01*
X208705355Y-60263350D01*
X208710139Y-60364710D01*
X208716899Y-60440283D01*
X208726053Y-60496746D01*
X208738019Y-60540775D01*
X208753214Y-60579047D01*
X208772056Y-60618238D01*
X208786154Y-60645547D01*
X208886711Y-60788681D01*
X209017163Y-60889819D01*
X209190823Y-60959822D01*
X209206913Y-60964440D01*
X209315280Y-60989453D01*
X209401092Y-60992200D01*
X209493402Y-60974047D01*
X209557108Y-60954096D01*
X209725576Y-60865217D01*
X209851657Y-60736951D01*
X209878182Y-60697299D01*
X209907857Y-60643851D01*
X209931412Y-60583906D01*
X209949498Y-60510771D01*
X209962765Y-60417753D01*
X209971862Y-60298159D01*
X209977440Y-60145297D01*
X209980148Y-59952474D01*
X209980638Y-59712995D01*
X209979558Y-59420170D01*
X209974432Y-58418771D01*
X210053072Y-58340131D01*
X210068632Y-58324986D01*
X210122852Y-58285174D01*
X210185313Y-58271180D01*
X210281357Y-58275870D01*
X210332679Y-58282431D01*
X210416030Y-58300814D01*
X210462849Y-58322095D01*
X210486415Y-58359045D01*
X210506088Y-58424214D01*
X210521284Y-58522063D01*
X210532447Y-58658056D01*
X210540020Y-58837658D01*
X210544447Y-59066335D01*
X210546170Y-59349552D01*
X210546088Y-59482881D01*
X210542160Y-59819340D01*
X210531801Y-60104162D01*
X210513769Y-60343408D01*
X210486821Y-60543145D01*
X210449714Y-60709434D01*
X210401205Y-60848340D01*
X210340051Y-60965926D01*
X210265011Y-61068257D01*
X210174841Y-61161396D01*
X210095656Y-61223748D01*
X209936210Y-61314869D01*
X209758118Y-61385903D01*
X209586806Y-61425432D01*
X209545543Y-61429930D01*
X209366649Y-61437585D01*
X209180072Y-61430143D01*
X209008081Y-61409141D01*
X208872946Y-61376117D01*
X208822218Y-61357134D01*
X208612078Y-61247957D01*
X208445144Y-61102720D01*
X208318867Y-60917896D01*
X208230696Y-60689962D01*
X208178082Y-60415391D01*
X208176446Y-60400922D01*
X208166832Y-60280683D01*
X208159022Y-60121745D01*
X208153011Y-59933080D01*
X208148794Y-59723664D01*
X208146368Y-59502471D01*
X208145726Y-59278477D01*
X208146866Y-59060656D01*
X208149782Y-58857983D01*
X208154469Y-58679433D01*
X208160923Y-58533980D01*
X208169141Y-58430599D01*
X208179116Y-58378265D01*
X208227149Y-58323661D01*
X208317825Y-58282971D01*
X208427784Y-58267705D01*
X208537291Y-58280292D01*
G37*
G36*
X192950123Y-62440853D02*
G01*
X193156750Y-62441571D01*
X193429558Y-62443380D01*
X193652037Y-62446728D01*
X193830080Y-62452386D01*
X193969582Y-62461131D01*
X194076436Y-62473736D01*
X194156537Y-62490975D01*
X194215779Y-62513623D01*
X194260056Y-62542453D01*
X194295261Y-62578241D01*
X194327290Y-62621761D01*
X194394844Y-62721079D01*
X194394844Y-68506198D01*
X194394842Y-68578452D01*
X194394715Y-69161656D01*
X194394391Y-69728450D01*
X194393881Y-70275923D01*
X194393194Y-70801168D01*
X194392341Y-71301275D01*
X194391331Y-71773334D01*
X194390174Y-72214437D01*
X194388881Y-72621675D01*
X194387462Y-72992139D01*
X194385926Y-73322918D01*
X194384284Y-73611106D01*
X194382545Y-73853791D01*
X194380720Y-74048065D01*
X194378819Y-74191020D01*
X194376852Y-74279745D01*
X194374828Y-74311332D01*
X194374739Y-74311413D01*
X194340177Y-74315972D01*
X194252488Y-74320163D01*
X194118478Y-74323866D01*
X193944950Y-74326957D01*
X193738709Y-74329315D01*
X193506558Y-74330820D01*
X193255303Y-74331348D01*
X193166953Y-74331344D01*
X192896927Y-74331168D01*
X192678647Y-74330471D01*
X192505668Y-74328900D01*
X192371547Y-74326103D01*
X192269840Y-74321726D01*
X192194102Y-74315417D01*
X192137890Y-74306822D01*
X192094759Y-74295589D01*
X192058266Y-74281364D01*
X192021966Y-74263795D01*
X192009029Y-74257694D01*
X191982102Y-74247241D01*
X191957420Y-74238945D01*
X191934886Y-74230318D01*
X191914401Y-74218872D01*
X191895868Y-74202117D01*
X191879189Y-74177567D01*
X191864266Y-74142734D01*
X191851002Y-74095128D01*
X191839299Y-74032262D01*
X191829059Y-73951647D01*
X191820184Y-73850796D01*
X191812576Y-73727221D01*
X191806139Y-73578432D01*
X191800773Y-73401943D01*
X191796382Y-73195264D01*
X191792867Y-72955909D01*
X191790131Y-72681387D01*
X191788076Y-72369213D01*
X191786604Y-72016896D01*
X191785617Y-71621950D01*
X191785019Y-71181885D01*
X191784710Y-70694215D01*
X191784594Y-70156450D01*
X191784571Y-69566103D01*
X191784546Y-68920685D01*
X191784420Y-68217708D01*
X191784354Y-67969225D01*
X191784240Y-67292484D01*
X191784252Y-66672539D01*
X191784408Y-66106976D01*
X191784725Y-65593380D01*
X191785221Y-65129338D01*
X191785912Y-64712435D01*
X191786817Y-64340258D01*
X191787953Y-64010392D01*
X191789337Y-63720423D01*
X191790986Y-63467938D01*
X191792920Y-63250522D01*
X191795153Y-63065761D01*
X191797705Y-62911241D01*
X191800592Y-62784548D01*
X191803833Y-62683268D01*
X191807444Y-62604987D01*
X191811443Y-62547291D01*
X191815847Y-62507766D01*
X191820674Y-62483997D01*
X191825941Y-62473572D01*
X191827140Y-62472670D01*
X191859792Y-62462697D01*
X191928327Y-62454729D01*
X192036770Y-62448647D01*
X192189147Y-62444336D01*
X192389481Y-62441678D01*
X192641798Y-62440556D01*
X192950123Y-62440853D01*
G37*
G36*
X191089273Y-58793127D02*
G01*
X191090871Y-58976340D01*
X191091766Y-59204080D01*
X191092157Y-59481519D01*
X191092243Y-59813833D01*
X191092245Y-59962667D01*
X191092110Y-60277177D01*
X191091425Y-60538937D01*
X191089748Y-60753090D01*
X191086638Y-60924777D01*
X191081652Y-61059140D01*
X191074349Y-61161321D01*
X191064288Y-61236461D01*
X191051025Y-61289702D01*
X191034121Y-61326186D01*
X191013132Y-61351055D01*
X190987618Y-61369450D01*
X190957137Y-61386514D01*
X190955165Y-61387537D01*
X190888552Y-61403333D01*
X190773716Y-61412684D01*
X190621502Y-61416089D01*
X190442756Y-61414050D01*
X190248322Y-61407067D01*
X190049046Y-61395642D01*
X189855772Y-61380275D01*
X189679347Y-61361467D01*
X189530614Y-61339720D01*
X189420420Y-61315534D01*
X189267621Y-61256164D01*
X189092018Y-61135727D01*
X188956466Y-60971376D01*
X188862027Y-60764497D01*
X188809760Y-60516479D01*
X188806855Y-60489714D01*
X188792741Y-60298786D01*
X188784434Y-60070898D01*
X188781940Y-59825395D01*
X188783901Y-59681651D01*
X189323545Y-59681651D01*
X189325099Y-59995060D01*
X189328922Y-60170569D01*
X189333720Y-60320268D01*
X189340328Y-60429556D01*
X189350073Y-60508825D01*
X189364283Y-60568464D01*
X189384287Y-60618867D01*
X189411411Y-60670422D01*
X189498147Y-60786666D01*
X189621577Y-60871309D01*
X189645593Y-60882633D01*
X189720142Y-60910257D01*
X189804914Y-60927138D01*
X189916488Y-60935756D01*
X190071439Y-60938590D01*
X190100772Y-60938605D01*
X190265440Y-60933851D01*
X190388846Y-60921345D01*
X190461747Y-60901955D01*
X190536806Y-60863991D01*
X190544701Y-59820952D01*
X190552597Y-58777913D01*
X190475194Y-58748484D01*
X190443541Y-58740699D01*
X190353072Y-58729828D01*
X190230158Y-58722604D01*
X190092003Y-58720293D01*
X190007562Y-58721822D01*
X189826892Y-58736995D01*
X189679296Y-58772333D01*
X189561833Y-58832726D01*
X189471561Y-58923062D01*
X189405538Y-59048233D01*
X189360822Y-59213128D01*
X189334472Y-59422637D01*
X189323545Y-59681651D01*
X188783901Y-59681651D01*
X188785265Y-59581621D01*
X188794413Y-59358922D01*
X188809391Y-59176641D01*
X188835348Y-59012864D01*
X188902057Y-58793941D01*
X189003310Y-58618866D01*
X189142576Y-58482252D01*
X189323326Y-58378712D01*
X189331305Y-58375252D01*
X189417967Y-58342660D01*
X189513773Y-58317201D01*
X189627199Y-58298014D01*
X189766726Y-58284239D01*
X189940832Y-58275016D01*
X190157995Y-58269485D01*
X190426695Y-58266785D01*
X190510207Y-58266423D01*
X190687543Y-58266658D01*
X190817117Y-58269148D01*
X190907773Y-58274610D01*
X190968356Y-58283759D01*
X191007708Y-58297310D01*
X191034674Y-58315978D01*
X191041710Y-58322804D01*
X191053794Y-58339189D01*
X191063784Y-58363887D01*
X191071878Y-58402070D01*
X191078275Y-58458912D01*
X191083174Y-58539586D01*
X191086774Y-58649267D01*
X191089009Y-58777913D01*
X191089273Y-58793127D01*
G37*
G36*
X203019443Y-58286041D02*
G01*
X203101266Y-58335200D01*
X203139215Y-58393585D01*
X203144950Y-58447788D01*
X203139471Y-58462164D01*
X203110496Y-58544683D01*
X203066600Y-58675557D01*
X203010034Y-58847891D01*
X202943050Y-59054790D01*
X202867898Y-59289360D01*
X202786830Y-59544705D01*
X202732398Y-59715948D01*
X202681727Y-59873546D01*
X202639059Y-60004408D01*
X202607714Y-60098348D01*
X202591014Y-60145178D01*
X202578068Y-60180894D01*
X202549594Y-60267514D01*
X202512425Y-60385640D01*
X202471282Y-60520474D01*
X202423684Y-60677602D01*
X202359371Y-60883209D01*
X202306039Y-61041728D01*
X202260761Y-61159811D01*
X202220611Y-61244112D01*
X202182661Y-61301282D01*
X202143988Y-61337977D01*
X202101663Y-61360847D01*
X202076126Y-61369120D01*
X201974100Y-61384740D01*
X201851452Y-61387944D01*
X201734675Y-61378912D01*
X201650264Y-61357819D01*
X201597167Y-61322586D01*
X201544857Y-61260242D01*
X201541953Y-61254161D01*
X201514396Y-61184481D01*
X201472543Y-61065853D01*
X201418845Y-60905697D01*
X201355752Y-60711433D01*
X201285717Y-60490481D01*
X201211191Y-60250261D01*
X201178874Y-60146147D01*
X201139646Y-60022869D01*
X201108203Y-59927556D01*
X201089337Y-59874965D01*
X201073033Y-59829324D01*
X201041923Y-59736073D01*
X200999461Y-59605724D01*
X200948966Y-59448467D01*
X200893756Y-59274492D01*
X200841806Y-59110006D01*
X200787827Y-58939440D01*
X200740609Y-58790583D01*
X200703913Y-58675291D01*
X200681499Y-58605417D01*
X200663111Y-58544993D01*
X200642870Y-58441458D01*
X200651754Y-58369012D01*
X200690210Y-58312612D01*
X200746517Y-58282923D01*
X200843896Y-58269998D01*
X200953783Y-58278580D01*
X201053581Y-58306603D01*
X201120693Y-58351999D01*
X201149006Y-58404095D01*
X201188917Y-58500230D01*
X201235049Y-58626591D01*
X201282095Y-58769447D01*
X201290690Y-58796951D01*
X201345005Y-58969712D01*
X201409096Y-59172259D01*
X201475674Y-59381597D01*
X201537445Y-59574729D01*
X201559500Y-59643628D01*
X201614007Y-59815455D01*
X201664509Y-59976665D01*
X201706172Y-60111755D01*
X201734157Y-60205225D01*
X201743012Y-60235551D01*
X201793315Y-60397698D01*
X201838780Y-60527708D01*
X201876166Y-60616874D01*
X201902229Y-60656492D01*
X201914453Y-60648517D01*
X201936933Y-60597267D01*
X201960090Y-60512899D01*
X201973412Y-60455614D01*
X201999378Y-60353399D01*
X202020714Y-60280284D01*
X202036432Y-60231129D01*
X202065670Y-60134615D01*
X202097654Y-60025083D01*
X202112281Y-59975055D01*
X202151481Y-59845640D01*
X202198533Y-59694410D01*
X202246219Y-59544705D01*
X202273504Y-59458774D01*
X202314158Y-59325184D01*
X202346314Y-59212752D01*
X202364736Y-59139386D01*
X202382646Y-59061151D01*
X202424370Y-58911989D01*
X202475478Y-58756353D01*
X202531036Y-58607152D01*
X202586111Y-58477295D01*
X202635771Y-58379691D01*
X202675083Y-58327248D01*
X202689305Y-58317038D01*
X202790390Y-58276530D01*
X202908127Y-58266341D01*
X203019443Y-58286041D01*
G37*
G36*
X199018484Y-58276353D02*
G01*
X199055859Y-58277118D01*
X199267934Y-58283705D01*
X199432423Y-58295306D01*
X199560118Y-58315064D01*
X199661809Y-58346120D01*
X199748290Y-58391617D01*
X199830351Y-58454698D01*
X199918785Y-58538505D01*
X199946303Y-58566765D01*
X199996785Y-58625882D01*
X200037093Y-58689235D01*
X200068357Y-58763801D01*
X200091709Y-58856553D01*
X200108279Y-58974468D01*
X200119198Y-59124519D01*
X200125597Y-59313682D01*
X200128607Y-59548932D01*
X200129359Y-59837244D01*
X200129321Y-59915727D01*
X200128190Y-60182995D01*
X200124690Y-60399403D01*
X200117754Y-60572239D01*
X200106317Y-60708792D01*
X200089312Y-60816351D01*
X200065674Y-60902204D01*
X200034335Y-60973640D01*
X199994230Y-61037948D01*
X199944293Y-61102416D01*
X199912342Y-61138484D01*
X199776298Y-61247366D01*
X199601267Y-61326152D01*
X199378768Y-61378993D01*
X199352911Y-61382982D01*
X199214146Y-61397628D01*
X199053282Y-61406265D01*
X198883977Y-61409077D01*
X198719887Y-61406248D01*
X198574672Y-61397960D01*
X198461989Y-61384400D01*
X198395494Y-61365749D01*
X198358222Y-61337802D01*
X198334187Y-61284845D01*
X198327941Y-61192975D01*
X198327986Y-61157133D01*
X198331115Y-61076647D01*
X198345112Y-61019103D01*
X198378172Y-60980652D01*
X198438493Y-60957446D01*
X198534270Y-60945635D01*
X198673701Y-60941371D01*
X198864982Y-60940805D01*
X198935151Y-60940753D01*
X199097363Y-60939663D01*
X199214045Y-60936189D01*
X199295924Y-60929071D01*
X199353726Y-60917049D01*
X199398178Y-60898862D01*
X199440006Y-60873251D01*
X199454790Y-60862868D01*
X199513157Y-60807850D01*
X199552344Y-60736556D01*
X199575119Y-60638182D01*
X199584250Y-60501922D01*
X199582505Y-60316970D01*
X199573922Y-60025083D01*
X199075038Y-60016870D01*
X198984448Y-60015292D01*
X198823036Y-60011466D01*
X198707893Y-60006203D01*
X198629527Y-59998303D01*
X198578446Y-59986568D01*
X198545160Y-59969800D01*
X198520175Y-59946799D01*
X198513501Y-59938818D01*
X198476605Y-59856779D01*
X198466472Y-59756860D01*
X198482757Y-59663105D01*
X198525120Y-59599558D01*
X198541569Y-59590814D01*
X198601426Y-59576454D01*
X198701417Y-59566820D01*
X198848153Y-59561409D01*
X199048242Y-59559717D01*
X199075327Y-59559690D01*
X199275652Y-59557216D01*
X199419792Y-59550551D01*
X199511095Y-59539454D01*
X199552905Y-59523689D01*
X199571092Y-59479228D01*
X199584222Y-59383817D01*
X199588933Y-59250507D01*
X199583640Y-59117793D01*
X199553506Y-58951456D01*
X199496334Y-58837199D01*
X199411693Y-58773870D01*
X199393694Y-58768835D01*
X199314813Y-58756390D01*
X199194292Y-58743807D01*
X199044962Y-58732313D01*
X198879650Y-58723128D01*
X198859073Y-58722194D01*
X198668297Y-58712143D01*
X198529060Y-58699732D01*
X198433592Y-58681531D01*
X198374123Y-58654110D01*
X198342882Y-58614037D01*
X198332098Y-58557881D01*
X198334001Y-58482212D01*
X198338694Y-58431049D01*
X198352727Y-58372414D01*
X198382028Y-58329693D01*
X198434053Y-58300647D01*
X198516257Y-58283031D01*
X198636094Y-58274605D01*
X198801018Y-58273126D01*
X199018484Y-58276353D01*
G37*
G36*
X207242553Y-58285924D02*
G01*
X207312515Y-58327974D01*
X207395080Y-58393153D01*
X207392970Y-59809591D01*
X207392157Y-60081854D01*
X207390494Y-60353321D01*
X207388103Y-60601733D01*
X207385087Y-60820925D01*
X207381547Y-61004731D01*
X207377583Y-61146987D01*
X207373298Y-61241526D01*
X207368792Y-61282184D01*
X207328112Y-61331748D01*
X207258515Y-61374394D01*
X207184659Y-61391513D01*
X207076846Y-61391388D01*
X206974791Y-61370849D01*
X206904781Y-61332976D01*
X206900123Y-61325009D01*
X206890272Y-61278253D01*
X206882505Y-61189839D01*
X206876692Y-61056092D01*
X206872702Y-60873339D01*
X206870403Y-60637903D01*
X206869666Y-60346112D01*
X206869448Y-60223943D01*
X206867843Y-59999145D01*
X206864846Y-59798368D01*
X206860654Y-59628818D01*
X206855469Y-59497699D01*
X206849490Y-59412217D01*
X206842915Y-59379575D01*
X206818624Y-59383589D01*
X206782868Y-59424611D01*
X206768400Y-59449716D01*
X206722320Y-59525715D01*
X206667007Y-59613764D01*
X206637552Y-59661205D01*
X206599357Y-59728503D01*
X206584384Y-59763882D01*
X206579083Y-59778191D01*
X206549097Y-59835986D01*
X206498559Y-59925469D01*
X206434266Y-60034397D01*
X206394120Y-60101491D01*
X206337533Y-60197465D01*
X206298656Y-60265267D01*
X206284205Y-60293313D01*
X206278985Y-60304323D01*
X206248227Y-60360007D01*
X206193410Y-60456220D01*
X206118592Y-60585941D01*
X206027830Y-60742148D01*
X205925181Y-60917820D01*
X205814700Y-61105935D01*
X205742794Y-61223282D01*
X205684512Y-61298681D01*
X205625419Y-61342798D01*
X205550967Y-61366487D01*
X205446608Y-61380605D01*
X205365979Y-61387919D01*
X205289520Y-61388464D01*
X205244331Y-61375038D01*
X205213924Y-61345127D01*
X205209523Y-61337232D01*
X205200617Y-61305152D01*
X205193219Y-61249811D01*
X205187206Y-61166611D01*
X205182455Y-61050954D01*
X205178843Y-60898242D01*
X205176247Y-60703877D01*
X205174545Y-60463261D01*
X205173614Y-60171796D01*
X205173331Y-59824884D01*
X205173331Y-58360156D01*
X205248978Y-58310590D01*
X205337651Y-58276362D01*
X205459127Y-58276184D01*
X205481867Y-58278633D01*
X205539004Y-58285280D01*
X205584220Y-58296110D01*
X205618905Y-58317330D01*
X205644452Y-58355148D01*
X205662252Y-58415769D01*
X205673695Y-58505401D01*
X205680173Y-58630250D01*
X205683078Y-58796523D01*
X205683801Y-59010427D01*
X205683733Y-59278169D01*
X205683752Y-59316331D01*
X205684884Y-59559405D01*
X205687631Y-59771172D01*
X205691820Y-59945882D01*
X205697277Y-60077791D01*
X205703828Y-60161150D01*
X205711301Y-60190214D01*
X205780732Y-60172936D01*
X205845764Y-60111661D01*
X205909517Y-59998522D01*
X205960192Y-59894291D01*
X206046476Y-59731883D01*
X206156966Y-59538310D01*
X206296715Y-59304516D01*
X206299991Y-59299121D01*
X206366786Y-59188228D01*
X206452596Y-59044623D01*
X206546714Y-58886271D01*
X206638432Y-58731136D01*
X206662084Y-58691247D01*
X206741962Y-58560050D01*
X206812813Y-58448767D01*
X206867680Y-58368117D01*
X206899603Y-58328820D01*
X206918499Y-58317322D01*
X206993171Y-58292378D01*
X207088334Y-58276256D01*
X207162178Y-58272475D01*
X207242553Y-58285924D01*
G37*
G36*
X185040303Y-59804731D02*
G01*
X185039271Y-60083796D01*
X185038122Y-60353862D01*
X185036923Y-60600193D01*
X185035709Y-60816736D01*
X185034518Y-60997441D01*
X185033386Y-61136254D01*
X185032351Y-61227125D01*
X185031448Y-61264000D01*
X185029533Y-61270902D01*
X184994286Y-61313902D01*
X184929891Y-61362291D01*
X184915713Y-61370818D01*
X184874741Y-61390974D01*
X184826678Y-61404366D01*
X184760945Y-61411802D01*
X184666963Y-61414091D01*
X184534153Y-61412041D01*
X184351936Y-61406462D01*
X184114449Y-61397808D01*
X183911361Y-61388424D01*
X183750626Y-61377984D01*
X183623124Y-61365590D01*
X183519733Y-61350343D01*
X183431330Y-61331346D01*
X183348795Y-61307700D01*
X183266105Y-61275808D01*
X183086641Y-61164436D01*
X182937584Y-61011404D01*
X182831949Y-60828772D01*
X182818967Y-60796643D01*
X182800331Y-60744776D01*
X182786156Y-60690840D01*
X182775834Y-60626553D01*
X182768755Y-60543631D01*
X182764310Y-60433793D01*
X182761889Y-60288756D01*
X182760883Y-60100237D01*
X182760683Y-59859953D01*
X182760878Y-59726647D01*
X183289319Y-59726647D01*
X183291948Y-60041279D01*
X183294098Y-60122368D01*
X183299606Y-60288207D01*
X183306506Y-60409536D01*
X183316322Y-60497456D01*
X183330578Y-60563068D01*
X183350798Y-60617474D01*
X183378506Y-60671776D01*
X183452342Y-60775380D01*
X183571891Y-60862999D01*
X183611633Y-60879718D01*
X183706563Y-60904865D01*
X183833623Y-60920713D01*
X184006664Y-60929377D01*
X184168039Y-60933537D01*
X184297001Y-60931890D01*
X184383585Y-60918059D01*
X184437053Y-60886215D01*
X184466666Y-60830529D01*
X184481684Y-60745173D01*
X184491369Y-60624317D01*
X184494469Y-60577536D01*
X184502403Y-60415248D01*
X184508362Y-60226265D01*
X184512394Y-60019260D01*
X184514548Y-59802904D01*
X184514870Y-59585870D01*
X184513409Y-59376831D01*
X184510213Y-59184458D01*
X184505330Y-59017425D01*
X184498808Y-58884403D01*
X184490695Y-58794065D01*
X184481038Y-58755083D01*
X184471991Y-58748922D01*
X184402693Y-58732331D01*
X184273752Y-58722375D01*
X184085198Y-58719055D01*
X183872955Y-58725353D01*
X183705913Y-58746638D01*
X183578709Y-58785888D01*
X183481767Y-58846076D01*
X183405510Y-58930177D01*
X183392419Y-58951204D01*
X183350281Y-59065959D01*
X183318825Y-59235665D01*
X183298391Y-59457002D01*
X183289319Y-59726647D01*
X182760878Y-59726647D01*
X182760936Y-59686998D01*
X182762859Y-59455192D01*
X182767586Y-59270154D01*
X182776186Y-59123730D01*
X182789727Y-59007767D01*
X182809280Y-58914110D01*
X182835914Y-58834605D01*
X182870698Y-58761098D01*
X182914700Y-58685435D01*
X183016149Y-58556933D01*
X183180211Y-58426782D01*
X183374242Y-58337293D01*
X183426442Y-58322357D01*
X183495954Y-58308307D01*
X183581194Y-58298018D01*
X183691024Y-58290952D01*
X183834306Y-58286571D01*
X184019902Y-58284337D01*
X184256674Y-58283712D01*
X184348888Y-58283762D01*
X184556535Y-58284529D01*
X184714193Y-58286604D01*
X184829175Y-58290472D01*
X184908795Y-58296617D01*
X184960366Y-58305526D01*
X184991201Y-58317683D01*
X185008614Y-58333572D01*
X185013097Y-58343043D01*
X185021309Y-58384498D01*
X185027977Y-58458440D01*
X185033185Y-58568804D01*
X185037019Y-58719527D01*
X185039563Y-58914545D01*
X185040902Y-59157794D01*
X185041120Y-59453211D01*
X185040812Y-59585870D01*
X185040303Y-59804731D01*
G37*
G36*
X187980804Y-60054324D02*
G01*
X188021768Y-60213633D01*
X188054779Y-60343812D01*
X188076132Y-60430403D01*
X188084658Y-60465279D01*
X188115891Y-60586284D01*
X188154979Y-60731466D01*
X188195451Y-60876628D01*
X188230691Y-61011718D01*
X188257159Y-61159822D01*
X188256402Y-61259188D01*
X188255286Y-61265053D01*
X188239324Y-61321995D01*
X188208970Y-61356650D01*
X188149163Y-61378961D01*
X188044844Y-61398871D01*
X188011714Y-61402110D01*
X187907192Y-61386866D01*
X187817560Y-61340911D01*
X187764884Y-61274080D01*
X187694171Y-61044096D01*
X187629883Y-60760663D01*
X187591837Y-60565509D01*
X187067749Y-60556957D01*
X186928511Y-60555298D01*
X186765127Y-60555008D01*
X186627790Y-60556617D01*
X186527827Y-60559971D01*
X186476566Y-60564920D01*
X186433598Y-60587932D01*
X186394682Y-60648531D01*
X186383824Y-60697455D01*
X186334987Y-60908344D01*
X186292327Y-61077037D01*
X186257333Y-61197901D01*
X186231497Y-61265303D01*
X186226325Y-61274447D01*
X186146131Y-61355137D01*
X186033484Y-61397556D01*
X185903315Y-61398771D01*
X185770553Y-61355850D01*
X185751774Y-61341988D01*
X185728986Y-61296577D01*
X185723678Y-61221658D01*
X185736629Y-61111909D01*
X185768617Y-60962010D01*
X185820421Y-60766638D01*
X185892820Y-60520474D01*
X185922763Y-60419312D01*
X185951285Y-60317764D01*
X185968474Y-60250261D01*
X185976102Y-60217794D01*
X185998191Y-60129219D01*
X186028889Y-60009462D01*
X186031125Y-60000898D01*
X186572829Y-60000898D01*
X186581406Y-60056025D01*
X186592612Y-60067426D01*
X186635605Y-60083323D01*
X186715237Y-60095249D01*
X186839308Y-60104193D01*
X187015618Y-60111147D01*
X187062566Y-60112575D01*
X187212766Y-60116528D01*
X187315000Y-60116930D01*
X187378874Y-60112599D01*
X187413994Y-60102354D01*
X187429966Y-60085014D01*
X187436394Y-60059397D01*
X187436491Y-59991587D01*
X187420818Y-59904989D01*
X187414113Y-59880859D01*
X187391460Y-59796036D01*
X187358944Y-59671987D01*
X187319847Y-59521262D01*
X187277450Y-59356417D01*
X187225770Y-59160492D01*
X187172246Y-58976381D01*
X187125621Y-58842769D01*
X187083595Y-58755021D01*
X187043869Y-58708502D01*
X187004145Y-58698575D01*
X186962123Y-58720606D01*
X186933908Y-58748917D01*
X186906261Y-58789650D01*
X186877795Y-58848225D01*
X186846657Y-58930443D01*
X186810998Y-59042104D01*
X186768968Y-59189009D01*
X186718715Y-59376958D01*
X186658390Y-59611752D01*
X186586142Y-59899192D01*
X186581787Y-59918496D01*
X186572829Y-60000898D01*
X186031125Y-60000898D01*
X186064009Y-59874965D01*
X186085257Y-59794081D01*
X186121077Y-59656690D01*
X186151349Y-59539338D01*
X186171156Y-59461026D01*
X186184298Y-59410402D01*
X186213472Y-59303405D01*
X186251019Y-59169274D01*
X186292034Y-59025683D01*
X186323312Y-58916529D01*
X186358787Y-58790642D01*
X186385791Y-58692403D01*
X186400154Y-58636810D01*
X186415802Y-58599187D01*
X186464254Y-58522517D01*
X186530614Y-58438724D01*
X186645717Y-58335417D01*
X186811180Y-58252097D01*
X186990771Y-58220396D01*
X187173131Y-58241987D01*
X187346899Y-58318540D01*
X187378207Y-58339645D01*
X187481300Y-58437215D01*
X187561501Y-58569307D01*
X187627009Y-58748508D01*
X187646919Y-58815287D01*
X187680124Y-58923545D01*
X187706000Y-59004280D01*
X187734064Y-59097462D01*
X187760313Y-59199433D01*
X187768313Y-59232732D01*
X187791857Y-59326546D01*
X187825566Y-59458208D01*
X187866220Y-59615172D01*
X187910596Y-59784894D01*
X187935597Y-59880346D01*
X187964502Y-59991587D01*
X187980804Y-60054324D01*
G37*
G36*
X197612635Y-59101078D02*
G01*
X197614801Y-59328283D01*
X197616131Y-59571971D01*
X197616631Y-59824492D01*
X197616304Y-60078191D01*
X197615155Y-60325416D01*
X197613189Y-60558515D01*
X197610412Y-60769835D01*
X197606826Y-60951724D01*
X197602438Y-61096528D01*
X197597252Y-61196596D01*
X197591273Y-61244274D01*
X197556030Y-61309473D01*
X197470945Y-61377170D01*
X197469943Y-61377610D01*
X197396042Y-61401199D01*
X197342211Y-61403719D01*
X197319776Y-61398285D01*
X197250372Y-61391159D01*
X197207705Y-61382651D01*
X197140239Y-61348606D01*
X197125438Y-61335860D01*
X197108202Y-61309669D01*
X197095392Y-61266849D01*
X197085935Y-61198719D01*
X197078757Y-61096595D01*
X197072786Y-60951796D01*
X197066948Y-60755639D01*
X197064603Y-60670113D01*
X197059436Y-60498150D01*
X197054129Y-60374629D01*
X197047425Y-60291309D01*
X197038070Y-60239951D01*
X197024806Y-60212316D01*
X197006379Y-60200165D01*
X196981532Y-60195258D01*
X196909480Y-60198354D01*
X196823091Y-60221756D01*
X196817910Y-60223991D01*
X196785860Y-60243030D01*
X196753020Y-60274718D01*
X196716025Y-60325090D01*
X196671509Y-60400180D01*
X196616109Y-60506022D01*
X196546457Y-60648651D01*
X196459190Y-60834102D01*
X196350941Y-61068408D01*
X196340219Y-61091564D01*
X196270832Y-61227742D01*
X196206667Y-61317075D01*
X196136033Y-61368578D01*
X196047243Y-61391268D01*
X195928608Y-61394159D01*
X195915967Y-61393709D01*
X195808247Y-61379190D01*
X195740016Y-61342870D01*
X195710409Y-61279376D01*
X195718564Y-61183332D01*
X195763617Y-61049367D01*
X195844704Y-60872106D01*
X195889579Y-60781031D01*
X195966437Y-60625298D01*
X196039087Y-60478354D01*
X196096388Y-60362750D01*
X196197117Y-60159991D01*
X196034575Y-60056014D01*
X195936256Y-59986843D01*
X195775299Y-59830624D01*
X195664791Y-59648949D01*
X195601514Y-59435616D01*
X195586039Y-59233830D01*
X196156796Y-59233830D01*
X196156956Y-59253907D01*
X196160880Y-59372019D01*
X196173046Y-59452303D01*
X196198250Y-59514259D01*
X196241290Y-59577387D01*
X196260889Y-59601194D01*
X196340032Y-59675901D01*
X196417891Y-59724983D01*
X196468299Y-59740338D01*
X196565770Y-59759265D01*
X196683972Y-59775406D01*
X196806922Y-59787289D01*
X196918637Y-59793442D01*
X197003134Y-59792395D01*
X197044430Y-59782674D01*
X197050025Y-59761149D01*
X197056762Y-59687272D01*
X197062124Y-59571440D01*
X197065668Y-59424058D01*
X197066948Y-59255533D01*
X197066996Y-59082661D01*
X197064314Y-58930484D01*
X197053952Y-58823430D01*
X197030941Y-58753485D01*
X196990316Y-58712631D01*
X196927108Y-58692852D01*
X196836351Y-58686133D01*
X196713076Y-58684456D01*
X196677936Y-58684273D01*
X196513599Y-58694794D01*
X196391670Y-58728751D01*
X196299317Y-58791490D01*
X196223707Y-58888357D01*
X196197483Y-58935445D01*
X196171597Y-59008694D01*
X196159335Y-59101445D01*
X196156796Y-59233830D01*
X195586039Y-59233830D01*
X195582250Y-59184422D01*
X195588358Y-59053323D01*
X195625133Y-58864875D01*
X195701112Y-58700044D01*
X195823185Y-58540412D01*
X195979072Y-58406263D01*
X196183242Y-58299253D01*
X196417380Y-58231996D01*
X196670612Y-58208749D01*
X196757851Y-58212571D01*
X196905491Y-58228298D01*
X197068851Y-58253118D01*
X197229027Y-58283695D01*
X197367114Y-58316695D01*
X197464209Y-58348781D01*
X197502091Y-58366911D01*
X197565112Y-58417852D01*
X197592970Y-58490683D01*
X197595518Y-58510155D01*
X197601074Y-58594896D01*
X197605776Y-58726732D01*
X197609628Y-58898011D01*
X197612362Y-59082661D01*
X197612635Y-59101078D01*
G37*
G36*
X197639884Y-62442489D02*
G01*
X197932751Y-62443503D01*
X198217595Y-62445292D01*
X198487908Y-62447857D01*
X198737183Y-62451196D01*
X198958914Y-62455308D01*
X199146595Y-62460191D01*
X199293719Y-62465844D01*
X199393780Y-62472266D01*
X199688105Y-62503136D01*
X199994930Y-62547300D01*
X200264592Y-62602269D01*
X200509428Y-62671089D01*
X200741772Y-62756807D01*
X200973958Y-62862468D01*
X201116893Y-62936993D01*
X201475033Y-63165113D01*
X201785804Y-63429656D01*
X202050075Y-63731713D01*
X202268714Y-64072379D01*
X202442590Y-64452744D01*
X202572571Y-64873901D01*
X202584114Y-64924874D01*
X202601037Y-65017878D01*
X202615977Y-65127437D01*
X202629045Y-65257176D01*
X202640349Y-65410719D01*
X202649999Y-65591690D01*
X202658104Y-65803712D01*
X202664773Y-66050409D01*
X202670116Y-66335407D01*
X202674242Y-66662327D01*
X202677261Y-67034796D01*
X202679281Y-67456436D01*
X202680411Y-67930871D01*
X202680762Y-68461727D01*
X202680760Y-68522540D01*
X202680554Y-69030091D01*
X202679814Y-69482120D01*
X202678271Y-69882692D01*
X202675652Y-70235874D01*
X202671687Y-70545732D01*
X202666103Y-70816331D01*
X202658629Y-71051738D01*
X202648994Y-71256019D01*
X202636926Y-71433241D01*
X202622155Y-71587468D01*
X202604408Y-71722769D01*
X202583414Y-71843208D01*
X202558902Y-71952852D01*
X202530601Y-72055767D01*
X202498239Y-72156019D01*
X202461544Y-72257675D01*
X202420246Y-72364800D01*
X202247489Y-72726842D01*
X202024140Y-73061874D01*
X201756480Y-73359959D01*
X201448734Y-73616398D01*
X201105127Y-73826495D01*
X201100668Y-73828788D01*
X200803502Y-73969163D01*
X200510550Y-74080477D01*
X200206000Y-74167246D01*
X199874041Y-74233984D01*
X199498863Y-74285207D01*
X199470197Y-74288053D01*
X199348821Y-74296237D01*
X199182108Y-74303579D01*
X198976644Y-74310058D01*
X198739016Y-74315653D01*
X198475809Y-74320340D01*
X198193609Y-74324098D01*
X197899001Y-74326905D01*
X197598571Y-74328738D01*
X197298906Y-74329577D01*
X197006589Y-74329399D01*
X196728209Y-74328181D01*
X196470349Y-74325903D01*
X196239596Y-74322541D01*
X196042536Y-74318075D01*
X195885754Y-74312482D01*
X195775836Y-74305739D01*
X195719367Y-74297826D01*
X195709480Y-74294501D01*
X195615261Y-74243122D01*
X195535742Y-74171457D01*
X195460683Y-74078612D01*
X195460683Y-73101611D01*
X195460683Y-72124611D01*
X197066948Y-72129619D01*
X197163343Y-72129871D01*
X197479155Y-72130030D01*
X197784666Y-72129213D01*
X198072771Y-72127499D01*
X198336363Y-72124966D01*
X198568336Y-72121693D01*
X198761583Y-72117758D01*
X198908997Y-72113240D01*
X199003472Y-72108217D01*
X199046725Y-72104516D01*
X199295504Y-72070680D01*
X199495158Y-72017211D01*
X199653382Y-71940537D01*
X199777871Y-71837089D01*
X199876321Y-71703298D01*
X199877063Y-71702029D01*
X199917319Y-71627465D01*
X199950216Y-71550289D01*
X199976672Y-71463322D01*
X199997608Y-71359385D01*
X200013943Y-71231297D01*
X200026595Y-71071881D01*
X200036484Y-70873955D01*
X200044529Y-70630341D01*
X200051649Y-70333860D01*
X200055313Y-70158286D01*
X200059477Y-69932425D01*
X200061641Y-69755805D01*
X200061600Y-69621879D01*
X200059147Y-69524101D01*
X200054078Y-69455926D01*
X200046186Y-69410807D01*
X200035264Y-69382199D01*
X200021107Y-69363555D01*
X200011715Y-69356038D01*
X199991930Y-69347039D01*
X199960165Y-69339448D01*
X199912051Y-69333171D01*
X199843217Y-69328113D01*
X199749295Y-69324179D01*
X199625914Y-69321274D01*
X199468706Y-69319304D01*
X199273299Y-69318173D01*
X199035325Y-69317787D01*
X198750413Y-69318050D01*
X198414195Y-69318868D01*
X198022301Y-69320146D01*
X197865652Y-69320646D01*
X197437863Y-69321414D01*
X197068938Y-69321086D01*
X196757997Y-69319653D01*
X196504161Y-69317104D01*
X196306550Y-69313427D01*
X196164286Y-69308611D01*
X196076489Y-69302646D01*
X196042279Y-69295521D01*
X196041357Y-69294290D01*
X196032950Y-69250901D01*
X196025886Y-69156852D01*
X196020158Y-69020659D01*
X196015762Y-68850835D01*
X196012690Y-68655895D01*
X196010938Y-68444354D01*
X196010499Y-68224726D01*
X196011368Y-68005527D01*
X196013539Y-67795269D01*
X196017006Y-67602470D01*
X196021764Y-67435642D01*
X196027806Y-67303300D01*
X196035127Y-67213960D01*
X196043721Y-67176135D01*
X196048574Y-67173848D01*
X196100042Y-67167064D01*
X196206539Y-67161387D01*
X196368783Y-67156807D01*
X196587487Y-67153315D01*
X196863367Y-67150902D01*
X197197139Y-67149558D01*
X197589519Y-67149273D01*
X198041221Y-67150039D01*
X198267864Y-67150633D01*
X198627985Y-67151458D01*
X198934842Y-67151888D01*
X199192779Y-67151809D01*
X199406145Y-67151109D01*
X199579286Y-67149675D01*
X199716547Y-67147395D01*
X199822277Y-67144156D01*
X199900821Y-67139845D01*
X199956526Y-67134348D01*
X199993739Y-67127555D01*
X200016806Y-67119352D01*
X200030074Y-67109625D01*
X200037890Y-67098263D01*
X200038316Y-67097423D01*
X200048155Y-67043802D01*
X200054438Y-66932805D01*
X200057126Y-66766907D01*
X200056177Y-66548586D01*
X200051549Y-66280319D01*
X200047293Y-66103052D01*
X200040654Y-65888463D01*
X200032926Y-65719257D01*
X200023435Y-65586722D01*
X200011512Y-65482148D01*
X199996485Y-65396825D01*
X199977681Y-65322040D01*
X199950238Y-65238929D01*
X199852721Y-65043548D01*
X199723577Y-64889524D01*
X199568609Y-64784486D01*
X199520969Y-64762309D01*
X199458966Y-64735192D01*
X199397505Y-64712180D01*
X199331537Y-64692937D01*
X199256014Y-64677123D01*
X199165885Y-64664400D01*
X199056102Y-64654428D01*
X198921616Y-64646871D01*
X198757378Y-64641388D01*
X198558337Y-64637642D01*
X198319446Y-64635294D01*
X198035656Y-64634006D01*
X197701916Y-64633438D01*
X197313178Y-64633253D01*
X197003958Y-64632795D01*
X196697161Y-64631559D01*
X196412907Y-64629621D01*
X196156554Y-64627057D01*
X195933458Y-64623943D01*
X195748979Y-64620353D01*
X195608473Y-64616364D01*
X195517298Y-64612050D01*
X195480813Y-64607487D01*
X195477328Y-64602501D01*
X195467004Y-64550047D01*
X195458445Y-64449111D01*
X195451653Y-64308546D01*
X195446627Y-64137203D01*
X195443367Y-63943935D01*
X195441872Y-63737592D01*
X195442144Y-63527028D01*
X195444180Y-63321093D01*
X195447982Y-63128640D01*
X195453550Y-62958521D01*
X195460882Y-62819588D01*
X195469980Y-62720692D01*
X195480842Y-62670685D01*
X195483092Y-62666420D01*
X195576422Y-62549078D01*
X195702053Y-62471561D01*
X195716567Y-62468514D01*
X195788857Y-62462484D01*
X195911683Y-62457241D01*
X196078536Y-62452784D01*
X196282912Y-62449113D01*
X196518302Y-62446225D01*
X196778201Y-62444120D01*
X197056102Y-62442797D01*
X197345498Y-62442254D01*
X197639884Y-62442489D01*
G37*
G36*
X189345759Y-69243505D02*
G01*
X189376359Y-69357251D01*
X189409285Y-69482530D01*
X189449805Y-69632956D01*
X189499080Y-69807270D01*
X189545164Y-69962909D01*
X189548005Y-69972238D01*
X189580423Y-70082306D01*
X189624185Y-70235398D01*
X189675515Y-70418090D01*
X189730639Y-70616960D01*
X189785782Y-70818582D01*
X189792065Y-70841712D01*
X189847227Y-71043676D01*
X189901696Y-71241331D01*
X189951742Y-71421258D01*
X189993635Y-71570039D01*
X190023645Y-71674256D01*
X190047378Y-71754857D01*
X190103460Y-71946086D01*
X190147092Y-72096435D01*
X190181784Y-72218169D01*
X190211044Y-72323552D01*
X190238381Y-72424847D01*
X190280118Y-72581181D01*
X190324106Y-72744942D01*
X190362296Y-72885507D01*
X190400020Y-73022473D01*
X190442612Y-73175438D01*
X190450866Y-73204978D01*
X190495710Y-73365483D01*
X190542032Y-73531288D01*
X190581012Y-73670828D01*
X190582741Y-73677003D01*
X190620033Y-73804052D01*
X190657734Y-73923129D01*
X190687934Y-74009202D01*
X190692074Y-74020307D01*
X190720376Y-74126650D01*
X190731959Y-74226873D01*
X190731959Y-74331348D01*
X189557015Y-74331348D01*
X189260620Y-74330837D01*
X188971917Y-74328918D01*
X188736647Y-74325481D01*
X188551276Y-74320424D01*
X188412269Y-74313649D01*
X188316093Y-74305054D01*
X188259213Y-74294539D01*
X188190204Y-74266905D01*
X188057414Y-74174780D01*
X187949134Y-74049317D01*
X187882805Y-73908406D01*
X187875579Y-73882398D01*
X187843911Y-73769389D01*
X187815942Y-73670828D01*
X187803156Y-73624758D01*
X187774366Y-73515514D01*
X187745483Y-73400615D01*
X187731594Y-73344956D01*
X187694345Y-73202327D01*
X187658056Y-73070355D01*
X187653470Y-73054134D01*
X187621462Y-72936265D01*
X187583921Y-72792401D01*
X187548039Y-72650024D01*
X187542657Y-72628289D01*
X187501461Y-72465956D01*
X187454594Y-72286383D01*
X187411183Y-72124611D01*
X187395036Y-72065603D01*
X187350906Y-71904136D01*
X187318710Y-71785793D01*
X187295411Y-71699223D01*
X187277973Y-71633074D01*
X187263359Y-71575994D01*
X187248531Y-71516632D01*
X187216879Y-71389031D01*
X185285188Y-71389031D01*
X185121298Y-71389066D01*
X184737083Y-71389501D01*
X184407909Y-71390488D01*
X184130167Y-71392097D01*
X183900246Y-71394397D01*
X183714538Y-71397456D01*
X183569431Y-71401343D01*
X183461316Y-71406129D01*
X183386583Y-71411881D01*
X183341622Y-71418668D01*
X183322823Y-71426561D01*
X183322794Y-71426596D01*
X183309762Y-71450776D01*
X183291139Y-71500207D01*
X183265564Y-71579585D01*
X183231678Y-71693602D01*
X183188121Y-71846956D01*
X183133533Y-72044339D01*
X183066554Y-72290448D01*
X182985825Y-72589977D01*
X182956217Y-72700022D01*
X182907965Y-72878810D01*
X182861390Y-73050824D01*
X182823419Y-73190450D01*
X182796510Y-73289505D01*
X182752056Y-73454238D01*
X182703744Y-73634209D01*
X182658145Y-73804982D01*
X182618546Y-73949080D01*
X182580156Y-74080289D01*
X182547882Y-74182180D01*
X182526102Y-74240324D01*
X182489680Y-74316336D01*
X181439248Y-74325248D01*
X181168021Y-74327218D01*
X180913557Y-74327851D01*
X180707063Y-74326275D01*
X180542148Y-74321939D01*
X180412420Y-74314292D01*
X180311489Y-74302783D01*
X180232962Y-74286862D01*
X180170447Y-74265979D01*
X180117554Y-74239582D01*
X180067890Y-74207122D01*
X179998213Y-74140300D01*
X179940289Y-74055780D01*
X179922240Y-74008170D01*
X179902014Y-73909495D01*
X179893830Y-73803008D01*
X179898884Y-73710638D01*
X179918374Y-73654315D01*
X179937590Y-73614926D01*
X179966037Y-73534130D01*
X179996812Y-73430639D01*
X180024683Y-73330743D01*
X180054246Y-73228435D01*
X180075080Y-73160426D01*
X180077908Y-73151471D01*
X180097140Y-73086064D01*
X180128709Y-72975372D01*
X180169845Y-72829226D01*
X180217778Y-72657453D01*
X180269735Y-72469883D01*
X180272937Y-72458288D01*
X180330590Y-72250801D01*
X180389278Y-72041780D01*
X180444785Y-71846090D01*
X180492897Y-71678596D01*
X180529399Y-71554161D01*
X180552502Y-71476388D01*
X180595203Y-71330229D01*
X180632728Y-71198936D01*
X180658951Y-71103807D01*
X180674011Y-71047722D01*
X180709406Y-70918945D01*
X180758094Y-70744599D01*
X180820927Y-70521657D01*
X180898755Y-70247091D01*
X180992431Y-69917873D01*
X181002230Y-69883476D01*
X181053833Y-69702151D01*
X181113652Y-69491727D01*
X181175035Y-69275612D01*
X181200144Y-69187122D01*
X183901846Y-69187122D01*
X183902881Y-69223653D01*
X183906888Y-69225450D01*
X183957194Y-69231582D01*
X184057864Y-69236962D01*
X184201537Y-69241578D01*
X184380852Y-69245422D01*
X184588450Y-69248482D01*
X184816970Y-69250748D01*
X185059051Y-69252211D01*
X185307335Y-69252858D01*
X185554460Y-69252682D01*
X185793066Y-69251670D01*
X186015794Y-69249812D01*
X186215282Y-69247099D01*
X186384171Y-69243520D01*
X186515100Y-69239065D01*
X186600709Y-69233723D01*
X186633637Y-69227483D01*
X186639648Y-69182760D01*
X186624015Y-69112929D01*
X186609535Y-69071575D01*
X186578945Y-68975027D01*
X186547364Y-68867046D01*
X186504319Y-68712662D01*
X186431203Y-68448329D01*
X186367105Y-68213153D01*
X186306926Y-67988349D01*
X186245568Y-67755131D01*
X186199200Y-67578609D01*
X186148622Y-67387788D01*
X186100863Y-67209133D01*
X186062039Y-67065627D01*
X186053029Y-67032587D01*
X186005169Y-66855544D01*
X185954024Y-66664414D01*
X185909234Y-66495178D01*
X185871298Y-66350745D01*
X185825370Y-66176369D01*
X185787329Y-66032803D01*
X185752844Y-65903799D01*
X185717587Y-65773112D01*
X185677228Y-65624492D01*
X185667298Y-65587762D01*
X185621512Y-65414052D01*
X185574404Y-65229748D01*
X185534747Y-65069055D01*
X185531527Y-65055758D01*
X185488015Y-64900615D01*
X185444461Y-64795526D01*
X185397116Y-64731289D01*
X185374361Y-64711624D01*
X185293649Y-64669067D01*
X185218921Y-64677101D01*
X185148552Y-64737611D01*
X185080917Y-64852479D01*
X185014394Y-65023590D01*
X184947357Y-65252826D01*
X184911551Y-65389157D01*
X184859290Y-65587217D01*
X184805005Y-65792088D01*
X184752151Y-65990792D01*
X184704181Y-66170350D01*
X184664550Y-66317785D01*
X184636710Y-66420119D01*
X184628929Y-66448823D01*
X184604776Y-66539810D01*
X184572874Y-66661419D01*
X184538019Y-66795414D01*
X184528001Y-66833965D01*
X184488859Y-66983205D01*
X184440899Y-67164596D01*
X184389276Y-67358682D01*
X184339145Y-67546005D01*
X184322459Y-67608148D01*
X184271670Y-67797545D01*
X184221357Y-67985476D01*
X184176561Y-68153103D01*
X184142323Y-68281585D01*
X184128535Y-68333143D01*
X184092478Y-68465350D01*
X184060286Y-68580023D01*
X184037619Y-68656880D01*
X184028419Y-68686530D01*
X183982342Y-68843086D01*
X183944164Y-68985958D01*
X183916469Y-69104263D01*
X183901846Y-69187122D01*
X181200144Y-69187122D01*
X181231332Y-69077211D01*
X181256717Y-68987707D01*
X181303341Y-68823415D01*
X181344879Y-68677162D01*
X181377568Y-68562192D01*
X181397646Y-68491750D01*
X181430221Y-68377798D01*
X181468808Y-68242440D01*
X181495529Y-68148039D01*
X181513258Y-68084417D01*
X181524870Y-68041396D01*
X181534931Y-68004898D01*
X181559721Y-67918562D01*
X181589825Y-67816218D01*
X181609469Y-67749716D01*
X181640860Y-67641681D01*
X181663676Y-67561017D01*
X181678045Y-67508887D01*
X181716760Y-67370104D01*
X181766287Y-67194568D01*
X181828596Y-66975305D01*
X181905659Y-66705344D01*
X181924573Y-66639132D01*
X181969088Y-66482848D01*
X182007998Y-66345629D01*
X182037656Y-66240361D01*
X182054413Y-66179930D01*
X182062081Y-66151623D01*
X182113094Y-65967665D01*
X182177166Y-65742392D01*
X182250441Y-65489386D01*
X182268952Y-65425511D01*
X182317292Y-65255947D01*
X182368946Y-65071840D01*
X182415489Y-64903114D01*
X182428102Y-64857227D01*
X182524146Y-64534766D01*
X182621610Y-64259334D01*
X182725361Y-64019532D01*
X182840264Y-63803958D01*
X182971185Y-63601212D01*
X183094003Y-63438061D01*
X183366694Y-63145364D01*
X183670808Y-62903766D01*
X184005900Y-62713496D01*
X184371526Y-62574784D01*
X184767240Y-62487861D01*
X185192598Y-62452956D01*
X185520519Y-62459710D01*
X185931169Y-62511653D01*
X186310020Y-62613435D01*
X186659130Y-62765819D01*
X186980560Y-62969570D01*
X187276371Y-63225450D01*
X187452086Y-63417323D01*
X187618313Y-63641981D01*
X187764428Y-63893089D01*
X187894706Y-64179026D01*
X188013422Y-64508174D01*
X188124849Y-64888913D01*
X188129623Y-64906590D01*
X188157789Y-65004929D01*
X188182715Y-65084067D01*
X188186502Y-65095404D01*
X188211990Y-65181322D01*
X188237576Y-65279221D01*
X188241879Y-65297007D01*
X188251357Y-65335768D01*
X188261345Y-65375316D01*
X188273596Y-65421986D01*
X188289864Y-65482113D01*
X188311901Y-65562029D01*
X188341462Y-65668071D01*
X188380299Y-65806571D01*
X188430165Y-65983864D01*
X188492815Y-66206285D01*
X188570002Y-66480166D01*
X188589435Y-66549128D01*
X188651187Y-66768423D01*
X188707937Y-66970190D01*
X188757427Y-67146376D01*
X188797394Y-67288928D01*
X188825578Y-67389795D01*
X188839719Y-67440923D01*
X188854493Y-67494751D01*
X188883363Y-67598121D01*
X188915319Y-67711135D01*
X188937118Y-67788359D01*
X188974926Y-67924463D01*
X189006751Y-68041396D01*
X189014276Y-68069189D01*
X189045752Y-68182193D01*
X189085285Y-68320986D01*
X189126107Y-68461727D01*
X189138612Y-68504561D01*
X189180746Y-68650927D01*
X189220057Y-68790169D01*
X189249401Y-68897069D01*
X189267042Y-68962466D01*
X189297020Y-69071114D01*
X189320215Y-69152270D01*
X189323211Y-69162521D01*
X189328846Y-69182760D01*
X189345759Y-69243505D01*
G37*
G36*
X121732195Y-119613614D02*
G01*
X121732114Y-119652367D01*
X121729819Y-119818043D01*
X121724845Y-119955497D01*
X121717827Y-120051348D01*
X121709405Y-120092214D01*
X121696870Y-120093379D01*
X121622872Y-120095356D01*
X121485036Y-120097281D01*
X121286233Y-120099147D01*
X121029335Y-120100947D01*
X120717214Y-120102674D01*
X120352740Y-120104319D01*
X119938786Y-120105875D01*
X119478221Y-120107335D01*
X118973919Y-120108692D01*
X118428750Y-120109937D01*
X117845586Y-120111064D01*
X117227298Y-120112065D01*
X116576757Y-120112932D01*
X115896835Y-120113658D01*
X115190404Y-120114236D01*
X114460334Y-120114658D01*
X113709497Y-120114917D01*
X112940764Y-120115005D01*
X104194914Y-120115005D01*
X104194914Y-119636405D01*
X104194914Y-119157804D01*
X112963555Y-119157804D01*
X121732195Y-119157804D01*
X121732195Y-119613614D01*
G37*
G36*
X104880004Y-122815678D02*
G01*
X104903156Y-122886402D01*
X104993528Y-123161346D01*
X105076859Y-123413137D01*
X105150802Y-123634797D01*
X105213008Y-123819346D01*
X105261128Y-123959807D01*
X105292812Y-124049201D01*
X105305714Y-124080550D01*
X105307087Y-124078484D01*
X105325215Y-124031843D01*
X105361830Y-123929014D01*
X105414548Y-123776959D01*
X105480987Y-123582637D01*
X105558764Y-123353010D01*
X105645494Y-123095036D01*
X105738795Y-122815678D01*
X106159901Y-121550806D01*
X106749951Y-121550806D01*
X107340002Y-121550806D01*
X107340002Y-123789971D01*
X107340002Y-126029137D01*
X106878869Y-126029137D01*
X106417737Y-126029137D01*
X106408815Y-124601882D01*
X106399894Y-123174628D01*
X106038163Y-124251479D01*
X105676431Y-125328329D01*
X105315967Y-125337989D01*
X104955503Y-125347649D01*
X104604810Y-124295324D01*
X104553487Y-124141918D01*
X104470760Y-123897239D01*
X104395475Y-123677735D01*
X104330420Y-123491357D01*
X104278383Y-123346060D01*
X104242152Y-123249798D01*
X104224516Y-123210523D01*
X104221825Y-123212995D01*
X104215487Y-123264425D01*
X104209757Y-123375408D01*
X104204770Y-123539659D01*
X104200658Y-123750890D01*
X104197556Y-124002814D01*
X104195597Y-124289143D01*
X104194914Y-124603592D01*
X104194914Y-126029137D01*
X103767592Y-126029137D01*
X103340271Y-126029137D01*
X103340271Y-123789971D01*
X103340271Y-121550806D01*
X103903270Y-121550806D01*
X104466270Y-121550806D01*
X104880004Y-122815678D01*
G37*
G36*
X116062978Y-121636270D02*
G01*
X116063073Y-121636621D01*
X116076575Y-121690866D01*
X116104068Y-121804580D01*
X116143894Y-121970794D01*
X116194393Y-122182542D01*
X116253906Y-122432854D01*
X116320774Y-122714762D01*
X116393339Y-123021299D01*
X116469940Y-123345497D01*
X116474960Y-123366758D01*
X116550599Y-123686131D01*
X116621656Y-123984367D01*
X116686554Y-124254975D01*
X116743718Y-124491467D01*
X116791572Y-124687351D01*
X116828540Y-124836140D01*
X116853047Y-124931343D01*
X116863517Y-124966470D01*
X116889177Y-124966530D01*
X116890081Y-124964667D01*
X116903974Y-124916849D01*
X116931554Y-124810778D01*
X116971110Y-124653496D01*
X117020931Y-124452048D01*
X117079307Y-124213477D01*
X117144526Y-123944826D01*
X117214877Y-123653139D01*
X117288649Y-123345459D01*
X117364131Y-123028831D01*
X117439613Y-122710298D01*
X117513382Y-122396903D01*
X117711807Y-121550806D01*
X118183643Y-121550806D01*
X118239902Y-121550988D01*
X118403264Y-121553771D01*
X118535239Y-121559387D01*
X118623500Y-121567169D01*
X118655722Y-121576445D01*
X118653820Y-121586240D01*
X118638179Y-121653001D01*
X118607885Y-121777887D01*
X118564307Y-121955383D01*
X118508810Y-122179973D01*
X118442764Y-122446142D01*
X118367534Y-122748376D01*
X118284489Y-123081157D01*
X118194995Y-123438972D01*
X118100421Y-123816305D01*
X117544877Y-126030526D01*
X116878038Y-126021285D01*
X116211199Y-126012044D01*
X115674207Y-123858343D01*
X115643841Y-123736540D01*
X115551886Y-123367535D01*
X115464948Y-123018418D01*
X115384469Y-122694995D01*
X115311892Y-122403072D01*
X115248657Y-122148455D01*
X115196208Y-121936952D01*
X115155987Y-121774367D01*
X115129436Y-121666506D01*
X115117997Y-121619177D01*
X115098780Y-121533713D01*
X115567035Y-121533713D01*
X116035290Y-121533713D01*
X116062978Y-121636270D01*
G37*
G36*
X113644229Y-121535002D02*
G01*
X113802925Y-121537567D01*
X113919733Y-121543059D01*
X114005543Y-121552487D01*
X114071248Y-121566863D01*
X114127740Y-121587196D01*
X114185908Y-121614496D01*
X114330551Y-121704328D01*
X114472401Y-121846712D01*
X114596438Y-122042517D01*
X114625748Y-122105987D01*
X114649503Y-122185267D01*
X114665551Y-122287239D01*
X114676193Y-122427127D01*
X114683728Y-122620157D01*
X114696854Y-123057072D01*
X114257526Y-123047479D01*
X113818198Y-123037885D01*
X113816663Y-122866956D01*
X113813470Y-122701326D01*
X113805000Y-122579426D01*
X113788214Y-122496432D01*
X113759988Y-122437254D01*
X113717195Y-122386802D01*
X113716516Y-122386124D01*
X113672969Y-122347805D01*
X113624607Y-122323455D01*
X113555545Y-122309942D01*
X113449898Y-122304132D01*
X113291779Y-122302892D01*
X113147788Y-122303967D01*
X113035001Y-122309597D01*
X112959598Y-122322871D01*
X112905145Y-122346867D01*
X112855208Y-122384664D01*
X112846227Y-122392496D01*
X112799772Y-122441777D01*
X112771967Y-122500248D01*
X112756523Y-122587637D01*
X112747152Y-122723670D01*
X112744609Y-122774221D01*
X112741447Y-122870248D01*
X112744810Y-122954631D01*
X112758854Y-123033398D01*
X112787733Y-123112572D01*
X112835601Y-123198182D01*
X112906614Y-123296254D01*
X113004926Y-123412812D01*
X113134691Y-123553884D01*
X113300064Y-123725496D01*
X113505200Y-123933673D01*
X113754253Y-124184443D01*
X114689934Y-125125887D01*
X114689934Y-125577512D01*
X114689934Y-126029137D01*
X113254134Y-126029137D01*
X111818333Y-126029137D01*
X111818333Y-125618908D01*
X111818333Y-125208679D01*
X112711685Y-125208679D01*
X113605037Y-125208679D01*
X112896916Y-124487615D01*
X112847485Y-124437214D01*
X112594038Y-124175576D01*
X112385481Y-123952189D01*
X112217525Y-123759858D01*
X112085880Y-123591392D01*
X111986257Y-123439598D01*
X111914366Y-123297281D01*
X111865917Y-123157249D01*
X111836622Y-123012310D01*
X111822190Y-122855269D01*
X111818333Y-122678935D01*
X111823859Y-122474303D01*
X111849235Y-122262234D01*
X111899230Y-122091725D01*
X111978234Y-121948928D01*
X112090638Y-121819994D01*
X112169792Y-121747299D01*
X112263208Y-121676791D01*
X112363241Y-121623622D01*
X112480173Y-121585406D01*
X112624284Y-121559760D01*
X112805855Y-121544302D01*
X113035169Y-121536647D01*
X113322505Y-121534412D01*
X113432753Y-121534353D01*
X113644229Y-121535002D01*
G37*
G36*
X102588185Y-123789971D02*
G01*
X102588185Y-126029137D01*
X102143770Y-126029137D01*
X101699356Y-126029137D01*
X101699356Y-125225772D01*
X101699356Y-124422407D01*
X101429857Y-124422407D01*
X101291666Y-124424652D01*
X101206800Y-124433394D01*
X101161772Y-124451599D01*
X101142327Y-124482232D01*
X101141041Y-124486333D01*
X101116023Y-124554453D01*
X101070020Y-124671423D01*
X101008244Y-124824628D01*
X100935909Y-125001453D01*
X100858230Y-125189285D01*
X100780419Y-125375508D01*
X100707692Y-125547508D01*
X100645261Y-125692671D01*
X100598340Y-125798383D01*
X100492733Y-126029137D01*
X100019194Y-126029137D01*
X99961444Y-126029007D01*
X99797981Y-126027103D01*
X99665997Y-126023280D01*
X99577790Y-126017992D01*
X99545654Y-126011691D01*
X99548296Y-126002850D01*
X99571387Y-125942820D01*
X99614354Y-125836373D01*
X99672453Y-125694885D01*
X99740938Y-125529732D01*
X99815065Y-125352291D01*
X99890087Y-125173938D01*
X99961261Y-125006050D01*
X100023842Y-124860002D01*
X100073083Y-124747172D01*
X100075329Y-124742107D01*
X100147041Y-124579022D01*
X100193479Y-124466877D01*
X100217349Y-124394551D01*
X100221357Y-124350924D01*
X100208209Y-124324874D01*
X100180610Y-124305282D01*
X100069135Y-124235919D01*
X99956899Y-124150217D01*
X99874326Y-124058707D01*
X99802047Y-123942845D01*
X99699490Y-123755785D01*
X99699490Y-122986606D01*
X99699490Y-122858197D01*
X100575639Y-122858197D01*
X100578382Y-123045751D01*
X100582451Y-123198708D01*
X100588581Y-123327837D01*
X100598851Y-123414409D01*
X100616111Y-123472401D01*
X100643213Y-123515785D01*
X100683009Y-123558537D01*
X100692281Y-123567758D01*
X100731910Y-123603236D01*
X100774725Y-123627654D01*
X100833760Y-123643497D01*
X100922049Y-123653250D01*
X101052626Y-123659397D01*
X101238528Y-123664423D01*
X101699356Y-123675619D01*
X101699356Y-122989255D01*
X101699356Y-122302892D01*
X101280580Y-122303396D01*
X101097573Y-122305686D01*
X100934994Y-122315754D01*
X100818752Y-122337338D01*
X100737007Y-122374168D01*
X100677923Y-122429972D01*
X100629661Y-122508482D01*
X100608322Y-122556568D01*
X100589193Y-122628438D01*
X100578770Y-122724037D01*
X100575639Y-122858197D01*
X99699490Y-122858197D01*
X99699490Y-122217427D01*
X99793228Y-122039628D01*
X99881316Y-121901451D01*
X100050660Y-121735311D01*
X100269409Y-121614686D01*
X100288116Y-121607483D01*
X100339605Y-121591913D01*
X100403885Y-121579634D01*
X100488894Y-121570246D01*
X100602574Y-121563351D01*
X100752862Y-121558549D01*
X100947701Y-121555442D01*
X101195030Y-121553630D01*
X101502788Y-121552716D01*
X102588185Y-121550806D01*
X102588185Y-122989255D01*
X102588185Y-123789971D01*
G37*
G36*
X125697255Y-124374746D02*
G01*
X125820085Y-124849729D01*
X125865719Y-125025375D01*
X125925691Y-125253721D01*
X125984613Y-125475808D01*
X126034562Y-125661640D01*
X126134347Y-126029137D01*
X125660968Y-126029137D01*
X125187590Y-126029137D01*
X125154190Y-125900940D01*
X125147989Y-125877110D01*
X125119746Y-125768297D01*
X125082787Y-125625643D01*
X125043453Y-125473619D01*
X124966115Y-125174493D01*
X124314377Y-125174493D01*
X123662639Y-125174493D01*
X123585933Y-125473619D01*
X123573510Y-125521939D01*
X123534128Y-125673694D01*
X123498730Y-125808196D01*
X123473748Y-125900940D01*
X123438268Y-126029137D01*
X122978368Y-126029137D01*
X122932259Y-126029008D01*
X122769970Y-126026334D01*
X122638651Y-126020728D01*
X122550768Y-126012884D01*
X122518786Y-126003497D01*
X122523107Y-125978846D01*
X122540805Y-125903582D01*
X122572680Y-125777068D01*
X122619287Y-125597204D01*
X122681176Y-125361891D01*
X122758902Y-125069029D01*
X122853018Y-124716519D01*
X122943933Y-124377395D01*
X123851711Y-124377395D01*
X123856055Y-124378847D01*
X123909857Y-124382537D01*
X124015438Y-124385512D01*
X124160605Y-124387498D01*
X124333160Y-124388221D01*
X124500042Y-124387308D01*
X124648082Y-124383318D01*
X124741954Y-124375495D01*
X124789445Y-124363124D01*
X124798341Y-124345489D01*
X124787928Y-124309351D01*
X124762709Y-124214296D01*
X124725460Y-124070501D01*
X124678570Y-123887256D01*
X124624426Y-123673848D01*
X124565418Y-123439567D01*
X124510806Y-123224806D01*
X124455831Y-123014619D01*
X124407481Y-122835965D01*
X124368170Y-122697562D01*
X124340312Y-122608127D01*
X124326324Y-122576378D01*
X124306307Y-122602276D01*
X124287221Y-122670388D01*
X124280576Y-122701380D01*
X124257589Y-122797257D01*
X124221511Y-122942057D01*
X124174983Y-123125329D01*
X124120644Y-123336622D01*
X124061134Y-123565484D01*
X124019271Y-123725839D01*
X123965248Y-123933476D01*
X123919119Y-124111608D01*
X123883245Y-124251077D01*
X123859988Y-124342725D01*
X123851711Y-124377395D01*
X122943933Y-124377395D01*
X122964075Y-124302262D01*
X123092626Y-123824157D01*
X123164318Y-123557695D01*
X123247777Y-123247172D01*
X123328869Y-122945142D01*
X123404507Y-122663109D01*
X123471607Y-122412577D01*
X123527083Y-122205052D01*
X123567851Y-122052037D01*
X123702583Y-121544790D01*
X124315309Y-121549244D01*
X124494242Y-121551584D01*
X124671222Y-121556214D01*
X124813896Y-121562483D01*
X124910909Y-121569879D01*
X124950906Y-121577891D01*
X124953061Y-121582140D01*
X124971108Y-121638161D01*
X125004663Y-121755010D01*
X125052607Y-121928478D01*
X125113824Y-122154360D01*
X125187195Y-122428448D01*
X125271603Y-122746536D01*
X125365931Y-123104416D01*
X125469060Y-123497882D01*
X125579874Y-123922728D01*
X125689657Y-124345489D01*
X125697255Y-124374746D01*
G37*
G36*
X110992319Y-124598371D02*
G01*
X111076874Y-124919234D01*
X111153176Y-125207909D01*
X111219725Y-125458734D01*
X111275019Y-125666047D01*
X111317558Y-125824187D01*
X111345840Y-125927493D01*
X111358366Y-125970303D01*
X111358409Y-125970413D01*
X111363403Y-125994496D01*
X111349780Y-126010840D01*
X111307596Y-126020583D01*
X111226906Y-126024862D01*
X111097765Y-126024815D01*
X110910229Y-126021581D01*
X110438463Y-126012044D01*
X110358849Y-125721465D01*
X110347643Y-125680565D01*
X110306487Y-125530358D01*
X110269689Y-125396061D01*
X110244102Y-125302690D01*
X110208968Y-125174493D01*
X109564502Y-125174493D01*
X108920035Y-125174493D01*
X108849560Y-125439433D01*
X108847294Y-125447957D01*
X108806978Y-125601342D01*
X108768249Y-125751388D01*
X108739199Y-125866754D01*
X108699314Y-126029137D01*
X108222469Y-126029137D01*
X108044369Y-126028602D01*
X107909987Y-126026029D01*
X107824688Y-126020115D01*
X107778488Y-126009558D01*
X107761403Y-125993057D01*
X107763450Y-125969312D01*
X107773311Y-125933808D01*
X107799425Y-125837654D01*
X107839208Y-125690220D01*
X107890515Y-125499481D01*
X107951203Y-125273410D01*
X108019126Y-125019983D01*
X108092140Y-124747172D01*
X108093788Y-124741010D01*
X108199588Y-124345489D01*
X109092380Y-124345489D01*
X109097116Y-124360383D01*
X109137189Y-124373632D01*
X109222243Y-124382213D01*
X109360058Y-124386838D01*
X109558417Y-124388221D01*
X109623705Y-124387996D01*
X109787853Y-124385250D01*
X109920186Y-124379875D01*
X110008522Y-124372488D01*
X110040675Y-124363710D01*
X110037994Y-124347751D01*
X110021398Y-124274336D01*
X109991938Y-124152057D01*
X109952284Y-123991388D01*
X109905107Y-123802803D01*
X109853077Y-123596775D01*
X109798864Y-123383778D01*
X109745138Y-123174287D01*
X109694569Y-122978774D01*
X109649828Y-122807715D01*
X109613585Y-122671583D01*
X109588509Y-122580851D01*
X109577272Y-122545994D01*
X109575877Y-122544614D01*
X109570170Y-122541583D01*
X109563394Y-122548433D01*
X109553583Y-122572215D01*
X109538771Y-122619976D01*
X109516990Y-122698767D01*
X109486275Y-122815636D01*
X109444660Y-122977633D01*
X109390177Y-123191807D01*
X109320861Y-123465207D01*
X109273207Y-123652708D01*
X109218330Y-123867223D01*
X109170359Y-124053198D01*
X109131743Y-124201194D01*
X109104933Y-124301771D01*
X109092380Y-124345489D01*
X108199588Y-124345489D01*
X108252337Y-124148293D01*
X108393553Y-123620563D01*
X108517724Y-123156758D01*
X108625133Y-122755813D01*
X108716067Y-122416664D01*
X108790812Y-122138248D01*
X108849651Y-121919500D01*
X108892872Y-121759357D01*
X108920759Y-121656755D01*
X108933597Y-121610631D01*
X108939866Y-121596327D01*
X108960494Y-121578769D01*
X109002560Y-121566391D01*
X109075451Y-121558320D01*
X109188551Y-121553685D01*
X109351247Y-121551613D01*
X109572924Y-121551232D01*
X110194510Y-121551659D01*
X110764625Y-123730573D01*
X110804454Y-123882724D01*
X110901012Y-124250980D01*
X110930642Y-124363710D01*
X110992319Y-124598371D01*
G37*
G36*
X120842571Y-121535218D02*
G01*
X121045431Y-121537030D01*
X121199240Y-121541279D01*
X121314058Y-121548628D01*
X121399944Y-121559740D01*
X121466958Y-121575280D01*
X121525158Y-121595911D01*
X121538530Y-121601465D01*
X121746856Y-121716304D01*
X121905054Y-121868674D01*
X122026078Y-122070858D01*
X122125331Y-122285799D01*
X122125331Y-123789971D01*
X122125326Y-123956006D01*
X122125161Y-124287854D01*
X122124533Y-124560875D01*
X122123130Y-124781700D01*
X122120640Y-124956962D01*
X122116751Y-125093291D01*
X122111151Y-125197321D01*
X122103529Y-125275681D01*
X122093572Y-125335005D01*
X122080970Y-125381924D01*
X122065410Y-125423069D01*
X122046581Y-125465072D01*
X121985474Y-125580424D01*
X121834627Y-125768496D01*
X121640819Y-125904881D01*
X121399416Y-125993362D01*
X121385392Y-125996101D01*
X121295990Y-126004755D01*
X121154013Y-126011511D01*
X120971767Y-126016032D01*
X120761559Y-126017982D01*
X120535695Y-126017022D01*
X120360157Y-126014659D01*
X120121985Y-126008747D01*
X119935051Y-125998721D01*
X119788732Y-125982779D01*
X119672405Y-125959119D01*
X119575446Y-125925936D01*
X119487234Y-125881428D01*
X119397143Y-125823792D01*
X119261589Y-125701823D01*
X119140695Y-125528701D01*
X119067803Y-125341711D01*
X119062846Y-125312089D01*
X119053275Y-125205985D01*
X119044990Y-125049368D01*
X119038441Y-124854270D01*
X119034080Y-124632726D01*
X119032358Y-124396768D01*
X119031523Y-123601950D01*
X119834887Y-123601950D01*
X120638252Y-123601950D01*
X120638252Y-123995086D01*
X120638252Y-124388221D01*
X120274224Y-124388221D01*
X119910196Y-124388221D01*
X119930131Y-124670693D01*
X119930655Y-124678090D01*
X119948013Y-124864325D01*
X119976018Y-125001118D01*
X120024271Y-125096047D01*
X120102374Y-125156690D01*
X120219929Y-125190625D01*
X120386536Y-125205428D01*
X120611797Y-125208679D01*
X120720273Y-125208494D01*
X120850316Y-125206002D01*
X120936606Y-125197998D01*
X120994377Y-125181264D01*
X121038862Y-125152587D01*
X121085296Y-125108752D01*
X121185224Y-125008824D01*
X121185224Y-123760321D01*
X121185224Y-122511819D01*
X121102789Y-122415902D01*
X121082398Y-122392821D01*
X121043658Y-122358048D01*
X120995484Y-122335706D01*
X120923146Y-122322324D01*
X120811914Y-122314434D01*
X120647056Y-122308567D01*
X120474719Y-122306040D01*
X120281699Y-122316506D01*
X120142113Y-122348890D01*
X120047781Y-122409207D01*
X119990527Y-122503471D01*
X119962172Y-122637698D01*
X119954537Y-122817903D01*
X119954537Y-123054978D01*
X119489429Y-123054978D01*
X119024321Y-123054978D01*
X119036468Y-122653296D01*
X119037810Y-122610523D01*
X119045117Y-122443518D01*
X119056578Y-122322283D01*
X119075721Y-122228148D01*
X119106076Y-122142444D01*
X119151173Y-122046502D01*
X119159183Y-122030824D01*
X119299150Y-121829015D01*
X119479623Y-121675576D01*
X119691035Y-121578794D01*
X119719980Y-121571964D01*
X119843786Y-121556451D01*
X120033528Y-121545087D01*
X120287517Y-121537954D01*
X120604066Y-121535131D01*
X120842571Y-121535218D01*
G37*
G36*
X115881092Y-107779501D02*
G01*
X115875811Y-107991467D01*
X115866555Y-108141333D01*
X115853409Y-108226018D01*
X115823986Y-108300135D01*
X115722063Y-108426316D01*
X115567976Y-108510521D01*
X115364141Y-108551142D01*
X115149164Y-108568398D01*
X115225127Y-109222388D01*
X115249585Y-109431097D01*
X115273638Y-109632808D01*
X115294895Y-109807582D01*
X115311693Y-109941756D01*
X115322371Y-110021667D01*
X115343653Y-110166956D01*
X116033819Y-110167405D01*
X116120240Y-110167684D01*
X116452045Y-110174369D01*
X116731943Y-110191413D01*
X116972903Y-110220771D01*
X117187895Y-110264400D01*
X117389887Y-110324254D01*
X117591850Y-110402288D01*
X117703663Y-110452828D01*
X118075292Y-110667439D01*
X118408289Y-110934532D01*
X118696669Y-111247882D01*
X118934450Y-111601259D01*
X119115648Y-111988435D01*
X119137629Y-112050584D01*
X119209604Y-112313602D01*
X119263220Y-112605754D01*
X119293856Y-112897227D01*
X119296627Y-113135182D01*
X119296895Y-113158208D01*
X119277422Y-113346403D01*
X119225519Y-113533422D01*
X119134768Y-113691043D01*
X118996721Y-113838413D01*
X118951910Y-113878897D01*
X118854410Y-113966981D01*
X119228923Y-114333080D01*
X119288150Y-114391677D01*
X119419761Y-114526972D01*
X119533134Y-114650332D01*
X119617763Y-114750104D01*
X119663142Y-114814637D01*
X119692200Y-114892370D01*
X119709173Y-115051166D01*
X119703110Y-115092428D01*
X119685348Y-115213304D01*
X119623032Y-115348107D01*
X119554318Y-115442436D01*
X119670710Y-115544630D01*
X119700915Y-115571563D01*
X119766069Y-115636530D01*
X119813872Y-115702935D01*
X119846981Y-115781930D01*
X119868052Y-115884670D01*
X119879742Y-116022308D01*
X119884707Y-116205996D01*
X119885603Y-116446887D01*
X119885596Y-116449862D01*
X119885202Y-116609702D01*
X119883246Y-116788932D01*
X119878578Y-116919739D01*
X119869992Y-117013792D01*
X119856284Y-117082761D01*
X119836250Y-117138315D01*
X119808686Y-117192125D01*
X119802687Y-117202601D01*
X119705129Y-117320733D01*
X119559310Y-117414332D01*
X119386290Y-117499796D01*
X119401122Y-117660564D01*
X119401226Y-117688726D01*
X119401482Y-117757833D01*
X119378476Y-117859946D01*
X119325734Y-117968891D01*
X119237601Y-118093952D01*
X119108419Y-118244411D01*
X118932532Y-118429551D01*
X118811001Y-118550068D01*
X118665140Y-118678162D01*
X118540640Y-118760374D01*
X118426204Y-118802060D01*
X118310538Y-118808576D01*
X118182344Y-118785280D01*
X118132188Y-118772570D01*
X118059113Y-118762664D01*
X118011712Y-118781903D01*
X117962824Y-118836642D01*
X117946378Y-118855384D01*
X117857627Y-118929111D01*
X117752244Y-118990420D01*
X117684140Y-119016223D01*
X117600524Y-119034836D01*
X117490257Y-119046440D01*
X117339450Y-119052471D01*
X117134214Y-119054368D01*
X117072600Y-119054336D01*
X116872270Y-119050953D01*
X116721875Y-119039311D01*
X116606819Y-119015320D01*
X116512504Y-118974889D01*
X116424335Y-118913927D01*
X116327715Y-118828343D01*
X116279140Y-118787078D01*
X116218718Y-118763712D01*
X116146014Y-118780550D01*
X116142795Y-118781746D01*
X116040805Y-118805884D01*
X115926942Y-118815756D01*
X115841352Y-118812688D01*
X115728213Y-118794158D01*
X115619936Y-118752801D01*
X115503734Y-118681743D01*
X115416192Y-118612923D01*
X116513878Y-118612923D01*
X116547754Y-118697153D01*
X116637319Y-118764047D01*
X116699156Y-118786495D01*
X116802358Y-118803564D01*
X116951687Y-118812974D01*
X117158156Y-118815819D01*
X117324823Y-118814561D01*
X117462715Y-118809156D01*
X117559317Y-118797804D01*
X117629019Y-118778714D01*
X117686208Y-118750093D01*
X117715019Y-118730656D01*
X117810654Y-118618965D01*
X117851068Y-118469590D01*
X117835065Y-118286259D01*
X117807076Y-118180123D01*
X117726986Y-117995260D01*
X117616961Y-117866743D01*
X117473270Y-117789450D01*
X117473145Y-117789409D01*
X117314937Y-117772401D01*
X117148245Y-117821287D01*
X117100824Y-117852358D01*
X116975509Y-117934467D01*
X116799170Y-118110343D01*
X116621667Y-118347317D01*
X116612047Y-118361976D01*
X116535405Y-118503736D01*
X116513878Y-118612923D01*
X115416192Y-118612923D01*
X115366822Y-118574111D01*
X115196411Y-118423030D01*
X114843770Y-118100462D01*
X112946462Y-118099711D01*
X111049154Y-118098959D01*
X110718119Y-118406968D01*
X110705196Y-118418945D01*
X110570361Y-118538871D01*
X110461388Y-118628776D01*
X110443058Y-118643899D01*
X110337089Y-118723079D01*
X110266256Y-118765462D01*
X110111242Y-118805471D01*
X109921460Y-118812832D01*
X109737928Y-118783174D01*
X109660584Y-118767292D01*
X109603841Y-118784410D01*
X109541983Y-118847461D01*
X109475130Y-118917975D01*
X109394120Y-118976201D01*
X109294615Y-119015738D01*
X109164202Y-119039889D01*
X108990466Y-119051958D01*
X108760992Y-119055247D01*
X108589239Y-119053563D01*
X108395082Y-119043908D01*
X108246937Y-119022939D01*
X108131854Y-118987560D01*
X108036882Y-118934675D01*
X107949068Y-118861190D01*
X107940404Y-118852978D01*
X107874885Y-118802944D01*
X107806283Y-118786866D01*
X107703074Y-118796449D01*
X107600090Y-118807317D01*
X107479952Y-118800954D01*
X107367627Y-118765136D01*
X107250783Y-118693644D01*
X107117092Y-118580260D01*
X106954222Y-118418764D01*
X106911530Y-118374475D01*
X106754914Y-118206953D01*
X106641038Y-118072865D01*
X106563532Y-117961985D01*
X106516026Y-117864086D01*
X106492150Y-117768942D01*
X106486977Y-117688726D01*
X106724658Y-117688726D01*
X106725817Y-117705811D01*
X106765717Y-117812414D01*
X106861251Y-117953224D01*
X107010768Y-118126075D01*
X107212616Y-118328800D01*
X107223094Y-118338772D01*
X107336226Y-118441672D01*
X107419292Y-118503793D01*
X107486973Y-118534326D01*
X107553952Y-118542461D01*
X107613231Y-118538117D01*
X107686436Y-118509539D01*
X108044733Y-118509539D01*
X108096591Y-118647646D01*
X108205054Y-118749083D01*
X108260968Y-118777492D01*
X108328739Y-118796870D01*
X108421894Y-118808511D01*
X108554748Y-118814192D01*
X108741617Y-118815691D01*
X108748503Y-118815690D01*
X108932918Y-118814130D01*
X109063869Y-118808389D01*
X109155766Y-118796654D01*
X109223020Y-118777112D01*
X109280042Y-118747950D01*
X109349087Y-118694528D01*
X109383510Y-118628776D01*
X109374565Y-118544779D01*
X109320949Y-118432155D01*
X109221360Y-118280522D01*
X109052350Y-118070403D01*
X108877722Y-117911907D01*
X108806042Y-117870336D01*
X109322774Y-117870336D01*
X109342378Y-117971082D01*
X109410208Y-118112952D01*
X109518062Y-118266773D01*
X109657127Y-118418106D01*
X109740431Y-118486702D01*
X109896690Y-118560299D01*
X110055277Y-118567342D01*
X110211603Y-118507093D01*
X110280932Y-118458231D01*
X110388481Y-118368677D01*
X110508987Y-118257903D01*
X110631697Y-118136927D01*
X110745857Y-118016770D01*
X110840714Y-117908451D01*
X110905514Y-117822990D01*
X110929504Y-117771407D01*
X110920742Y-117720923D01*
X110920657Y-117720811D01*
X114973406Y-117720811D01*
X114974165Y-117771407D01*
X114974531Y-117795806D01*
X114977130Y-117803429D01*
X115018915Y-117867968D01*
X115098998Y-117963320D01*
X115205770Y-118078064D01*
X115327627Y-118200778D01*
X115452959Y-118320040D01*
X115570159Y-118424428D01*
X115667622Y-118502520D01*
X115733738Y-118542894D01*
X115897238Y-118576994D01*
X116056449Y-118548305D01*
X116208985Y-118453604D01*
X116357773Y-118291713D01*
X116364338Y-118282992D01*
X116482537Y-118110591D01*
X116549903Y-117970614D01*
X116568182Y-117852358D01*
X116539122Y-117745122D01*
X116481858Y-117663108D01*
X117983608Y-117663108D01*
X117985889Y-117842922D01*
X118009411Y-118033798D01*
X118051309Y-118216054D01*
X118108716Y-118370007D01*
X118174544Y-118469590D01*
X118178763Y-118475973D01*
X118219883Y-118511028D01*
X118309035Y-118545875D01*
X118410454Y-118528597D01*
X118531693Y-118456978D01*
X118680308Y-118328800D01*
X118724943Y-118285815D01*
X118916419Y-118088913D01*
X119055233Y-117922319D01*
X119139732Y-117788202D01*
X119168265Y-117688726D01*
X119167043Y-117671938D01*
X119124813Y-117575407D01*
X119029544Y-117468001D01*
X118891002Y-117359083D01*
X118718953Y-117258014D01*
X118629861Y-117219517D01*
X118447524Y-117184390D01*
X118282371Y-117212458D01*
X118140863Y-117301913D01*
X118029460Y-117450948D01*
X118005437Y-117514040D01*
X117983608Y-117663108D01*
X116481858Y-117663108D01*
X116464470Y-117638205D01*
X116385440Y-117563088D01*
X116277739Y-117501950D01*
X116141415Y-117466493D01*
X115963893Y-117453661D01*
X115732599Y-117460399D01*
X115595953Y-117469946D01*
X115397246Y-117492657D01*
X115247295Y-117525207D01*
X115133626Y-117570707D01*
X115043764Y-117632272D01*
X115021222Y-117652712D01*
X114973406Y-117720811D01*
X110920657Y-117720811D01*
X110853141Y-117632231D01*
X110719158Y-117557106D01*
X110519275Y-117495870D01*
X110446756Y-117480459D01*
X110225149Y-117448825D01*
X110005904Y-117437620D01*
X109809844Y-117447269D01*
X109657794Y-117478201D01*
X109546308Y-117534507D01*
X109432800Y-117634166D01*
X109388243Y-117700118D01*
X109352950Y-117752357D01*
X109322774Y-117870336D01*
X108806042Y-117870336D01*
X108707411Y-117813135D01*
X108545827Y-117774308D01*
X108397381Y-117795650D01*
X108266480Y-117877380D01*
X108157535Y-118019720D01*
X108074955Y-118222893D01*
X108049227Y-118333731D01*
X108044733Y-118509539D01*
X107686436Y-118509539D01*
X107686956Y-118509336D01*
X107745382Y-118444457D01*
X107796738Y-118332938D01*
X107849254Y-118164237D01*
X107898740Y-117938985D01*
X107914371Y-117700118D01*
X107881666Y-117503008D01*
X107801501Y-117350121D01*
X107674750Y-117243921D01*
X107502290Y-117186874D01*
X107387994Y-117190357D01*
X107246090Y-117231495D01*
X107097275Y-117301955D01*
X106956137Y-117392322D01*
X106837263Y-117493183D01*
X106755241Y-117595122D01*
X106724658Y-117688726D01*
X106486977Y-117688726D01*
X106485533Y-117666326D01*
X106484632Y-117601990D01*
X106474682Y-117524206D01*
X106445551Y-117480958D01*
X106387289Y-117450377D01*
X106335722Y-117423664D01*
X106217229Y-117331239D01*
X106111251Y-117213312D01*
X106043041Y-117095888D01*
X106036211Y-117068207D01*
X106024567Y-116970348D01*
X106015404Y-116824968D01*
X106009468Y-116645746D01*
X106007998Y-116496172D01*
X106246058Y-116496172D01*
X106246058Y-117043548D01*
X106345986Y-117143476D01*
X106360179Y-117156925D01*
X106479701Y-117224616D01*
X106613973Y-117235064D01*
X106755825Y-117194630D01*
X106898088Y-117109673D01*
X107033593Y-116986556D01*
X107155172Y-116831637D01*
X107255655Y-116651278D01*
X107327874Y-116451839D01*
X107347438Y-116339003D01*
X108036295Y-116339003D01*
X108056744Y-116451594D01*
X108098722Y-116579118D01*
X108212375Y-116769931D01*
X108372495Y-116913738D01*
X108573938Y-117005035D01*
X108717269Y-117034050D01*
X108928697Y-117031336D01*
X109119426Y-116977080D01*
X109284647Y-116879685D01*
X109383642Y-116782725D01*
X110205906Y-116782725D01*
X110207942Y-116844984D01*
X110237343Y-116977365D01*
X110310716Y-117072033D01*
X110439561Y-117146912D01*
X110476151Y-117161244D01*
X110609650Y-117196525D01*
X110766992Y-117221172D01*
X110925771Y-117233179D01*
X111063582Y-117230540D01*
X111158023Y-117211247D01*
X111212502Y-117175065D01*
X111274309Y-117101152D01*
X111289118Y-117062982D01*
X111315617Y-116954268D01*
X111342362Y-116803673D01*
X111367131Y-116627707D01*
X111387703Y-116442880D01*
X111401854Y-116265703D01*
X111407363Y-116112687D01*
X111406468Y-116028969D01*
X111397148Y-115930245D01*
X111373186Y-115865565D01*
X111328983Y-115813561D01*
X111260835Y-115764089D01*
X111169675Y-115744018D01*
X111057529Y-115769954D01*
X110910519Y-115842870D01*
X110675089Y-116002115D01*
X110479572Y-116184874D01*
X110448094Y-116226816D01*
X110331869Y-116381676D01*
X110238480Y-116583850D01*
X110205906Y-116782725D01*
X109383642Y-116782725D01*
X109419549Y-116747556D01*
X109519324Y-116589099D01*
X109579163Y-116412717D01*
X109594255Y-116226816D01*
X109559793Y-116039801D01*
X109470965Y-115860076D01*
X109322964Y-115696046D01*
X109250656Y-115641048D01*
X109059286Y-115548765D01*
X108857575Y-115514966D01*
X108656349Y-115536148D01*
X108466433Y-115608809D01*
X108298655Y-115729443D01*
X108163840Y-115894549D01*
X108072815Y-116100621D01*
X108070550Y-116108457D01*
X108054469Y-116176600D01*
X108040358Y-116236397D01*
X108036295Y-116339003D01*
X107347438Y-116339003D01*
X107364658Y-116239681D01*
X107368778Y-116176600D01*
X107367232Y-116069692D01*
X107346165Y-115990132D01*
X107300141Y-115910160D01*
X107253216Y-115849545D01*
X107123002Y-115746000D01*
X106952102Y-115685731D01*
X106731692Y-115664931D01*
X106626959Y-115667827D01*
X106459951Y-115698339D01*
X106345231Y-115763916D01*
X106277126Y-115867081D01*
X106270883Y-115894685D01*
X106261046Y-115988930D01*
X106253175Y-116129810D01*
X106247951Y-116303499D01*
X106246058Y-116496172D01*
X106007998Y-116496172D01*
X106007509Y-116446359D01*
X106008342Y-116313022D01*
X106014931Y-116090509D01*
X106030386Y-115919611D01*
X106057477Y-115789246D01*
X106098969Y-115688333D01*
X106157631Y-115605792D01*
X106236229Y-115530540D01*
X106338686Y-115444328D01*
X106258327Y-115343933D01*
X106254459Y-115339007D01*
X106193926Y-115237728D01*
X106157348Y-115134662D01*
X106152976Y-115108161D01*
X106150561Y-115016729D01*
X106151580Y-115012524D01*
X106405128Y-115012524D01*
X106416879Y-115118205D01*
X106477880Y-115218523D01*
X106576805Y-115291845D01*
X106625893Y-115306942D01*
X106742516Y-115326009D01*
X106894351Y-115340474D01*
X107061691Y-115349405D01*
X107224826Y-115351868D01*
X107364049Y-115346930D01*
X107459652Y-115333657D01*
X107630524Y-115273578D01*
X107801356Y-115178858D01*
X107936708Y-115065012D01*
X108025806Y-114941343D01*
X108057875Y-114817156D01*
X108057846Y-114815784D01*
X109817599Y-114815784D01*
X109817622Y-114817156D01*
X109821078Y-115024302D01*
X109863075Y-115227087D01*
X109938232Y-115409022D01*
X110041193Y-115554990D01*
X110166599Y-115649874D01*
X110174077Y-115653351D01*
X110280517Y-115689976D01*
X110376980Y-115705045D01*
X110395607Y-115704261D01*
X110520777Y-115672890D01*
X110666794Y-115604318D01*
X110816533Y-115510363D01*
X110952871Y-115402843D01*
X111058684Y-115293579D01*
X111116850Y-115194388D01*
X111128523Y-115149547D01*
X111132543Y-115057788D01*
X111104449Y-114961543D01*
X111039088Y-114851052D01*
X110931310Y-114716549D01*
X110775964Y-114548274D01*
X110632848Y-114402531D01*
X110486868Y-114265564D01*
X110370371Y-114174035D01*
X110276266Y-114123331D01*
X110197465Y-114108839D01*
X110126876Y-114125945D01*
X110100126Y-114142279D01*
X110023693Y-114227504D01*
X109948708Y-114360241D01*
X109882668Y-114525619D01*
X109833069Y-114708764D01*
X109817599Y-114815784D01*
X108057846Y-114815784D01*
X108057759Y-114811624D01*
X108036364Y-114712849D01*
X107985491Y-114582788D01*
X107915905Y-114443201D01*
X107838372Y-114315850D01*
X107763660Y-114222493D01*
X107693859Y-114160659D01*
X107557682Y-114086584D01*
X107400650Y-114064130D01*
X107358168Y-114069740D01*
X107305966Y-114092394D01*
X107239210Y-114138579D01*
X107149712Y-114214753D01*
X107029285Y-114327376D01*
X106869741Y-114482905D01*
X106757791Y-114594878D01*
X106628401Y-114728888D01*
X106522118Y-114844194D01*
X106447685Y-114931252D01*
X106413847Y-114980520D01*
X106405128Y-115012524D01*
X106151580Y-115012524D01*
X106172948Y-114924383D01*
X106225445Y-114822275D01*
X106313359Y-114701558D01*
X106441998Y-114553382D01*
X106616669Y-114368900D01*
X107003974Y-113969695D01*
X107997741Y-113969695D01*
X108055148Y-114127103D01*
X108133349Y-114253492D01*
X108276014Y-114425447D01*
X108441850Y-114580470D01*
X108607762Y-114694838D01*
X108700248Y-114738129D01*
X108886873Y-114793134D01*
X109076469Y-114814224D01*
X109249117Y-114800008D01*
X109384901Y-114749097D01*
X109398259Y-114740234D01*
X109510681Y-114625657D01*
X109599887Y-114462606D01*
X109658898Y-114267422D01*
X109680733Y-114056448D01*
X109678871Y-113938486D01*
X109667041Y-113852098D01*
X109638586Y-113790745D01*
X109586937Y-113731684D01*
X109492149Y-113636808D01*
X108829058Y-113636808D01*
X108701214Y-113636851D01*
X108504497Y-113637601D01*
X108360628Y-113640174D01*
X108259429Y-113645693D01*
X108190720Y-113655281D01*
X108144324Y-113670060D01*
X108110060Y-113691154D01*
X108077749Y-113719685D01*
X108066481Y-113730757D01*
X108001437Y-113839046D01*
X107997741Y-113969695D01*
X107003974Y-113969695D01*
X107015483Y-113957832D01*
X106839162Y-113775790D01*
X106802550Y-113736559D01*
X106705347Y-113608516D01*
X106640353Y-113470572D01*
X106603951Y-113308695D01*
X106593493Y-113125757D01*
X106829725Y-113125757D01*
X106833463Y-113211874D01*
X106841748Y-113243672D01*
X106848907Y-113241952D01*
X106900197Y-113213352D01*
X106974786Y-113160705D01*
X107017049Y-113130839D01*
X107163700Y-113044856D01*
X107348886Y-112952996D01*
X107552866Y-112864075D01*
X107755902Y-112786913D01*
X107938252Y-112730326D01*
X108102989Y-112694469D01*
X108386939Y-112655685D01*
X108691334Y-112636036D01*
X108988687Y-112636994D01*
X109251508Y-112660029D01*
X109331906Y-112672836D01*
X109779371Y-112783846D01*
X110203898Y-112956817D01*
X110600909Y-113188244D01*
X110965830Y-113474622D01*
X111294082Y-113812449D01*
X111475614Y-114056448D01*
X111581091Y-114198220D01*
X111822280Y-114628431D01*
X111868743Y-114729007D01*
X111992117Y-115057788D01*
X112005684Y-115093943D01*
X112099313Y-115478938D01*
X112154827Y-115903926D01*
X112164683Y-116008403D01*
X112177177Y-116112687D01*
X112180510Y-116140508D01*
X112196122Y-116235709D01*
X112209244Y-116278355D01*
X112214458Y-116280666D01*
X112272810Y-116288636D01*
X112385970Y-116296431D01*
X112543465Y-116303552D01*
X112734823Y-116309496D01*
X112949571Y-116313764D01*
X112955053Y-116313844D01*
X113202764Y-116316578D01*
X113389766Y-116316401D01*
X113523523Y-116312962D01*
X113611505Y-116305911D01*
X113661179Y-116294900D01*
X113680012Y-116279578D01*
X113688078Y-116236975D01*
X113701456Y-116138687D01*
X113703210Y-116123820D01*
X114485433Y-116123820D01*
X114485614Y-116146584D01*
X114493837Y-116325748D01*
X114512381Y-116518148D01*
X114538674Y-116707475D01*
X114570146Y-116877413D01*
X114604224Y-117011653D01*
X114638338Y-117093880D01*
X114695559Y-117157029D01*
X114779412Y-117210743D01*
X114814155Y-117221882D01*
X114957310Y-117240460D01*
X115122774Y-117231519D01*
X115292469Y-117199331D01*
X115448312Y-117148167D01*
X115572223Y-117082299D01*
X115646121Y-117005997D01*
X115647968Y-117002472D01*
X115680369Y-116873126D01*
X115670212Y-116711162D01*
X115621892Y-116532980D01*
X115539805Y-116354981D01*
X115506481Y-116306719D01*
X116302229Y-116306719D01*
X116344565Y-116511022D01*
X116438363Y-116699476D01*
X116578006Y-116858505D01*
X116600672Y-116873126D01*
X116757878Y-116974533D01*
X116797476Y-116991107D01*
X117009468Y-117038624D01*
X117226666Y-117027102D01*
X117434223Y-116960878D01*
X117617292Y-116844285D01*
X117761024Y-116681659D01*
X117788825Y-116636095D01*
X117827716Y-116547887D01*
X117846453Y-116446008D01*
X117851533Y-116303296D01*
X117850928Y-116236562D01*
X117841853Y-116124039D01*
X118528208Y-116124039D01*
X118529152Y-116246827D01*
X118541677Y-116303296D01*
X118572114Y-116440527D01*
X118655502Y-116643983D01*
X118770299Y-116839905D01*
X118907488Y-117011005D01*
X119058052Y-117139993D01*
X119153424Y-117195529D01*
X119295893Y-117240094D01*
X119422239Y-117222968D01*
X119540693Y-117144223D01*
X119646866Y-117045043D01*
X119646866Y-116449862D01*
X119646665Y-116330651D01*
X119643717Y-116122355D01*
X119634633Y-115968242D01*
X119616126Y-115858662D01*
X119584911Y-115783968D01*
X119537701Y-115734511D01*
X119471209Y-115700644D01*
X119382149Y-115672718D01*
X119338182Y-115661242D01*
X119200978Y-115639956D01*
X119065969Y-115648854D01*
X118901928Y-115688997D01*
X118843878Y-115709265D01*
X118686401Y-115806200D01*
X118579494Y-115946416D01*
X118528208Y-116124039D01*
X117841853Y-116124039D01*
X117840750Y-116110365D01*
X117812787Y-116010551D01*
X117760265Y-115907760D01*
X117710423Y-115832508D01*
X117558898Y-115677902D01*
X117379993Y-115574449D01*
X117184771Y-115521494D01*
X116984295Y-115518382D01*
X116789629Y-115564458D01*
X116611836Y-115659065D01*
X116461979Y-115801548D01*
X116351122Y-115991252D01*
X116316971Y-116100142D01*
X116302229Y-116306719D01*
X115506481Y-116306719D01*
X115428349Y-116193565D01*
X115371936Y-116135491D01*
X115255177Y-116038312D01*
X115115877Y-115939320D01*
X114972363Y-115850416D01*
X114842964Y-115783503D01*
X114746009Y-115750480D01*
X114725776Y-115747562D01*
X114631937Y-115752873D01*
X114557040Y-115803754D01*
X114528051Y-115837839D01*
X114501202Y-115897357D01*
X114488443Y-115986214D01*
X114485433Y-116123820D01*
X113703210Y-116123820D01*
X113717604Y-116001787D01*
X113734589Y-115841788D01*
X113743240Y-115762304D01*
X113826627Y-115282123D01*
X113884684Y-115092593D01*
X114758306Y-115092593D01*
X114783542Y-115213212D01*
X114871115Y-115351383D01*
X115015606Y-115482967D01*
X115211038Y-115601248D01*
X115257788Y-115623874D01*
X115429961Y-115688803D01*
X115571403Y-115703944D01*
X115695572Y-115668895D01*
X115815928Y-115583258D01*
X115822045Y-115577648D01*
X115945456Y-115419071D01*
X116028566Y-115218690D01*
X116068711Y-114991230D01*
X116063226Y-114751416D01*
X116009445Y-114513971D01*
X115986174Y-114453467D01*
X115917250Y-114320608D01*
X115835885Y-114207121D01*
X115753870Y-114128019D01*
X115682996Y-114098316D01*
X115637076Y-114115040D01*
X115548651Y-114172740D01*
X115433978Y-114262333D01*
X115304247Y-114374114D01*
X115170648Y-114498381D01*
X115044369Y-114625430D01*
X114936601Y-114745559D01*
X114855898Y-114846011D01*
X114795434Y-114937194D01*
X114766026Y-115013309D01*
X114758306Y-115092593D01*
X113884684Y-115092593D01*
X113961268Y-114842583D01*
X114150572Y-114436145D01*
X114397184Y-114056448D01*
X116212700Y-114056448D01*
X116221271Y-114210036D01*
X116252276Y-114343947D01*
X116315257Y-114489940D01*
X116371364Y-114590068D01*
X116443689Y-114693596D01*
X116506419Y-114758639D01*
X116524101Y-114770709D01*
X116678259Y-114831841D01*
X116857026Y-114839521D01*
X116906548Y-114828880D01*
X117852627Y-114828880D01*
X117882081Y-114909668D01*
X117935601Y-114991230D01*
X117944169Y-115004287D01*
X118095934Y-115148762D01*
X118296529Y-115265244D01*
X118306583Y-115269684D01*
X118433481Y-115313295D01*
X118581973Y-115339272D01*
X118775130Y-115351788D01*
X118839549Y-115353546D01*
X118971046Y-115355031D01*
X119069383Y-115353233D01*
X119116987Y-115348331D01*
X119164418Y-115333975D01*
X119246053Y-115314030D01*
X119325440Y-115285555D01*
X119422364Y-115203544D01*
X119470242Y-115092428D01*
X119463806Y-114968396D01*
X119397790Y-114847638D01*
X119384914Y-114833284D01*
X119318549Y-114764561D01*
X119217591Y-114663970D01*
X119093312Y-114542658D01*
X118956984Y-114411769D01*
X118815649Y-114278479D01*
X118708537Y-114182144D01*
X118629746Y-114119730D01*
X118569015Y-114084049D01*
X118516080Y-114067912D01*
X118460680Y-114064130D01*
X118347409Y-114081137D01*
X118196130Y-114157411D01*
X118060556Y-114286917D01*
X117949265Y-114460842D01*
X117870834Y-114670368D01*
X117855113Y-114739976D01*
X117852627Y-114828880D01*
X116906548Y-114828880D01*
X117050442Y-114797961D01*
X117248545Y-114711376D01*
X117441376Y-114583978D01*
X117618975Y-114419980D01*
X117771380Y-114223594D01*
X117794104Y-114187486D01*
X117880089Y-114016981D01*
X117908361Y-113878897D01*
X117879051Y-113769878D01*
X117792290Y-113686564D01*
X117754965Y-113665457D01*
X117707568Y-113646992D01*
X117645964Y-113634505D01*
X117559323Y-113627142D01*
X117436817Y-113624047D01*
X117267619Y-113624365D01*
X117040898Y-113627242D01*
X116400611Y-113636808D01*
X116305905Y-113731684D01*
X116258031Y-113785458D01*
X116227809Y-113845425D01*
X116214872Y-113928180D01*
X116212700Y-114056448D01*
X114397184Y-114056448D01*
X114397949Y-114055270D01*
X114706808Y-113692420D01*
X114989153Y-113424883D01*
X115373852Y-113138751D01*
X115784470Y-112915794D01*
X116220462Y-112756248D01*
X116681285Y-112660348D01*
X117166396Y-112628329D01*
X117466204Y-112645109D01*
X117831198Y-112704960D01*
X118189798Y-112802960D01*
X118522521Y-112933617D01*
X118809884Y-113091441D01*
X118843720Y-113113581D01*
X118946820Y-113179901D01*
X119021575Y-113226241D01*
X119053684Y-113243672D01*
X119064964Y-113216382D01*
X119069123Y-113135182D01*
X119065968Y-113014611D01*
X119056477Y-112869377D01*
X119041628Y-112714189D01*
X119022398Y-112563755D01*
X118999766Y-112432785D01*
X118898561Y-112079191D01*
X118730274Y-111716990D01*
X118507157Y-111387241D01*
X118234392Y-111095414D01*
X117917163Y-110846977D01*
X117560651Y-110647399D01*
X117170040Y-110502149D01*
X116894914Y-110423349D01*
X112963555Y-110423349D01*
X112645099Y-110423359D01*
X112075074Y-110423460D01*
X111567506Y-110423717D01*
X111118491Y-110424191D01*
X110724122Y-110424939D01*
X110380494Y-110426023D01*
X110083700Y-110427500D01*
X109829834Y-110429432D01*
X109614990Y-110431876D01*
X109435262Y-110434892D01*
X109286744Y-110438540D01*
X109165531Y-110442879D01*
X109067715Y-110447968D01*
X108989391Y-110453867D01*
X108926654Y-110460635D01*
X108875596Y-110468332D01*
X108832312Y-110477017D01*
X108792895Y-110486749D01*
X108739631Y-110501439D01*
X108348329Y-110647193D01*
X107991676Y-110847274D01*
X107674241Y-111096102D01*
X107400596Y-111388098D01*
X107175312Y-111717683D01*
X107002959Y-112079277D01*
X106888109Y-112467301D01*
X106835331Y-112876176D01*
X106830776Y-112999240D01*
X106829725Y-113125757D01*
X106593493Y-113125757D01*
X106592527Y-113108853D01*
X106602467Y-112857014D01*
X106652193Y-112473495D01*
X106767939Y-112051277D01*
X106945830Y-111657551D01*
X107185946Y-111292149D01*
X107488363Y-110954903D01*
X107650785Y-110806422D01*
X107823601Y-110673563D01*
X108013864Y-110556577D01*
X108245924Y-110438878D01*
X108301557Y-110412748D01*
X108449784Y-110346614D01*
X108583864Y-110295049D01*
X108715585Y-110255998D01*
X108856735Y-110227406D01*
X109019103Y-110207221D01*
X109214476Y-110193387D01*
X109454645Y-110183851D01*
X109751396Y-110176559D01*
X110573153Y-110159436D01*
X110649880Y-109402564D01*
X110660090Y-109301369D01*
X110681286Y-109088003D01*
X110699407Y-108901090D01*
X110713471Y-108751018D01*
X110722496Y-108648178D01*
X110725498Y-108602959D01*
X110724851Y-108598316D01*
X110684424Y-108570264D01*
X110588338Y-108560227D01*
X110540885Y-108558407D01*
X110365837Y-108522099D01*
X110211371Y-108446837D01*
X110100059Y-108342678D01*
X110092595Y-108332061D01*
X110070553Y-108296122D01*
X110053574Y-108254345D01*
X110040846Y-108197795D01*
X110031556Y-108117540D01*
X110024889Y-108004648D01*
X110020034Y-107850186D01*
X110016177Y-107645220D01*
X110013508Y-107453009D01*
X110855651Y-107453009D01*
X110858926Y-107537768D01*
X110861132Y-107637212D01*
X110861699Y-107742166D01*
X110866196Y-107869448D01*
X110877316Y-107952679D01*
X110897579Y-108006972D01*
X110929504Y-108047441D01*
X110942351Y-108059292D01*
X110961884Y-108071984D01*
X110990444Y-108082619D01*
X111033424Y-108091379D01*
X111096220Y-108098445D01*
X111184227Y-108104000D01*
X111302840Y-108108224D01*
X111457454Y-108111300D01*
X111653465Y-108113409D01*
X111896266Y-108114733D01*
X112191254Y-108115454D01*
X112543823Y-108115753D01*
X112959369Y-108115812D01*
X113067427Y-108115803D01*
X113472939Y-108115523D01*
X113816445Y-108114759D01*
X114103073Y-108113381D01*
X114337947Y-108111255D01*
X114526193Y-108108251D01*
X114672936Y-108104238D01*
X114783303Y-108099084D01*
X114862418Y-108092657D01*
X114915406Y-108084826D01*
X114947395Y-108075461D01*
X114963508Y-108064428D01*
X114965645Y-108061610D01*
X114988056Y-107989533D01*
X115001605Y-107851114D01*
X115006152Y-107647719D01*
X115006133Y-107616694D01*
X115004578Y-107462517D01*
X114998714Y-107360090D01*
X114985986Y-107295132D01*
X114963840Y-107253363D01*
X114929720Y-107220503D01*
X114926754Y-107218157D01*
X114906246Y-107205252D01*
X114877311Y-107194353D01*
X114834499Y-107185290D01*
X114772362Y-107177896D01*
X114685448Y-107172002D01*
X114568310Y-107167440D01*
X114415497Y-107164041D01*
X114221559Y-107161638D01*
X113981049Y-107160061D01*
X113688515Y-107159144D01*
X113338510Y-107158717D01*
X112925582Y-107158612D01*
X112557957Y-107158224D01*
X112182990Y-107157427D01*
X111867119Y-107157367D01*
X111605331Y-107159207D01*
X111392610Y-107164107D01*
X111223944Y-107173232D01*
X111094318Y-107187743D01*
X110998720Y-107208803D01*
X110932135Y-107237573D01*
X110889549Y-107275216D01*
X110865949Y-107322895D01*
X110856321Y-107381772D01*
X110855651Y-107453009D01*
X110013508Y-107453009D01*
X110012506Y-107380819D01*
X110009886Y-107141398D01*
X110009397Y-106890706D01*
X110013305Y-106693659D01*
X110022902Y-106542020D01*
X110039483Y-106427554D01*
X110064338Y-106342022D01*
X110098761Y-106277188D01*
X110144044Y-106224817D01*
X110201481Y-106176670D01*
X110325895Y-106081761D01*
X112909597Y-106072813D01*
X113387410Y-106071235D01*
X113808160Y-106070085D01*
X114169939Y-106069475D01*
X114477480Y-106069495D01*
X114735513Y-106070235D01*
X114948768Y-106071783D01*
X115121977Y-106074232D01*
X115259870Y-106077669D01*
X115367178Y-106082185D01*
X115448631Y-106087869D01*
X115508962Y-106094812D01*
X115552899Y-106103104D01*
X115585175Y-106112834D01*
X115610519Y-106124091D01*
X115617253Y-106127646D01*
X115717615Y-106197897D01*
X115798541Y-106280750D01*
X115801051Y-106284197D01*
X115822425Y-106317933D01*
X115839019Y-106358515D01*
X115851581Y-106414731D01*
X115860861Y-106495370D01*
X115867609Y-106609223D01*
X115872574Y-106765078D01*
X115876505Y-106971724D01*
X115880151Y-107237951D01*
X115882315Y-107508519D01*
X115881687Y-107647719D01*
X115881092Y-107779501D01*
G37*
D13*
%TO.C,C20*%
X153075000Y-97781248D02*
X153075000Y-98303752D01*
X154545000Y-97781248D02*
X154545000Y-98303752D01*
%TO.C,C13*%
X168734457Y-86874990D02*
X168364990Y-87244457D01*
X167695010Y-85835543D02*
X167325543Y-86205010D01*
%TO.C,C5*%
X191605000Y-113548748D02*
X191605000Y-114071252D01*
X193075000Y-113548748D02*
X193075000Y-114071252D01*
%TO.C,C4*%
X160921252Y-73685000D02*
X160398748Y-73685000D01*
X160921252Y-75155000D02*
X160398748Y-75155000D01*
%TO.C,C16*%
X148985000Y-97828748D02*
X148985000Y-98351252D01*
X150455000Y-97828748D02*
X150455000Y-98351252D01*
%TO.C,C2*%
X160358748Y-71655000D02*
X160881252Y-71655000D01*
X160358748Y-73125000D02*
X160881252Y-73125000D01*
%TO.C,C7*%
X189515000Y-114081252D02*
X189515000Y-113558748D01*
X190985000Y-114081252D02*
X190985000Y-113558748D01*
%TO.C,C14*%
X157085000Y-97778748D02*
X157085000Y-98301252D01*
X158555000Y-97778748D02*
X158555000Y-98301252D01*
%TO.C,R37*%
X155085000Y-98227064D02*
X155085000Y-97772936D01*
X156555000Y-98227064D02*
X156555000Y-97772936D01*
%TO.C,C6*%
X193695000Y-114081252D02*
X193695000Y-113558748D01*
X195165000Y-114081252D02*
X195165000Y-113558748D01*
%TO.C,C17*%
X147221252Y-96645000D02*
X146698748Y-96645000D01*
X147221252Y-98115000D02*
X146698748Y-98115000D01*
%TO.C,FB2*%
X148230000Y-98450000D02*
X145710000Y-98450000D01*
X148230000Y-100570000D02*
X145710000Y-100570000D01*
%TO.C,C1*%
X141551252Y-83765000D02*
X141028748Y-83765000D01*
X141551252Y-85235000D02*
X141028748Y-85235000D01*
%TO.C,C3*%
X168281252Y-87785000D02*
X167758748Y-87785000D01*
X168281252Y-89255000D02*
X167758748Y-89255000D01*
%TO.C,C19*%
X141571252Y-85825000D02*
X141048748Y-85825000D01*
X141571252Y-87295000D02*
X141048748Y-87295000D01*
%TO.C,C15*%
X147211252Y-94585000D02*
X146688748Y-94585000D01*
X147211252Y-96055000D02*
X146688748Y-96055000D01*
%TO.C,R36*%
X161525000Y-94939564D02*
X161525000Y-94485436D01*
X162995000Y-94939564D02*
X162995000Y-94485436D01*
%TO.C,C18*%
X145495000Y-92298748D02*
X145495000Y-92821252D01*
X146965000Y-92298748D02*
X146965000Y-92821252D01*
%TD*%
M02*
