M48
; DRILL file {KiCad 8.0.6} date 2025-06-06T13:34:27-0500
; FORMAT={-:-/ absolute / inch / decimal}
; #@! TF.CreationDate,2025-06-06T13:34:27-05:00
; #@! TF.GenerationSoftware,Kicad,Pcbnew,8.0.6
; #@! TF.FileFunction,Plated,1,2,PTH
FMAT,2
INCH
; #@! TA.AperFunction,Plated,PTH,ViaDrill
T1C0.0157
; #@! TA.AperFunction,Plated,PTH,ComponentDrill
T2C0.0236
; #@! TA.AperFunction,Plated,PTH,ComponentDrill
T3C0.0354
; #@! TA.AperFunction,Plated,PTH,ComponentDrill
T4C0.0394
; #@! TA.AperFunction,Plated,PTH,ComponentDrill
T5C0.0402
; #@! TA.AperFunction,Plated,PTH,ComponentDrill
T6C0.1063
%
G90
G05
T1
X5.6602Y-3.3701
X5.747Y-3.5258
X5.8098Y-3.6031
X5.9236Y-3.7118
X5.9356Y-3.7549
X5.9417Y-3.8118
X6.1872Y-2.9471
X6.2124Y-3.7648
X6.2291Y-2.9602
X6.3406Y-3.6437
X6.5256Y-3.4945
X6.5289Y-3.4502
X7.487Y-4.3634
X7.5307Y-4.0024
X7.5346Y-4.363
X7.5547Y-4.0453
X7.5787Y-4.3642
X7.6335Y-4.1201
X7.6461Y-4.1992
T3
X6.9429Y-3.4016
T4
X3.7689Y-5.1925
X3.7689Y-5.2925
X3.8689Y-5.1925
X3.8689Y-5.2925
X3.9689Y-5.1925
X3.9689Y-5.2925
X4.0409Y-4.1969
X4.0537Y-2.4547
X4.0689Y-5.1925
X4.0689Y-5.2925
X4.1409Y-4.1969
X4.1537Y-2.4547
X4.1689Y-5.1925
X4.1689Y-5.2925
X4.2409Y-4.1969
X4.2537Y-2.4547
X4.2689Y-5.1925
X4.2689Y-5.2925
X4.3409Y-4.1969
X4.3537Y-2.4547
X4.3689Y-5.1925
X4.3689Y-5.2925
X4.4409Y-4.1969
X4.4537Y-2.4547
X4.4689Y-5.1925
X4.4689Y-5.2925
X4.5409Y-4.1969
X4.5689Y-5.1925
X4.5689Y-5.2925
X4.6689Y-5.1925
X4.6689Y-5.2925
X4.7689Y-5.1925
X4.7689Y-5.2925
X4.8689Y-5.1925
X4.8689Y-5.2925
X4.9689Y-5.1925
X4.9689Y-5.2925
X5.0689Y-5.1925
X5.0689Y-5.2925
X5.1689Y-5.1925
X5.1689Y-5.2925
X5.2689Y-5.1925
X5.2689Y-5.2925
X5.3689Y-5.1925
X5.3689Y-5.2925
X5.4689Y-5.1925
X5.4689Y-5.2925
X5.5689Y-5.1925
X5.5689Y-5.2925
X5.6689Y-5.1925
X5.6689Y-5.2925
X5.7689Y-5.1925
X5.7689Y-5.2925
X5.8689Y-5.1925
X5.8689Y-5.2925
X5.9689Y-5.1925
X5.9689Y-5.2925
X6.0689Y-5.1925
X6.0689Y-5.2925
X6.1689Y-5.1925
X6.1689Y-5.2925
X6.2689Y-5.1925
X6.2689Y-5.2925
X6.3689Y-5.1925
X6.3689Y-5.2925
X6.4689Y-5.1925
X6.4689Y-5.2925
T5
X6.1807Y-1.8673
X6.1807Y-1.9854
X6.2988Y-1.8673
X6.2988Y-1.9854
X6.4169Y-1.8673
X6.4169Y-1.9854
X6.7417Y-5.0594
X6.7417Y-5.1776
X6.7878Y-1.8657
X6.7878Y-1.9839
X6.8598Y-5.0594
X6.8598Y-5.1776
X6.9059Y-1.8657
X6.9059Y-1.9839
X7.024Y-1.8657
X7.024Y-1.9839
X7.2362Y-5.0598
X7.2362Y-5.178
X7.3543Y-5.0598
X7.3543Y-5.178
X7.403Y-1.8673
X7.403Y-1.9854
X7.5211Y-1.8673
X7.5211Y-1.9854
X7.6392Y-1.8673
X7.6392Y-1.9854
X7.7315Y-5.0594
X7.7315Y-5.1776
X7.8496Y-5.0594
X7.8496Y-5.1776
X8.0134Y-1.8677
X8.0134Y-1.9858
X8.1315Y-1.8677
X8.1315Y-1.9858
X8.2307Y-5.0583
X8.2307Y-5.1764
X8.2496Y-1.8677
X8.2496Y-1.9858
X8.3488Y-5.0583
X8.3488Y-5.1764
X8.5083Y-3.0642
X8.5083Y-3.1823
X8.5091Y-2.5693
X8.5091Y-2.6874
X8.5091Y-3.5634
X8.5091Y-3.6815
X8.5098Y-2.0697
X8.5098Y-2.1878
X8.6264Y-3.0642
X8.6264Y-3.1823
X8.6272Y-2.5693
X8.6272Y-2.6874
X8.6272Y-3.5634
X8.6272Y-3.6815
X8.6272Y-4.0512
X8.6272Y-4.1693
X8.6272Y-4.2874
X8.6272Y-4.6398
X8.6272Y-4.7579
X8.6272Y-4.876
X8.628Y-2.0697
X8.628Y-2.1878
T6
X3.9713Y-1.7209
X3.9713Y-2.0043
T2
G00X3.4393Y-3.4353
M15
G01X3.4078Y-3.4353
M16
G05
G00X3.4393Y-3.7754
M15
G01X3.4078Y-3.7754
M16
G05
G00X3.4699Y-2.7661
M15
G01X3.4384Y-2.7661
M16
G05
G00X3.4699Y-3.1063
M15
G01X3.4384Y-3.1063
M16
G05
G00X3.6098Y-3.4353
M15
G01X3.5665Y-3.4353
M16
G05
G00X3.6098Y-3.7754
M15
G01X3.5665Y-3.7754
M16
G05
G00X3.6404Y-2.7661
M15
G01X3.597Y-2.7661
M16
G05
G00X3.6404Y-3.1063
M15
G01X3.597Y-3.1063
M16
G05
G00X3.7134Y-1.5969
M15
G01X3.7567Y-1.5969
M16
G05
G00X3.7134Y-2.1283
M15
G01X3.7567Y-2.1283
M16
G05
T4
G00X3.8276Y-1.8823
M15
G01X3.8276Y-1.8429
M16
G05
M30
