%TF.GenerationSoftware,KiCad,Pcbnew,8.0.6*%
%TF.CreationDate,2025-06-06T13:34:11-05:00*%
%TF.ProjectId,Placa_principal_v2,506c6163-615f-4707-9269-6e636970616c,rev?*%
%TF.SameCoordinates,Original*%
%TF.FileFunction,Soldermask,Bot*%
%TF.FilePolarity,Negative*%
%FSLAX46Y46*%
G04 Gerber Fmt 4.6, Leading zero omitted, Abs format (unit mm)*
G04 Created by KiCad (PCBNEW 8.0.6) date 2025-06-06 13:34:11*
%MOMM*%
%LPD*%
G01*
G04 APERTURE LIST*
G04 Aperture macros list*
%AMRoundRect*
0 Rectangle with rounded corners*
0 $1 Rounding radius*
0 $2 $3 $4 $5 $6 $7 $8 $9 X,Y pos of 4 corners*
0 Add a 4 corners polygon primitive as box body*
4,1,4,$2,$3,$4,$5,$6,$7,$8,$9,$2,$3,0*
0 Add four circle primitives for the rounded corners*
1,1,$1+$1,$2,$3*
1,1,$1+$1,$4,$5*
1,1,$1+$1,$6,$7*
1,1,$1+$1,$8,$9*
0 Add four rect primitives between the rounded corners*
20,1,$1+$1,$2,$3,$4,$5,0*
20,1,$1+$1,$4,$5,$6,$7,0*
20,1,$1+$1,$6,$7,$8,$9,0*
20,1,$1+$1,$8,$9,$2,$3,0*%
G04 Aperture macros list end*
%ADD10C,0.650000*%
%ADD11O,2.100000X1.000000*%
%ADD12O,1.800000X1.000000*%
%ADD13C,3.000000*%
%ADD14RoundRect,0.250001X-0.499999X0.499999X-0.499999X-0.499999X0.499999X-0.499999X0.499999X0.499999X0*%
%ADD15C,1.500000*%
%ADD16RoundRect,0.250001X-0.499999X-0.499999X0.499999X-0.499999X0.499999X0.499999X-0.499999X0.499999X0*%
%ADD17RoundRect,0.250001X0.499999X0.499999X-0.499999X0.499999X-0.499999X-0.499999X0.499999X-0.499999X0*%
%ADD18R,1.700000X1.700000*%
%ADD19O,1.700000X1.700000*%
%ADD20R,2.000000X0.900000*%
%ADD21RoundRect,1.025000X1.025000X-1.025000X1.025000X1.025000X-1.025000X1.025000X-1.025000X-1.025000X0*%
%ADD22C,4.100000*%
%ADD23R,1.300000X2.300000*%
%ADD24C,1.800000*%
%ADD25C,3.200000*%
%ADD26RoundRect,0.250001X-0.759999X0.499999X-0.759999X-0.499999X0.759999X-0.499999X0.759999X0.499999X0*%
%ADD27O,2.020000X1.500000*%
%ADD28RoundRect,0.250000X0.475000X-0.250000X0.475000X0.250000X-0.475000X0.250000X-0.475000X-0.250000X0*%
%ADD29RoundRect,0.250000X0.159099X-0.512652X0.512652X-0.159099X-0.159099X0.512652X-0.512652X0.159099X0*%
%ADD30RoundRect,0.250000X-0.250000X-0.475000X0.250000X-0.475000X0.250000X0.475000X-0.250000X0.475000X0*%
%ADD31RoundRect,0.250000X0.250000X0.475000X-0.250000X0.475000X-0.250000X-0.475000X0.250000X-0.475000X0*%
%ADD32RoundRect,0.250000X-0.475000X0.250000X-0.475000X-0.250000X0.475000X-0.250000X0.475000X0.250000X0*%
%ADD33RoundRect,0.250000X-0.450000X0.262500X-0.450000X-0.262500X0.450000X-0.262500X0.450000X0.262500X0*%
%ADD34R,1.200000X1.600000*%
G04 APERTURE END LIST*
D10*
%TO.C,J18*%
X91415000Y-71690000D03*
X91415000Y-77470000D03*
D11*
X91915000Y-70260000D03*
D12*
X87735000Y-70260000D03*
D11*
X91915000Y-78900000D03*
D12*
X87735000Y-78900000D03*
%TD*%
D13*
%TO.C,J11*%
X223450000Y-66760000D03*
D14*
X219130000Y-65260000D03*
D15*
X219130000Y-68260000D03*
X216130000Y-65260000D03*
X216130000Y-68260000D03*
%TD*%
D13*
%TO.C,J4*%
X191035000Y-43110000D03*
D16*
X188035000Y-47430000D03*
D15*
X191035000Y-47430000D03*
X194035000Y-47430000D03*
X188035000Y-50430000D03*
X191035000Y-50430000D03*
X194035000Y-50430000D03*
%TD*%
D13*
%TO.C,J7*%
X185300000Y-135840000D03*
D17*
X186800000Y-131520000D03*
D15*
X183800000Y-131520000D03*
X186800000Y-128520000D03*
X183800000Y-128520000D03*
%TD*%
D13*
%TO.C,J12*%
X223470000Y-54070000D03*
D14*
X219150000Y-52570000D03*
D15*
X219150000Y-55570000D03*
X216150000Y-52570000D03*
X216150000Y-55570000D03*
%TD*%
D13*
%TO.C,J8*%
X197880000Y-135830000D03*
D17*
X199380000Y-131510000D03*
D15*
X196380000Y-131510000D03*
X199380000Y-128510000D03*
X196380000Y-128510000D03*
%TD*%
D13*
%TO.C,J1*%
X210560000Y-135800000D03*
D17*
X212060000Y-131480000D03*
D15*
X209060000Y-131480000D03*
X212060000Y-128480000D03*
X209060000Y-128480000D03*
%TD*%
D18*
%TO.C,J13*%
X115340000Y-106600000D03*
D19*
X112800000Y-106600000D03*
X110260000Y-106600000D03*
X107720000Y-106600000D03*
X105180000Y-106600000D03*
X102640000Y-106600000D03*
%TD*%
D20*
%TO.C,J6*%
X94870000Y-54060000D03*
X94870000Y-40560000D03*
D21*
X100870000Y-50910000D03*
D22*
X100870000Y-43710000D03*
D23*
X97220000Y-47310000D03*
%TD*%
D13*
%TO.C,J2*%
X175410000Y-43070000D03*
D16*
X172410000Y-47390000D03*
D15*
X175410000Y-47390000D03*
X178410000Y-47390000D03*
X172410000Y-50390000D03*
X175410000Y-50390000D03*
X178410000Y-50390000D03*
%TD*%
D18*
%TO.C,J21*%
X164310000Y-134430000D03*
D19*
X164310000Y-131890000D03*
X161770000Y-134430000D03*
X161770000Y-131890000D03*
X159230000Y-134430000D03*
X159230000Y-131890000D03*
X156690000Y-134430000D03*
X156690000Y-131890000D03*
X154150000Y-134430000D03*
X154150000Y-131890000D03*
X151610000Y-134430000D03*
X151610000Y-131890000D03*
X149070000Y-134430000D03*
X149070000Y-131890000D03*
X146530000Y-134430000D03*
X146530000Y-131890000D03*
X143990000Y-134430000D03*
X143990000Y-131890000D03*
X141450000Y-134430000D03*
X141450000Y-131890000D03*
X138910000Y-134430000D03*
X138910000Y-131890000D03*
X136370000Y-134430000D03*
X136370000Y-131890000D03*
X133830000Y-134430000D03*
X133830000Y-131890000D03*
X131290000Y-134430000D03*
X131290000Y-131890000D03*
X128750000Y-134430000D03*
X128750000Y-131890000D03*
X126210000Y-134430000D03*
X126210000Y-131890000D03*
X123670000Y-134430000D03*
X123670000Y-131890000D03*
X121130000Y-134430000D03*
X121130000Y-131890000D03*
X118590000Y-134430000D03*
X118590000Y-131890000D03*
X116050000Y-134430000D03*
X116050000Y-131890000D03*
X113510000Y-134430000D03*
X113510000Y-131890000D03*
X110970000Y-134430000D03*
X110970000Y-131890000D03*
X108430000Y-134430000D03*
X108430000Y-131890000D03*
X105890000Y-134430000D03*
X105890000Y-131890000D03*
X103350000Y-134430000D03*
X103350000Y-131890000D03*
X100810000Y-134430000D03*
X100810000Y-131890000D03*
X98270000Y-134430000D03*
X98270000Y-131890000D03*
X95730000Y-134430000D03*
X95730000Y-131890000D03*
%TD*%
D24*
%TO.C,TP13*%
X176350000Y-86400000D03*
%TD*%
D25*
%TO.C,H3*%
X221395000Y-134675000D03*
%TD*%
D13*
%TO.C,J5*%
X206540000Y-43120000D03*
D16*
X203540000Y-47440000D03*
D15*
X206540000Y-47440000D03*
X209540000Y-47440000D03*
X203540000Y-50440000D03*
X206540000Y-50440000D03*
X209540000Y-50440000D03*
%TD*%
D13*
%TO.C,J17*%
X223450000Y-120850000D03*
D26*
X219130000Y-117850000D03*
D27*
X219130000Y-120850000D03*
X219130000Y-123850000D03*
%TD*%
D18*
%TO.C,J15*%
X102965000Y-62350000D03*
D19*
X105505000Y-62350000D03*
X108045000Y-62350000D03*
X110585000Y-62350000D03*
X113125000Y-62350000D03*
%TD*%
D10*
%TO.C,J19*%
X90637858Y-88686231D03*
X90637858Y-94466231D03*
D11*
X91137858Y-87256231D03*
D12*
X86957858Y-87256231D03*
D11*
X91137858Y-95896231D03*
D12*
X86957858Y-95896231D03*
%TD*%
D13*
%TO.C,J14*%
X223450000Y-92010000D03*
D14*
X219130000Y-90510000D03*
D15*
X219130000Y-93510000D03*
X216130000Y-90510000D03*
X216130000Y-93510000D03*
%TD*%
D25*
%TO.C,H4*%
X222310000Y-44880000D03*
%TD*%
D13*
%TO.C,J9*%
X172740000Y-135830000D03*
D17*
X174240000Y-131510000D03*
D15*
X171240000Y-131510000D03*
X174240000Y-128510000D03*
X171240000Y-128510000D03*
%TD*%
D13*
%TO.C,J10*%
X223430000Y-79330000D03*
D14*
X219110000Y-77830000D03*
D15*
X219110000Y-80830000D03*
X216110000Y-77830000D03*
X216110000Y-80830000D03*
%TD*%
D25*
%TO.C,H2*%
X89000000Y-135160000D03*
%TD*%
D13*
%TO.C,J16*%
X223450000Y-105900000D03*
D26*
X219130000Y-102900000D03*
D27*
X219130000Y-105900000D03*
X219130000Y-108900000D03*
%TD*%
D13*
%TO.C,J3*%
X159990000Y-43110000D03*
D16*
X156990000Y-47430000D03*
D15*
X159990000Y-47430000D03*
X162990000Y-47430000D03*
X156990000Y-50430000D03*
X159990000Y-50430000D03*
X162990000Y-50430000D03*
%TD*%
D25*
%TO.C,H1*%
X88800000Y-59340000D03*
%TD*%
D28*
%TO.C,C20*%
X153810000Y-98992500D03*
X153810000Y-97092500D03*
%TD*%
D29*
%TO.C,C13*%
X167358249Y-87211751D03*
X168701751Y-85868249D03*
%TD*%
D28*
%TO.C,C5*%
X192340000Y-114760000D03*
X192340000Y-112860000D03*
%TD*%
D30*
%TO.C,C4*%
X159710000Y-74420000D03*
X161610000Y-74420000D03*
%TD*%
D28*
%TO.C,C16*%
X149720000Y-99040000D03*
X149720000Y-97140000D03*
%TD*%
D31*
%TO.C,C2*%
X161570000Y-72390000D03*
X159670000Y-72390000D03*
%TD*%
D32*
%TO.C,C7*%
X190250000Y-112870000D03*
X190250000Y-114770000D03*
%TD*%
D28*
%TO.C,C14*%
X157820000Y-98990000D03*
X157820000Y-97090000D03*
%TD*%
D33*
%TO.C,R37*%
X155820000Y-97087500D03*
X155820000Y-98912500D03*
%TD*%
D32*
%TO.C,C6*%
X194430000Y-112870000D03*
X194430000Y-114770000D03*
%TD*%
D30*
%TO.C,C17*%
X146010000Y-97380000D03*
X147910000Y-97380000D03*
%TD*%
D34*
%TO.C,FB2*%
X146170000Y-99510000D03*
X147770000Y-99510000D03*
%TD*%
D30*
%TO.C,C1*%
X140340000Y-84500000D03*
X142240000Y-84500000D03*
%TD*%
%TO.C,C3*%
X167070000Y-88520000D03*
X168970000Y-88520000D03*
%TD*%
%TO.C,C19*%
X140360000Y-86560000D03*
X142260000Y-86560000D03*
%TD*%
%TO.C,C15*%
X146000000Y-95320000D03*
X147900000Y-95320000D03*
%TD*%
D33*
%TO.C,R36*%
X162260000Y-93800000D03*
X162260000Y-95625000D03*
%TD*%
D28*
%TO.C,C18*%
X146230000Y-93510000D03*
X146230000Y-91610000D03*
%TD*%
M02*
