%TF.GenerationSoftware,KiCad,Pcbnew,8.0.6*%
%TF.CreationDate,2025-06-06T13:34:11-05:00*%
%TF.ProjectId,Placa_principal_v2,506c6163-615f-4707-9269-6e636970616c,rev?*%
%TF.SameCoordinates,Original*%
%TF.FileFunction,Paste,Top*%
%TF.FilePolarity,Positive*%
%FSLAX46Y46*%
G04 Gerber Fmt 4.6, Leading zero omitted, Abs format (unit mm)*
G04 Created by KiCad (PCBNEW 8.0.6) date 2025-06-06 13:34:11*
%MOMM*%
%LPD*%
G01*
G04 APERTURE LIST*
G04 Aperture macros list*
%AMRoundRect*
0 Rectangle with rounded corners*
0 $1 Rounding radius*
0 $2 $3 $4 $5 $6 $7 $8 $9 X,Y pos of 4 corners*
0 Add a 4 corners polygon primitive as box body*
4,1,4,$2,$3,$4,$5,$6,$7,$8,$9,$2,$3,0*
0 Add four circle primitives for the rounded corners*
1,1,$1+$1,$2,$3*
1,1,$1+$1,$4,$5*
1,1,$1+$1,$6,$7*
1,1,$1+$1,$8,$9*
0 Add four rect primitives between the rounded corners*
20,1,$1+$1,$2,$3,$4,$5,0*
20,1,$1+$1,$4,$5,$6,$7,0*
20,1,$1+$1,$6,$7,$8,$9,0*
20,1,$1+$1,$8,$9,$2,$3,0*%
G04 Aperture macros list end*
%ADD10R,1.700000X1.000000*%
%ADD11R,2.500000X2.500000*%
%ADD12RoundRect,0.250000X-0.450000X0.262500X-0.450000X-0.262500X0.450000X-0.262500X0.450000X0.262500X0*%
%ADD13RoundRect,0.150000X-0.425000X0.150000X-0.425000X-0.150000X0.425000X-0.150000X0.425000X0.150000X0*%
%ADD14RoundRect,0.075000X-0.500000X0.075000X-0.500000X-0.075000X0.500000X-0.075000X0.500000X0.075000X0*%
%ADD15O,2.100000X1.000000*%
%ADD16O,1.800000X1.000000*%
%ADD17RoundRect,0.250000X-0.262500X-0.450000X0.262500X-0.450000X0.262500X0.450000X-0.262500X0.450000X0*%
%ADD18RoundRect,0.250000X0.450000X-0.262500X0.450000X0.262500X-0.450000X0.262500X-0.450000X-0.262500X0*%
%ADD19RoundRect,0.243750X-0.243750X-0.456250X0.243750X-0.456250X0.243750X0.456250X-0.243750X0.456250X0*%
%ADD20RoundRect,0.050000X-0.225000X-0.050000X0.225000X-0.050000X0.225000X0.050000X-0.225000X0.050000X0*%
%ADD21RoundRect,0.050000X0.050000X-0.225000X0.050000X0.225000X-0.050000X0.225000X-0.050000X-0.225000X0*%
%ADD22RoundRect,0.075000X-0.459619X-0.565685X0.565685X0.459619X0.459619X0.565685X-0.565685X-0.459619X0*%
%ADD23RoundRect,0.075000X0.459619X-0.565685X0.565685X-0.459619X-0.459619X0.565685X-0.565685X0.459619X0*%
%ADD24RoundRect,0.243750X0.243750X0.456250X-0.243750X0.456250X-0.243750X-0.456250X0.243750X-0.456250X0*%
%ADD25RoundRect,0.250000X0.262500X0.450000X-0.262500X0.450000X-0.262500X-0.450000X0.262500X-0.450000X0*%
%ADD26RoundRect,0.150000X0.512500X0.150000X-0.512500X0.150000X-0.512500X-0.150000X0.512500X-0.150000X0*%
%ADD27R,2.900000X5.400000*%
%ADD28RoundRect,0.250000X-1.000000X1.500000X-1.000000X-1.500000X1.000000X-1.500000X1.000000X1.500000X0*%
%ADD29RoundRect,0.250000X0.475000X-0.250000X0.475000X0.250000X-0.475000X0.250000X-0.475000X-0.250000X0*%
%ADD30RoundRect,0.100000X0.637500X0.100000X-0.637500X0.100000X-0.637500X-0.100000X0.637500X-0.100000X0*%
%ADD31RoundRect,0.250000X-0.250000X-0.475000X0.250000X-0.475000X0.250000X0.475000X-0.250000X0.475000X0*%
%ADD32RoundRect,0.150000X-0.150000X0.825000X-0.150000X-0.825000X0.150000X-0.825000X0.150000X0.825000X0*%
%ADD33RoundRect,0.150000X-0.587500X-0.150000X0.587500X-0.150000X0.587500X0.150000X-0.587500X0.150000X0*%
%ADD34RoundRect,0.250000X0.250000X0.475000X-0.250000X0.475000X-0.250000X-0.475000X0.250000X-0.475000X0*%
%ADD35RoundRect,0.243750X-0.456250X0.243750X-0.456250X-0.243750X0.456250X-0.243750X0.456250X0.243750X0*%
%ADD36RoundRect,0.250000X1.500000X1.000000X-1.500000X1.000000X-1.500000X-1.000000X1.500000X-1.000000X0*%
%ADD37RoundRect,0.375000X-0.625000X-0.375000X0.625000X-0.375000X0.625000X0.375000X-0.625000X0.375000X0*%
%ADD38RoundRect,0.500000X-0.500000X-1.400000X0.500000X-1.400000X0.500000X1.400000X-0.500000X1.400000X0*%
%ADD39RoundRect,0.250000X0.300000X-2.050000X0.300000X2.050000X-0.300000X2.050000X-0.300000X-2.050000X0*%
%ADD40RoundRect,0.250000X2.375000X-2.025000X2.375000X2.025000X-2.375000X2.025000X-2.375000X-2.025000X0*%
G04 APERTURE END LIST*
D10*
%TO.C,SW2*%
X118080000Y-70360000D03*
X124380000Y-70360000D03*
X118080000Y-74160000D03*
X124380000Y-74160000D03*
%TD*%
%TO.C,SW1*%
X124600000Y-103000000D03*
X118300000Y-103000000D03*
X124600000Y-99200000D03*
X118300000Y-99200000D03*
%TD*%
D11*
%TO.C,LS1*%
X95470000Y-113310000D03*
X88470000Y-113310000D03*
X95470000Y-106310000D03*
X88470000Y-106310000D03*
%TD*%
D12*
%TO.C,R28*%
X207700000Y-124487500D03*
X207700000Y-126312500D03*
%TD*%
%TO.C,R16*%
X168340000Y-124557500D03*
X168340000Y-126382500D03*
%TD*%
D13*
%TO.C,J18*%
X92490000Y-71380000D03*
X92490000Y-72180000D03*
D14*
X92490000Y-73330000D03*
X92490000Y-74330000D03*
X92490000Y-74830000D03*
X92490000Y-75830000D03*
D13*
X92490000Y-76980000D03*
X92490000Y-77780000D03*
X92490000Y-77780000D03*
X92490000Y-76980000D03*
D14*
X92490000Y-76330000D03*
X92490000Y-75330000D03*
X92490000Y-73830000D03*
X92490000Y-72830000D03*
D13*
X92490000Y-72180000D03*
X92490000Y-71380000D03*
D15*
X91915000Y-70260000D03*
D16*
X87735000Y-70260000D03*
D15*
X91915000Y-78900000D03*
D16*
X87735000Y-78900000D03*
%TD*%
D17*
%TO.C,R30*%
X214847500Y-104960000D03*
X216672500Y-104960000D03*
%TD*%
D12*
%TO.C,R23*%
X214510000Y-124487500D03*
X214510000Y-126312500D03*
%TD*%
%TO.C,R17*%
X175210000Y-124537500D03*
X175210000Y-126362500D03*
%TD*%
D18*
%TO.C,R4*%
X195950000Y-74612500D03*
X195950000Y-72787500D03*
%TD*%
D19*
%TO.C,D3*%
X98235358Y-87076231D03*
X100110358Y-87076231D03*
%TD*%
D12*
%TO.C,R9*%
X149610000Y-66037500D03*
X149610000Y-67862500D03*
%TD*%
D20*
%TO.C,U2*%
X189260000Y-104650000D03*
X189260000Y-105050000D03*
X189260000Y-105450000D03*
X189260000Y-105850000D03*
X189260000Y-106250000D03*
X189260000Y-106650000D03*
D21*
X189760000Y-107150000D03*
X190160000Y-107150000D03*
X190560000Y-107150000D03*
X190960000Y-107150000D03*
X191360000Y-107150000D03*
X191760000Y-107150000D03*
D20*
X192260000Y-106650000D03*
X192260000Y-106250000D03*
X192260000Y-105850000D03*
X192260000Y-105450000D03*
X192260000Y-105050000D03*
X192260000Y-104650000D03*
D21*
X191760000Y-104150000D03*
X191360000Y-104150000D03*
X190960000Y-104150000D03*
X190560000Y-104150000D03*
X190160000Y-104150000D03*
X189760000Y-104150000D03*
%TD*%
D22*
%TO.C,U3*%
X145200377Y-86810253D03*
X145553930Y-87163806D03*
X145907484Y-87517360D03*
X146261037Y-87870913D03*
X146614590Y-88224466D03*
X146968144Y-88578020D03*
X147321697Y-88931573D03*
X147675251Y-89285127D03*
X148028804Y-89638680D03*
X148382357Y-89992233D03*
X148735911Y-90345787D03*
X149089464Y-90699340D03*
X149443017Y-91052894D03*
X149796571Y-91406447D03*
X150150124Y-91760000D03*
X150503678Y-92113554D03*
X150857231Y-92467107D03*
X151210784Y-92820660D03*
X151564338Y-93174214D03*
X151917891Y-93527767D03*
X152271445Y-93881321D03*
X152624998Y-94234874D03*
X152978551Y-94588427D03*
X153332105Y-94941981D03*
X153685658Y-95295534D03*
D23*
X156054466Y-95295534D03*
X156408019Y-94941981D03*
X156761573Y-94588427D03*
X157115126Y-94234874D03*
X157468679Y-93881321D03*
X157822233Y-93527767D03*
X158175786Y-93174214D03*
X158529340Y-92820660D03*
X158882893Y-92467107D03*
X159236446Y-92113554D03*
X159590000Y-91760000D03*
X159943553Y-91406447D03*
X160297107Y-91052894D03*
X160650660Y-90699340D03*
X161004213Y-90345787D03*
X161357767Y-89992233D03*
X161711320Y-89638680D03*
X162064873Y-89285127D03*
X162418427Y-88931573D03*
X162771980Y-88578020D03*
X163125534Y-88224466D03*
X163479087Y-87870913D03*
X163832640Y-87517360D03*
X164186194Y-87163806D03*
X164539747Y-86810253D03*
D22*
X164539747Y-84441445D03*
X164186194Y-84087892D03*
X163832640Y-83734338D03*
X163479087Y-83380785D03*
X163125534Y-83027232D03*
X162771980Y-82673678D03*
X162418427Y-82320125D03*
X162064873Y-81966571D03*
X161711320Y-81613018D03*
X161357767Y-81259465D03*
X161004213Y-80905911D03*
X160650660Y-80552358D03*
X160297107Y-80198804D03*
X159943553Y-79845251D03*
X159590000Y-79491698D03*
X159236446Y-79138144D03*
X158882893Y-78784591D03*
X158529340Y-78431038D03*
X158175786Y-78077484D03*
X157822233Y-77723931D03*
X157468679Y-77370377D03*
X157115126Y-77016824D03*
X156761573Y-76663271D03*
X156408019Y-76309717D03*
X156054466Y-75956164D03*
D23*
X153685658Y-75956164D03*
X153332105Y-76309717D03*
X152978551Y-76663271D03*
X152624998Y-77016824D03*
X152271445Y-77370377D03*
X151917891Y-77723931D03*
X151564338Y-78077484D03*
X151210784Y-78431038D03*
X150857231Y-78784591D03*
X150503678Y-79138144D03*
X150150124Y-79491698D03*
X149796571Y-79845251D03*
X149443017Y-80198804D03*
X149089464Y-80552358D03*
X148735911Y-80905911D03*
X148382357Y-81259465D03*
X148028804Y-81613018D03*
X147675251Y-81966571D03*
X147321697Y-82320125D03*
X146968144Y-82673678D03*
X146614590Y-83027232D03*
X146261037Y-83380785D03*
X145907484Y-83734338D03*
X145553930Y-84087892D03*
X145200377Y-84441445D03*
%TD*%
D24*
%TO.C,D4*%
X118938742Y-123174669D03*
X117063742Y-123174669D03*
%TD*%
D17*
%TO.C,R8*%
X144285000Y-65560000D03*
X146110000Y-65560000D03*
%TD*%
%TO.C,R12*%
X123687500Y-67800000D03*
X125512500Y-67800000D03*
%TD*%
D25*
%TO.C,R3*%
X204222500Y-78430000D03*
X202397500Y-78430000D03*
%TD*%
D26*
%TO.C,U7*%
X99867500Y-75940000D03*
X99867500Y-74990000D03*
X99867500Y-74040000D03*
X97592500Y-74040000D03*
X97592500Y-74990000D03*
X97592500Y-75940000D03*
%TD*%
D25*
%TO.C,R11*%
X98545358Y-94586231D03*
X96720358Y-94586231D03*
%TD*%
%TO.C,R6*%
X125432500Y-96520000D03*
X123607500Y-96520000D03*
%TD*%
D27*
%TO.C,L2*%
X127860000Y-46970000D03*
X137560000Y-46970000D03*
%TD*%
D28*
%TO.C,C21*%
X108290000Y-42690000D03*
X108290000Y-49190000D03*
%TD*%
D25*
%TO.C,R10*%
X96605358Y-89076231D03*
X94780358Y-89076231D03*
%TD*%
D19*
%TO.C,D2*%
X126932500Y-55880000D03*
X128807500Y-55880000D03*
%TD*%
D12*
%TO.C,R20*%
X181350000Y-124617500D03*
X181350000Y-126442500D03*
%TD*%
D29*
%TO.C,C10*%
X113697500Y-97752500D03*
X113697500Y-95852500D03*
%TD*%
D12*
%TO.C,R27*%
X212530000Y-124477500D03*
X212530000Y-126302500D03*
%TD*%
D30*
%TO.C,U5*%
X204005000Y-76245000D03*
X204005000Y-75595000D03*
X204005000Y-74945000D03*
X204005000Y-74295000D03*
X204005000Y-73645000D03*
X204005000Y-72995000D03*
X204005000Y-72345000D03*
X204005000Y-71695000D03*
X204005000Y-71045000D03*
X204005000Y-70395000D03*
X204005000Y-69745000D03*
X204005000Y-69095000D03*
X198280000Y-69095000D03*
X198280000Y-69745000D03*
X198280000Y-70395000D03*
X198280000Y-71045000D03*
X198280000Y-71695000D03*
X198280000Y-72345000D03*
X198280000Y-72995000D03*
X198280000Y-73645000D03*
X198280000Y-74295000D03*
X198280000Y-74945000D03*
X198280000Y-75595000D03*
X198280000Y-76245000D03*
%TD*%
D12*
%TO.C,R13*%
X201780000Y-124487500D03*
X201780000Y-126312500D03*
%TD*%
D31*
%TO.C,C11*%
X142490000Y-49400000D03*
X144390000Y-49400000D03*
%TD*%
D12*
%TO.C,R26*%
X193170000Y-124557500D03*
X193170000Y-126382500D03*
%TD*%
D17*
%TO.C,R34*%
X214940000Y-119970000D03*
X216765000Y-119970000D03*
%TD*%
D25*
%TO.C,R29*%
X110277500Y-119282500D03*
X108452500Y-119282500D03*
%TD*%
D17*
%TO.C,R2*%
X190777500Y-92770000D03*
X192602500Y-92770000D03*
%TD*%
D12*
%TO.C,R24*%
X205720000Y-124507500D03*
X205720000Y-126332500D03*
%TD*%
D25*
%TO.C,R1*%
X189132500Y-92770000D03*
X187307500Y-92770000D03*
%TD*%
D13*
%TO.C,J19*%
X91712858Y-88376231D03*
X91712858Y-89176231D03*
D14*
X91712858Y-90326231D03*
X91712858Y-91326231D03*
X91712858Y-91826231D03*
X91712858Y-92826231D03*
D13*
X91712858Y-93976231D03*
X91712858Y-94776231D03*
X91712858Y-94776231D03*
X91712858Y-93976231D03*
D14*
X91712858Y-93326231D03*
X91712858Y-92326231D03*
X91712858Y-90826231D03*
X91712858Y-89826231D03*
D13*
X91712858Y-89176231D03*
X91712858Y-88376231D03*
D15*
X91137858Y-87256231D03*
D16*
X86957858Y-87256231D03*
D15*
X91137858Y-95896231D03*
D16*
X86957858Y-95896231D03*
%TD*%
D31*
%TO.C,C9*%
X117240000Y-96530000D03*
X119140000Y-96530000D03*
%TD*%
D32*
%TO.C,U8*%
X111130000Y-72505000D03*
X109860000Y-72505000D03*
X108590000Y-72505000D03*
X107320000Y-72505000D03*
X106050000Y-72505000D03*
X104780000Y-72505000D03*
X103510000Y-72505000D03*
X102240000Y-72505000D03*
X102240000Y-77455000D03*
X103510000Y-77455000D03*
X104780000Y-77455000D03*
X106050000Y-77455000D03*
X107320000Y-77455000D03*
X108590000Y-77455000D03*
X109860000Y-77455000D03*
X111130000Y-77455000D03*
%TD*%
D12*
%TO.C,R14*%
X199720000Y-124447500D03*
X199720000Y-126272500D03*
%TD*%
%TO.C,R15*%
X177190000Y-124537500D03*
X177190000Y-126362500D03*
%TD*%
D17*
%TO.C,R33*%
X214865000Y-102960000D03*
X216690000Y-102960000D03*
%TD*%
D12*
%TO.C,R22*%
X183340000Y-124617500D03*
X183340000Y-126442500D03*
%TD*%
D33*
%TO.C,Q2*%
X107512500Y-96912500D03*
X107512500Y-98812500D03*
X109387500Y-97862500D03*
%TD*%
%TO.C,Q1*%
X115837500Y-111592500D03*
X115837500Y-113492500D03*
X117712500Y-112542500D03*
%TD*%
D12*
%TO.C,R25*%
X195290000Y-124557500D03*
X195290000Y-126382500D03*
%TD*%
D34*
%TO.C,C8*%
X199940000Y-78460000D03*
X198040000Y-78460000D03*
%TD*%
D26*
%TO.C,U6*%
X99150358Y-92786231D03*
X99150358Y-91836231D03*
X99150358Y-90886231D03*
X96875358Y-90886231D03*
X96875358Y-91836231D03*
X96875358Y-92786231D03*
%TD*%
D35*
%TO.C,D1*%
X98840000Y-68692500D03*
X98840000Y-70567500D03*
%TD*%
D25*
%TO.C,R31*%
X92822500Y-80950000D03*
X90997500Y-80950000D03*
%TD*%
D36*
%TO.C,C22*%
X138290000Y-58200000D03*
X131790000Y-58200000D03*
%TD*%
D12*
%TO.C,R21*%
X187840000Y-124587500D03*
X187840000Y-126412500D03*
%TD*%
%TO.C,R19*%
X189820000Y-124597500D03*
X189820000Y-126422500D03*
%TD*%
D34*
%TO.C,C12*%
X149790000Y-49500000D03*
X147890000Y-49500000D03*
%TD*%
D25*
%TO.C,R7*%
X109490000Y-93652500D03*
X107665000Y-93652500D03*
%TD*%
D37*
%TO.C,U1*%
X142980000Y-42387500D03*
X142980000Y-44687500D03*
D38*
X149280000Y-44687500D03*
D37*
X142980000Y-46987500D03*
%TD*%
D39*
%TO.C,U4*%
X116810000Y-54360000D03*
X118510000Y-54360000D03*
X120210000Y-54360000D03*
D40*
X117435000Y-47635000D03*
X122985000Y-47635000D03*
X117435000Y-42785000D03*
X122985000Y-42785000D03*
D39*
X121910000Y-54360000D03*
X123610000Y-54360000D03*
%TD*%
D25*
%TO.C,R32*%
X92792500Y-68190000D03*
X90967500Y-68190000D03*
%TD*%
D17*
%TO.C,R35*%
X214927500Y-117850000D03*
X216752500Y-117850000D03*
%TD*%
D12*
%TO.C,R5*%
X196060000Y-76877500D03*
X196060000Y-78702500D03*
%TD*%
%TO.C,R18*%
X170320000Y-124567500D03*
X170320000Y-126392500D03*
%TD*%
M02*
